<svg width="34" height="34" viewBox="0 0 34 34" fill="none" xmlns="http://www.w3.org/2000/svg">
<path d="M6.94076 7.48C6.68332 7.48022 6.4316 7.40404 6.21748 7.26112C6.00336 7.1182 5.83645 6.91495 5.73791 6.67712C5.63936 6.43929 5.6136 6.17756 5.66388 5.92508C5.71416 5.6726 5.83823 5.44071 6.02038 5.25878C6.08301 5.1939 6.16884 5.15656 6.259 5.15496C6.34916 5.15337 6.43626 5.18766 6.50114 5.25028C6.56602 5.31291 6.60337 5.39874 6.60496 5.4889C6.60655 5.57906 6.57227 5.66616 6.50964 5.73104L6.50114 5.73954C6.38455 5.85614 6.31904 6.01427 6.31904 6.17916C6.31904 6.34405 6.38455 6.50219 6.50114 6.61878C6.61773 6.73538 6.77587 6.80088 6.94076 6.80088C7.10565 6.80088 7.26379 6.73538 7.38038 6.61878C7.44301 6.5539 7.52884 6.51656 7.619 6.51496C7.70916 6.51337 7.79626 6.54766 7.86114 6.61028C7.92602 6.67291 7.96337 6.75874 7.96496 6.8489C7.96655 6.93906 7.93227 7.02616 7.86964 7.09104L7.86114 7.09954C7.74033 7.22042 7.59683 7.31626 7.43889 7.38155C7.28095 7.44684 7.11166 7.48029 6.94076 7.48Z" fill="#FFBA63"/>
<path d="M6.46 7.14V8.67C6.46 8.76017 6.49582 8.84666 6.55958 8.91042C6.62334 8.97418 6.70983 9.01 6.8 9.01C6.89017 9.01 6.97665 8.97418 7.04042 8.91042C7.10418 8.84666 7.14 8.76017 7.14 8.67V7.14H6.46Z" fill="#FFBA63"/>
<path d="M6.79999 8.84C7.43121 8.84 8.03657 9.09075 8.48291 9.53709C8.92924 9.98342 9.17999 10.5888 9.17999 11.22V12.92H4.41999V11.22C4.41999 10.5888 4.67074 9.98342 5.11708 9.53709C5.56342 9.09075 6.16878 8.84 6.79999 8.84ZM4.07999 15.64H9.51999V20.74H4.07999V15.64ZM3.39999 24.14H10.2V30.6H3.39999V24.14Z" fill="#E6EBF4"/>
<path d="M12.58 21.42V22.4536C12.5798 22.5554 12.5568 22.6559 12.5127 22.7477C12.4686 22.8395 12.4044 22.9203 12.325 22.984L10.88 24.14H10.2V30.6H5.4604C4.8518 28.0976 4.5832 22.593 5.1 17.68C5.42034 14.6656 6.13831 11.7068 7.2352 8.8808C7.78164 8.98196 8.27538 9.27134 8.63066 9.69867C8.98594 10.126 9.1803 10.6643 9.18 11.22V12.92H9.86C10.0402 12.9205 10.2128 12.9924 10.3402 13.1198C10.4676 13.2472 10.5395 13.4198 10.54 13.6V14.3378C10.54 14.519 10.4676 14.6928 10.3394 14.8206L9.52 15.64V20.74H11.9C12.0802 20.7405 12.2528 20.8124 12.3802 20.9398C12.5076 21.0672 12.5795 21.2398 12.58 21.42Z" fill="#F3F6FB"/>
<path d="M10.2 24.14V30.6H7.14V28.22C7.14054 28.0398 7.21235 27.8672 7.33976 27.7398C7.46717 27.6124 7.63982 27.5405 7.82 27.54H8.16V26.18C8.16054 25.9998 8.23235 25.8272 8.35976 25.6998C8.48717 25.5724 8.65982 25.5005 8.84 25.5H9.1018C9.0648 25.0476 9.05685 24.5934 9.078 24.14H10.2Z" fill="#B5C5D5"/>
<path d="M10.3408 14.8192L9.52 15.64H4.08L3.25924 14.8192C3.1317 14.6917 3.06004 14.5188 3.06 14.3385V13.6C3.06 13.4197 3.13164 13.2467 3.25916 13.1192C3.38669 12.9916 3.55965 12.92 3.74 12.92H9.86C10.0403 12.92 10.2133 12.9916 10.3408 13.1192C10.4684 13.2467 10.54 13.4197 10.54 13.6V14.3385C10.54 14.5188 10.4683 14.6917 10.3408 14.8192ZM11.9 20.74H2.38C2.19965 20.74 2.02669 20.8116 1.89916 20.9392C1.77164 21.0667 1.7 21.2397 1.7 21.42V22.4533C1.70005 22.5552 1.72303 22.6558 1.76722 22.7477C1.81142 22.8396 1.87571 22.9203 1.95534 22.984L3.4 24.14H10.88L12.3247 22.984C12.4043 22.9203 12.4686 22.8396 12.5128 22.7477C12.557 22.6558 12.5799 22.5552 12.58 22.4533V21.42C12.58 21.2397 12.5084 21.0667 12.3808 20.9392C12.2533 20.8116 12.0803 20.74 11.9 20.74Z" fill="#CDDBE8"/>
<path d="M12.495 22.78C12.4529 22.8589 12.3951 22.9284 12.325 22.984L10.88 24.14H3.4L1.955 22.984C1.88493 22.9284 1.82706 22.8589 1.785 22.78H12.495Z" fill="#B5C5D5"/>
<path d="M9.52 25.5H29.24C29.4203 25.5 29.5933 25.5716 29.7208 25.6992C29.8484 25.8267 29.92 25.9997 29.92 26.18V27.54H8.84V26.18C8.84 25.9997 8.91164 25.8267 9.03917 25.6992C9.16669 25.5716 9.33965 25.5 9.52 25.5ZM8.5 27.54H30.26C30.4403 27.54 30.6133 27.6116 30.7408 27.7392C30.8684 27.8667 30.94 28.0397 30.94 28.22V30.6H7.82V28.22C7.82 28.0397 7.89164 27.8667 8.01917 27.7392C8.14669 27.6116 8.31965 27.54 8.5 27.54Z" fill="#F3F6FB"/>
<path d="M20.74 30.6C20.74 30.6 22.4512 30.26 25.16 29.92C27.88 29.58 30.26 28.9 29.4188 27.54H30.26C30.4403 27.54 30.6133 27.6116 30.7408 27.7392C30.8684 27.8667 30.94 28.0397 30.94 28.22V30.6H20.74Z" fill="#CDDBE8"/>
<path d="M10.4788 14.62C10.4448 14.6948 10.3975 14.7625 10.3394 14.8206L9.52 15.64H4.08L3.2606 14.8206C3.20246 14.7626 3.15524 14.6947 3.1212 14.62H10.4788Z" fill="#B5C5D5"/>
<path d="M23.377 14.7839C20.4751 13.0482 19.38 11.2771 19.38 11.2771C19.38 11.2771 18.2849 13.0482 15.383 14.7839C9.52 18.292 10.2 25.5 10.2 25.5H28.56C28.56 25.5 29.24 18.292 23.377 14.7839Z" fill="#01B151"/>
<path d="M28.56 25.5H15.2286C13.4198 20.094 17.2788 15.215 20.3048 12.393C21.2203 13.3209 22.2536 14.1245 23.3784 14.7832C29.24 18.292 28.56 25.5 28.56 25.5Z" fill="#01B151"/>
<path d="M17.9136 12.92C17.9136 12.92 18.7853 10.9562 18.8316 10.2405C18.8581 9.82362 18.5256 9.00864 18.5569 8.59214C18.6068 7.94274 19.38 6.12 19.38 6.12C19.38 6.12 20.1532 7.94274 20.2042 8.59214C20.2382 9.00864 19.9029 9.82362 19.9294 10.2405C19.9747 10.9545 20.8474 12.92 20.8474 12.92H17.9136Z" fill="#FFBA63"/>
<path d="M17.9146 12.92H18.4858C18.4858 12.92 19.3596 10.9548 19.4038 10.2408C19.431 9.8226 19.0978 9.01 19.1284 8.5918C19.2458 7.98876 19.4258 7.39963 19.6656 6.834C19.5092 6.426 19.38 6.12 19.38 6.12C19.38 6.12 18.6082 7.9424 18.5572 8.5918C18.5232 9.01 18.8564 9.8226 18.8292 10.2408C18.785 10.9548 17.9146 12.92 17.9146 12.92Z" fill="#E0B95E"/>
<path d="M20.4 27.54C20.4 27.54 26.7192 27.4815 27.2 26.52C27.2468 26.4311 27.2752 26.3337 27.2834 26.2336C27.2915 26.1335 27.2794 26.0327 27.2476 25.9375C27.2159 25.8422 27.1651 25.7543 27.0985 25.6791C27.0319 25.6039 26.9508 25.543 26.86 25.5H29.24C29.4203 25.5 29.5933 25.5716 29.7208 25.6992C29.8484 25.8267 29.92 25.9997 29.92 26.18V27.54H20.4Z" fill="#CDDBE8"/>
</svg>
