<svg width="16" height="16" viewBox="0 0 16 16" fill="none" xmlns="http://www.w3.org/2000/svg">
<path d="M13.5 13.6675C13.4999 13.8866 13.4557 14.1034 13.37 14.305L13.14 14.84C13.0241 15.11 12.8317 15.3401 12.5864 15.5018C12.3411 15.6636 12.0538 15.7499 11.76 15.75H4.75V13.5H6.3825C5.75082 13.4993 5.14521 13.2481 4.69855 12.8015C4.25189 12.3548 4.00066 11.7492 4 11.1175V7.58001C4.00045 6.76422 4.20048 5.96092 4.58264 5.24018C4.9648 4.51943 5.51749 3.90313 6.1925 3.44501C6.28494 3.53852 6.39015 3.61848 6.505 3.68251L7.2875 4.12751C7.36926 4.17431 7.45783 4.20805 7.55 4.22751C7.73638 4.49767 7.86803 4.80173 7.9375 5.12251L8.42 7.37251L8.75 7.75001L10.75 6.25001L12 7.50001L9.6825 9.39751C9.40272 9.62512 9.05317 9.74958 8.6925 9.75001L9 11L12.3925 12.13C12.715 12.2377 12.9955 12.4442 13.1943 12.7201C13.393 12.996 13.5 13.3275 13.5 13.6675Z" fill="#01B151"/>
<path d="M13.5 13.6675C13.4999 13.8866 13.4557 14.1034 13.37 14.305L13.14 14.84C13.0241 15.11 12.8317 15.3401 12.5864 15.5018C12.3411 15.6636 12.0538 15.7499 11.76 15.75H4.75V13.5H6.3825C5.75082 13.4993 5.14521 13.2481 4.69855 12.8015C4.25189 12.3548 4.00066 11.7492 4 11.1175V7.58001C4.00045 6.76422 4.20048 5.96092 4.58264 5.24018C4.9648 4.51943 5.51749 3.90313 6.1925 3.44501C6.28494 3.53852 6.39015 3.61848 6.505 3.68251L7.2875 4.12751C7.36926 4.17431 7.45783 4.20805 7.55 4.22751C7.73638 4.49767 7.86803 4.80173 7.9375 5.12251L8.23 6.49251L8.42 7.37251L8.635 7.62001L8.75 7.75001L10.75 6.25001L12 7.50001L9.6825 9.39751C9.44019 9.59394 9.14546 9.71479 8.835 9.74501H8.8275C8.7825 9.74751 8.7375 9.75001 8.6925 9.75001L8.815 10.245L9 11L12.3925 12.13C12.715 12.2377 12.9955 12.4442 13.1943 12.7201C13.393 12.996 13.5 13.3275 13.5 13.6675Z" fill="#01B151"/>
<path d="M11 13.25C10.9998 13.3163 10.9734 13.3797 10.9266 13.4266C10.8797 13.4734 10.8162 13.4998 10.75 13.5H6.3825C6.27212 13.5 6.16186 13.4925 6.0525 13.4775C5.93913 13.462 5.82714 13.4378 5.7175 13.405C5.59715 13.3678 5.4794 13.3227 5.365 13.27C5.3075 13.245 5.255 13.215 5.2 13.185C4.83581 12.9764 4.53309 12.6754 4.3224 12.3124C4.11171 11.9494 4.0005 11.5372 4 11.1175V7.58001C4.00045 6.76422 4.20048 5.96092 4.58264 5.24018C4.9648 4.51943 5.51749 3.90313 6.1925 3.44501C6.25693 3.51071 6.32816 3.56937 6.405 3.62001C5.88391 4.08737 5.46719 4.65933 5.18202 5.29859C4.89686 5.93784 4.74965 6.63003 4.75 7.33001V10.6175C4.75053 11.2492 5.00171 11.8549 5.4484 12.3016C5.89509 12.7483 6.50078 12.9995 7.1325 13H10.75C10.8162 13.0002 10.8797 13.0266 10.9266 13.0734C10.9734 13.1203 10.9998 13.1838 11 13.25ZM12.9275 15.19C12.7874 15.3649 12.6097 15.5061 12.4076 15.603C12.2055 15.7 11.9841 15.7502 11.76 15.75H4.75V13.5H5.5V14.25C5.5 14.5152 5.60536 14.7696 5.79289 14.9571C5.98043 15.1447 6.23478 15.25 6.5 15.25H12.51C12.6514 15.2506 12.792 15.2304 12.9275 15.19Z" fill="#028340"/>
<path d="M8.63499 7.62001C8.57595 7.61156 8.52187 7.5823 8.48249 7.53751L7.06249 5.91501C7.04082 5.89038 7.02422 5.86173 7.01362 5.83069C7.00302 5.79965 6.99865 5.76683 7.00073 5.7341C7.00282 5.70136 7.01134 5.66936 7.0258 5.63992C7.04025 5.61048 7.06037 5.58417 7.08499 5.56251C7.10961 5.54084 7.13826 5.52423 7.1693 5.51364C7.20034 5.50304 7.23317 5.49866 7.2659 5.50075C7.29863 5.50284 7.33063 5.51136 7.36007 5.52581C7.38952 5.54027 7.41582 5.56038 7.43749 5.58501L8.22999 6.49251L8.41999 7.37251L8.63499 7.62001ZM8.69249 9.75001L8.81499 10.245C8.34914 10.2121 7.91394 10.0007 7.59999 9.65501L5.56499 7.41751C5.52057 7.36844 5.49745 7.30374 5.50073 7.23763C5.50402 7.17153 5.53342 7.10943 5.58249 7.06501C5.63155 7.02058 5.69626 6.99747 5.76236 7.00075C5.82847 7.00403 5.89057 7.03344 5.93499 7.08251L7.96999 9.32001C8.1923 9.56435 8.49842 9.71607 8.82749 9.74501C8.78249 9.74751 8.73749 9.75001 8.69249 9.75001Z" fill="#028340"/>
<path d="M8.75 1.75V2.505C8.75013 2.83409 8.71747 3.16238 8.6525 3.485L8.6475 3.51C8.60609 3.7188 8.49345 3.90674 8.32884 4.04171C8.16423 4.17668 7.95787 4.2503 7.745 4.25C7.67935 4.25007 7.61391 4.24252 7.55 4.2275C7.45783 4.20804 7.36926 4.1743 7.2875 4.1275L6.505 3.6825C6.39015 3.61847 6.28494 3.53851 6.1925 3.445C6.05229 3.30533 5.94103 3.13936 5.8651 2.95661C5.78916 2.77385 5.75005 2.5779 5.75 2.38V2L8.75 1.75Z" fill="#F2EDB3"/>
<path d="M8.75 1.5V1.75L5.75 2V1.5C5.75013 1.16852 5.88187 0.850655 6.11626 0.616263C6.35065 0.381871 6.66852 0.250133 7 0.25H7.5C7.83148 0.250133 8.14935 0.381871 8.38374 0.616263C8.61813 0.850655 8.74987 1.16852 8.75 1.5Z" fill="#FFBA63"/>
<path d="M8.3825 3.9925C8.21182 4.15835 7.98299 4.25078 7.745 4.25C7.67935 4.25007 7.61391 4.24252 7.55 4.2275C7.45783 4.20804 7.36926 4.1743 7.2875 4.1275L6.505 3.6825C6.39015 3.61847 6.28494 3.53851 6.1925 3.445C6.05229 3.30533 5.94103 3.13936 5.8651 2.95661C5.78916 2.77385 5.75005 2.5779 5.75 2.38V2L6.5 1.9375V2.13C6.49997 2.39437 6.56978 2.65405 6.70236 2.88277C6.83494 3.11149 7.02558 3.30113 7.255 3.4325L8.0375 3.8775C8.14357 3.93869 8.26092 3.97781 8.3825 3.9925Z" fill="#E0D477"/>
<path d="M7 0.25C6.8449 0.366568 6.719 0.517576 6.63223 0.691115C6.54546 0.864653 6.50019 1.05598 6.5 1.25V1.9375L5.75 2V1.5C5.75013 1.16852 5.88187 0.850655 6.11626 0.616263C6.35065 0.381871 6.66852 0.250133 7 0.25Z" fill="#FF9E25"/>
<path d="M4.75 15.25L3.75 15L3.671 15.2373C3.62121 15.3866 3.5257 15.5164 3.39801 15.6085C3.27031 15.7005 3.1169 15.75 2.9595 15.75H2.5V14.25C2.5 14.0511 2.57902 13.8603 2.71967 13.7197C2.86032 13.579 3.05109 13.5 3.25 13.5H4.75V15.25Z" fill="#F2EDB3"/>
<path d="M3.25 13.5H4C3.90147 13.4999 3.80389 13.5192 3.71283 13.5568C3.62178 13.5945 3.53905 13.6497 3.46938 13.7194C3.39971 13.789 3.34447 13.8718 3.30682 13.9628C3.26918 14.0539 3.24987 14.1515 3.25 14.25V15.6875C3.15919 15.7297 3.06012 15.751 2.96 15.75H2.5V14.25C2.49987 14.1515 2.51918 14.0539 2.55682 13.9628C2.59447 13.8718 2.64971 13.789 2.71938 13.7194C2.78905 13.6497 2.87178 13.5945 2.96283 13.5568C3.05389 13.5192 3.15147 13.4999 3.25 13.5Z" fill="#E0D477"/>
<path d="M12.5 5.25V6.2925C12.5 6.35847 12.4869 6.42378 12.4616 6.48469C12.4363 6.54561 12.3992 6.60094 12.3525 6.6475L11.75 7.25L11 6.5L11.5 6L11.75 4.75H12C12.1325 4.7504 12.2594 4.8032 12.3531 4.89688C12.4468 4.99057 12.4996 5.11751 12.5 5.25Z" fill="#F2EDB3"/>
<path d="M12.5 5.79248V6.29248C12.5 6.35845 12.4869 6.42376 12.4616 6.48467C12.4363 6.54559 12.3992 6.60092 12.3525 6.64748L11.75 7.24998L11 6.49998L11.2525 6.24748C11.3989 6.37336 11.5874 6.4392 11.7804 6.43178C11.9733 6.42436 12.1562 6.34423 12.2925 6.20748L12.3525 6.14748C12.3992 6.10092 12.4363 6.04559 12.4616 5.98467C12.4869 5.92376 12.5 5.85845 12.5 5.79248Z" fill="#E0D477"/>
</svg>
