<svg width="40" height="40" viewBox="0 0 40 40" fill="none" xmlns="http://www.w3.org/2000/svg">
<path d="M3.12499 23.4375C3.12499 25.5095 3.94809 27.4966 5.41322 28.9618C6.87835 30.4269 8.86549 31.25 10.9375 31.25C13.0095 31.25 14.9966 30.4269 16.4618 28.9618C17.9269 27.4966 18.75 25.5095 18.75 23.4375V14.0625C18.75 13.6481 18.5854 13.2507 18.2923 12.9576C17.9993 12.6646 17.6019 12.5 17.1875 12.5C16.7731 12.5 16.3757 12.6646 16.0826 12.9576C15.7896 13.2507 15.625 13.6481 15.625 14.0625V11.5625C15.625 11.1481 15.4604 10.7507 15.1673 10.4576C14.8743 10.1646 14.4769 10 14.0625 10C13.6481 10 13.2507 10.1646 12.9576 10.4576C12.6646 10.7507 12.5 11.1481 12.5 11.5625V9.6875C12.4976 9.37938 12.4045 9.07879 12.2324 8.82324C12.0602 8.56768 11.8166 8.36848 11.532 8.25049C11.2474 8.1325 10.9343 8.10095 10.6318 8.15977C10.3294 8.21859 10.0509 8.36518 9.83124 8.58125C9.24374 9.16875 9.37499 9.83125 9.37499 10.9375C9.3726 10.6294 9.27953 10.3288 9.10738 10.0732C8.93524 9.81768 8.69164 9.61848 8.407 9.50049C8.12236 9.3825 7.80928 9.35095 7.50682 9.40977C7.20436 9.46859 6.92592 9.61518 6.70624 9.83125C6.08124 10.4562 6.24999 10.5312 6.24999 16.25C6.24999 14.6437 4.37499 13.8562 3.49374 14.7437C2.98749 15.2375 3.12499 15 3.12499 23.4375Z" fill="#FFE6CF"/>
<path d="M5.625 21.875C5.98125 13.9375 6.4875 13.1562 6.875 21.875C6.875 22.0408 6.80915 22.1997 6.69194 22.3169C6.57473 22.4341 6.41576 22.5 6.25 22.5C6.08424 22.5 5.92527 22.4341 5.80806 22.3169C5.69085 22.1997 5.625 22.0408 5.625 21.875ZM8.75 18.75C9.125 7.0875 9.625 7.08125 10 18.75C10 18.9158 9.93415 19.0747 9.81694 19.1919C9.69973 19.3091 9.54076 19.375 9.375 19.375C9.20924 19.375 9.05027 19.3091 8.93306 19.1919C8.81585 19.0747 8.75 18.9158 8.75 18.75ZM11.875 18.75C12.2375 8.24375 12.7438 7.59375 13.125 18.75C13.125 18.9158 13.0592 19.0747 12.9419 19.1919C12.8247 19.3091 12.6658 19.375 12.5 19.375C12.3342 19.375 12.1753 19.3091 12.0581 19.1919C11.9408 19.0747 11.875 18.9158 11.875 18.75ZM15 20C15.3562 12.0625 15.8625 11.2812 16.25 20C16.25 20.1658 16.1842 20.3247 16.0669 20.4419C15.9497 20.5591 15.7908 20.625 15.625 20.625C15.4592 20.625 15.3003 20.5591 15.1831 20.4419C15.0658 20.3247 15 20.1658 15 20Z" fill="#F2BB8F"/>
<path d="M15.8063 21.0688C13.7813 19.0438 11.7188 19.375 8.75 19.375C8.58424 19.375 8.42527 19.3092 8.30806 19.1919C8.19085 19.0747 8.125 18.9158 8.125 18.75C8.125 18.5842 8.19085 18.4253 8.30806 18.3081C8.42527 18.1908 8.58424 18.125 8.75 18.125C11.825 18.125 14.2937 17.7875 16.6937 20.1813C16.8114 20.2989 16.8776 20.4586 16.8776 20.625C16.8776 20.7914 16.8114 20.9511 16.6937 21.0688C16.5761 21.1864 16.4164 21.2526 16.25 21.2526C16.0836 21.2526 15.9239 21.1864 15.8063 21.0688ZM12.5 26.875C12.3342 26.875 12.1753 26.8092 12.0581 26.6919C11.9408 26.5747 11.875 26.4158 11.875 26.25C11.875 24.1813 9.375 22.5 6.25 22.5C6.08424 22.5 5.92527 22.4342 5.80806 22.3169C5.69085 22.1997 5.625 22.0408 5.625 21.875C5.625 21.7092 5.69085 21.5503 5.80806 21.4331C5.92527 21.3158 6.08424 21.25 6.25 21.25C12.625 21.25 14.225 26.875 12.5 26.875Z" fill="#F2BB8F"/>
<path d="M36.875 23.4375C36.875 25.5095 36.0519 27.4966 34.5868 28.9618C33.1216 30.4269 31.1345 31.25 29.0625 31.25C26.9905 31.25 25.0034 30.4269 23.5382 28.9618C22.0731 27.4966 21.25 25.5095 21.25 23.4375V14.0625C21.25 13.6481 21.4146 13.2507 21.7076 12.9576C22.0007 12.6646 22.3981 12.5 22.8125 12.5C23.2269 12.5 23.6243 12.6646 23.9174 12.9576C24.2104 13.2507 24.375 13.6481 24.375 14.0625V11.5625C24.375 11.1481 24.5396 10.7507 24.8326 10.4576C25.1257 10.1646 25.5231 10 25.9375 10C26.3519 10 26.7493 10.1646 27.0424 10.4576C27.3354 10.7507 27.5 11.1481 27.5 11.5625V9.6875C27.5024 9.37938 27.5955 9.07879 27.7676 8.82324C27.9398 8.56768 28.1833 8.36848 28.468 8.25049C28.7526 8.1325 29.0657 8.10095 29.3682 8.15977C29.6706 8.21859 29.9491 8.36518 30.1688 8.58125C30.7563 9.16875 30.625 9.83125 30.625 10.9375C30.6274 10.6294 30.7205 10.3288 30.8926 10.0732C31.0648 9.81768 31.3083 9.61848 31.593 9.50049C31.8776 9.3825 32.1907 9.35095 32.4932 9.40977C32.7956 9.46859 33.0741 9.61518 33.2938 9.83125C33.9188 10.4562 33.75 10.5312 33.75 16.25C33.75 14.6437 35.625 13.8562 36.5063 14.7437C37.0125 15.2375 36.875 15 36.875 23.4375Z" fill="#FFE6CF"/>
<path d="M34.375 21.875C34.0188 13.9375 33.5125 13.1562 33.125 21.875C33.125 22.0408 33.1908 22.1997 33.3081 22.3169C33.4253 22.4341 33.5842 22.5 33.75 22.5C33.9158 22.5 34.0747 22.4341 34.1919 22.3169C34.3092 22.1997 34.375 22.0408 34.375 21.875ZM31.25 18.75C30.875 7.0875 30.375 7.08125 30 18.75C30 18.9158 30.0658 19.0747 30.1831 19.1919C30.3003 19.3091 30.4592 19.375 30.625 19.375C30.7908 19.375 30.9497 19.3091 31.0669 19.1919C31.1842 19.0747 31.25 18.9158 31.25 18.75ZM28.125 18.75C27.7625 8.24375 27.2562 7.59375 26.875 18.75C26.875 18.9158 26.9408 19.0747 27.0581 19.1919C27.1753 19.3091 27.3342 19.375 27.5 19.375C27.6658 19.375 27.8247 19.3091 27.9419 19.1919C28.0592 19.0747 28.125 18.9158 28.125 18.75ZM25 20C24.6438 12.0625 24.1375 11.2812 23.75 20C23.75 20.1658 23.8158 20.3247 23.9331 20.4419C24.0503 20.5591 24.2092 20.625 24.375 20.625C24.5408 20.625 24.6997 20.5591 24.8169 20.4419C24.9342 20.3247 25 20.1658 25 20Z" fill="#F2BB8F"/>
<path d="M24.1937 21.0688C26.25 19.0438 28.2812 19.375 31.25 19.375C31.4158 19.375 31.5747 19.3092 31.6919 19.1919C31.8091 19.0747 31.875 18.9158 31.875 18.75C31.875 18.5842 31.8091 18.4253 31.6919 18.3081C31.5747 18.1908 31.4158 18.125 31.25 18.125C28.175 18.125 25.7062 17.7875 23.3062 20.1813C23.248 20.2395 23.2017 20.3087 23.1702 20.3848C23.1387 20.461 23.1224 20.5426 23.1224 20.625C23.1224 20.7074 23.1387 20.789 23.1702 20.8652C23.2017 20.9413 23.248 21.0105 23.3062 21.0688C23.3645 21.127 23.4337 21.1733 23.5098 21.2048C23.586 21.2363 23.6676 21.2526 23.75 21.2526C23.8324 21.2526 23.914 21.2363 23.9902 21.2048C24.0663 21.1733 24.1355 21.127 24.1937 21.0688ZM27.5 26.875C27.6658 26.875 27.8247 26.8092 27.9419 26.6919C28.0591 26.5747 28.125 26.4158 28.125 26.25C28.125 24.1813 30.625 22.5 33.75 22.5C33.9158 22.5 34.0747 22.4342 34.1919 22.3169C34.3091 22.1997 34.375 22.0408 34.375 21.875C34.375 21.7092 34.3091 21.5503 34.1919 21.4331C34.0747 21.3158 33.9158 21.25 33.75 21.25C27.375 21.25 25.775 26.875 27.5 26.875Z" fill="#F2BB8F"/>
</svg>
