<svg xmlns="http://www.w3.org/2000/svg" xmlns:xlink="http://www.w3.org/1999/xlink" width="375" height="812" viewBox="0 0 375 812">
  <defs>
    <linearGradient id="linear-gradient" x1="1" y1="1" x2="0" gradientUnits="objectBoundingBox">
      <stop offset="0" stop-color="#028e42"/>
      <stop offset="1" stop-color="#01b151"/>
    </linearGradient>
    <linearGradient id="linear-gradient-2" x1="0.5" x2="0.5" y2="1" gradientUnits="objectBoundingBox">
      <stop offset="0" stop-color="#fff" stop-opacity="0.4"/>
      <stop offset="0.35" stop-color="#fff" stop-opacity="0.2"/>
      <stop offset="1" stop-color="#fff" stop-opacity="0"/>
    </linearGradient>
    <clipPath id="clip-path">
      <rect id="svgexport-16_2_1_Frame_Clip_Content_Mask_" data-name="svgexport-16 (2) 1 [Frame Clip Content Mask]" width="32" height="32" fill="none"/>
    </clipPath>
    <clipPath id="clip-Splash2">
      <rect width="375" height="812"/>
    </clipPath>
  </defs>
  <g id="Splash2" clip-path="url(#clip-Splash2)">
    <rect width="375" height="812" fill="#fff"/>
    <rect id="Rectangle_7" data-name="Rectangle 7" width="375" height="812" fill="url(#linear-gradient)"/>
    <g id="Group_1" data-name="Group 1">
      <rect id="Rectangle_3" data-name="Rectangle 3" width="375" height="17" transform="translate(0 795)" fill="none"/>
      <rect id="Home_Indicator" data-name="Home Indicator" width="134" height="5" rx="2.5" transform="translate(120 801)" fill="#fff"/>
    </g>
    <g id="Group">
      <g id="Group-2" data-name="Group">
        <g id="Group-3" data-name="Group">
          <g id="Group-4" data-name="Group">
            <path id="Vector" d="M184.828,79.273c45.748,29.189,81.819,46.933,57.18,114.733H7.992c-24.64-67.8,11.437-85.543,57.186-114.733C110.929,50.057,125.012,0,125.012,0s14.064,50.06,59.816,79.273Z" transform="translate(62 580)" fill="url(#linear-gradient-2)"/>
          </g>
        </g>
      </g>
    </g>
    <g id="svgexport-16_2_1_Clip_Content_" data-name="svgexport-16 (2) 1 (Clip Content)" transform="translate(265 497)" clip-path="url(#clip-path)">
      <rect id="svgexport-16_2_1_Frame_Background_" data-name="svgexport-16 (2) 1 [Frame Background]" width="32" height="32" fill="none"/>
      <g id="Group-5" data-name="Group">
        <path id="Vector-2" data-name="Vector" d="M5.046,2.592A17.259,17.259,0,0,1,8.361,0,17.23,17.23,0,0,0,32,23.639,17.228,17.228,0,1,1,5.046,2.592Z" transform="translate(0 0)" fill="#fff" fill-rule="evenodd"/>
      </g>
    </g>
    <g id="svgexport-8_1" data-name="svgexport-8 1" transform="translate(91 480)">
      <rect id="svgexport-8_1_Frame_Background_" data-name="svgexport-8 1 [Frame Background]" width="16" height="16" fill="none"/>
      <g id="Group-6" data-name="Group">
        <path id="Vector-3" data-name="Vector" d="M15,7.5c-6.891.334-7.166.609-7.5,7.5C7.166,8.109,6.891,7.834,0,7.5,6.891,7.166,7.166,6.891,7.5,0,7.834,6.891,8.109,7.166,15,7.5Z" transform="translate(0.5 0.5)" fill="#fff"/>
      </g>
    </g>
    <g id="svgexport-8_2" data-name="svgexport-8 2" transform="translate(163 505)">
      <rect id="svgexport-8_2_Frame_Background_" data-name="svgexport-8 2 [Frame Background]" width="16" height="16" fill="none"/>
      <g id="Group-7" data-name="Group">
        <path id="Vector-4" data-name="Vector" d="M15,7.5c-6.891.334-7.166.609-7.5,7.5C7.166,8.109,6.891,7.834,0,7.5,6.891,7.166,7.166,6.891,7.5,0,7.834,6.891,8.109,7.166,15,7.5Z" transform="translate(0.5 0.5)" fill="#fff"/>
      </g>
    </g>
    <g id="svgexport-8_3" data-name="svgexport-8 3" transform="translate(127 543)">
      <rect id="svgexport-8_3_Frame_Background_" data-name="svgexport-8 3 [Frame Background]" width="16" height="16" fill="none"/>
      <g id="Group-8" data-name="Group">
        <path id="Vector-5" data-name="Vector" d="M15,7.5c-6.891.334-7.166.609-7.5,7.5C7.166,8.109,6.891,7.834,0,7.5,6.891,7.166,7.166,6.891,7.5,0,7.834,6.891,8.109,7.166,15,7.5Z" transform="translate(0.5 0.5)" fill="#fff"/>
      </g>
    </g>
    <g id="svgexport-8_4" data-name="svgexport-8 4" transform="translate(57 580)">
      <rect id="svgexport-8_4_Frame_Background_" data-name="svgexport-8 4 [Frame Background]" width="16" height="16" fill="none"/>
      <g id="Group-9" data-name="Group">
        <path id="Vector-6" data-name="Vector" d="M15,7.5c-6.891.334-7.166.609-7.5,7.5C7.166,8.109,6.891,7.834,0,7.5,6.891,7.166,7.166,6.891,7.5,0,7.834,6.891,8.109,7.166,15,7.5Z" transform="translate(0.5 0.5)" fill="#fff"/>
      </g>
    </g>
    <g id="svgexport-8_5" data-name="svgexport-8 5" transform="translate(304 559)">
      <rect id="svgexport-8_5_Frame_Background_" data-name="svgexport-8 5 [Frame Background]" width="16" height="16" fill="none"/>
      <g id="Group-10" data-name="Group">
        <path id="Vector-7" data-name="Vector" d="M15,7.5c-6.891.334-7.166.609-7.5,7.5C7.166,8.109,6.891,7.834,0,7.5,6.891,7.166,7.166,6.891,7.5,0,7.834,6.891,8.109,7.166,15,7.5Z" transform="translate(0.5 0.5)" fill="#fff"/>
      </g>
    </g>
    <g id="svgexport-8_6" data-name="svgexport-8 6" transform="translate(297 596)">
      <rect id="svgexport-8_6_Frame_Background_" data-name="svgexport-8 6 [Frame Background]" width="16" height="16" fill="none"/>
      <g id="Group-11" data-name="Group">
        <path id="Vector-8" data-name="Vector" d="M15,7.5c-6.891.334-7.166.609-7.5,7.5C7.166,8.109,6.891,7.834,0,7.5,6.891,7.166,7.166,6.891,7.5,0,7.834,6.891,8.109,7.166,15,7.5Z" transform="translate(0.5 0.5)" fill="#fff"/>
      </g>
    </g>
    <g id="svgexport-15_23_1" data-name="svgexport-15 (23) 1" transform="translate(283 493)">
      <rect id="svgexport-15_23_1_Frame_Background_" data-name="svgexport-15 (23) 1 [Frame Background]" width="16" height="16" fill="none"/>
      <g id="Group-12" data-name="Group">
        <path id="Vector-9" data-name="Vector" d="M7.75,0l.5,7.25,7.25.5-7.25.5-.5,7.25-.5-7.25L0,7.75l7.25-.5Z" transform="translate(0.25 0.25)" fill="#fff"/>
        <path id="Vector-10" data-name="Vector" d="M2.5,2.5,6,5.647,12,0,6.353,6,9.5,9.5,6,6.353,0,12,5.647,6Z" transform="translate(2 2)" fill="#fff"/>
      </g>
    </g>
  </g>
</svg>
