<svg width="176" height="176" viewBox="0 0 176 176" fill="none" xmlns="http://www.w3.org/2000/svg">
<path d="M2.64516 159.324L2.62287 154.569L2.62287 143.454C2.62287 143.023 2.85319 142.459 3.13553 142.199L3.55159 141.805C3.83392 141.538 3.94537 141.211 3.80421 141.077L3.54416 140.832L2.49656 139.836C2.49656 139.836 2.37769 139.725 2.23652 139.591C2.09536 139.45 1.74616 139.554 1.46383 139.821L0.527674 140.713C0.245342 140.98 0.0150174 141.545 0.0150174 141.968L0.0150174 159.406C-0.0369911 159.844 0.126468 160.342 0.512816 160.729L6.76868 166.984V163.455L2.65259 159.339L2.64516 159.324Z" fill="#01B151"/>
<path d="M36.1015 169.518L35.1059 170.566L34.6156 171.093L34.1178 171.613L33.2411 172.535C32.9736 172.817 32.4089 173.04 31.978 173.04L16.0411 172.728C17.7351 172.757 20.4098 172.809 16.0263 172.705L12.4823 169.169H8.95312L14.6518 174.867C14.9267 175.142 15.261 175.306 15.5879 175.35V175.373C15.3204 175.655 18.4855 175.655 18.7679 175.648C19.0205 175.648 19.2805 175.648 19.2805 175.648H33.4565C33.88 175.648 34.4521 175.417 34.7196 175.135L36.0867 173.686L36.5844 173.166L36.6365 173.107V168.924L36.5844 168.983L36.0867 169.503L36.1015 169.518Z" fill="#01B151"/>
<path d="M36.1013 151.575L35.1057 152.623L34.6153 153.143L34.1176 153.663C34.1176 153.663 31.3463 156.835 28.627 159.949C29.3551 160.58 30.0832 161.212 30.7667 161.888L36.0939 155.743L36.5917 155.223L36.6437 155.171V150.988L36.5917 151.04L36.0939 151.568L36.1013 151.575Z" fill="#01B151"/>
<path d="M24.4293 151.895L24.407 154.495V154.592C24.407 154.644 24.4664 156.263 24.4664 158.916V160.409L25.5883 161.59L26.0861 162.111L26.5839 162.631L27.5795 163.678L28.0773 164.198L28.5751 164.718L33.6348 170.053C33.9022 170.335 34.1177 170.558 34.1251 170.551H34.14C34.14 170.551 34.348 170.32 34.6155 170.038C34.8755 169.771 35.1504 169.503 35.4328 169.243C35.7225 168.983 36.0049 168.701 36.042 168.612C36.0866 168.522 35.9008 168.225 35.6334 167.943L31.0938 163.166C30.8263 162.883 30.6108 162.66 30.6034 162.66C30.6034 162.66 30.5886 162.66 30.5737 162.646L30.5588 162.623L30.061 162.103L29.5707 161.583L28.5751 160.535L28.0773 160.015L27.5795 159.495L27.0446 158.938C27.0817 158.492 27.104 157.928 27.104 157.199C27.104 157.177 27.104 156.932 27.104 156.65C27.104 156.397 27.104 156.137 27.104 156.137V151.761C26.2124 151.805 25.3208 151.865 24.4367 151.887L24.4293 151.895Z" fill="#01B151"/>
<path d="M20.4395 138.841L20.9596 139.338L21.9998 140.326L23.0474 141.315L23.9687 142.191C24.251 142.459 24.4739 143.023 24.4739 143.447L24.4442 147.868C25.3283 147.883 26.205 147.92 27.0892 147.964V141.954C27.0892 141.53 26.8589 140.965 26.5765 140.698L25.1277 139.323L24.6076 138.826L24.4962 138.722H20.3132L20.4247 138.826L20.4395 138.841Z" fill="#01B151"/>
<path d="M34.6081 152.095L35.5963 151.048C35.5963 151.048 35.7077 150.936 35.8415 150.788C35.9826 150.646 35.8712 150.297 35.6037 150.015L34.7196 149.079C34.4521 148.796 33.8874 148.566 33.4565 148.566H18.1809C18.1809 148.566 17.4528 148.499 16.7841 148.44L16.6578 148.328C16.3754 148.061 16.0337 147.957 15.8851 148.091L15.625 148.343L14.5774 149.331C14.5774 149.331 14.4586 149.443 14.3174 149.577C14.1688 149.718 14.2802 150.045 14.5626 150.312L15.5136 151.211H19.5628C19.5628 151.211 19.5628 151.204 19.5628 151.196L21.8586 151.174H31.9631C32.394 151.174 32.9513 151.404 33.2262 151.687L33.62 152.103C33.8874 152.385 34.2143 152.496 34.3481 152.355L34.6007 152.095H34.6081Z" fill="#01B151"/>
<path d="M2.48923 138.841L3.01675 139.338L4.05692 140.326L4.577 140.824L5.09709 141.322L10.4242 146.382C10.7066 146.649 11.0558 146.753 11.1969 146.619L11.457 146.374L12.5046 145.386C12.5046 145.386 12.6234 145.275 12.7646 145.141C12.9058 145.007 12.7943 144.68 12.5194 144.413L7.18485 139.353L6.66477 138.855L6.55332 138.751H2.37036L2.4818 138.855L2.48923 138.841Z" fill="#01B151"/>
<path d="M16.2268 168.359C16.2268 168.359 16.2417 168.344 16.2565 168.344H16.2862H17.0069H17.7276L19.169 168.329H19.8897L20.6104 168.314L24.8825 168.277C25.2688 168.277 25.566 168.114 25.5512 167.913L28.1442 164.934C27.3715 164.347 26.6731 163.686 25.9747 163.017C25.0831 164.042 24.3475 164.889 23.8943 165.409L20.4469 165.439H19.7262L19.0055 165.454L17.5642 165.469H16.8435L16.1228 165.484L10.5802 165.528L10.5653 163.128V162.408L10.5505 161.687L10.5356 160.246V159.525L10.5207 158.804L10.4687 152.288L13.0469 149.844L13.567 149.346L14.087 148.848L15.1346 147.853L15.6547 147.355L16.1748 146.857L21.502 141.798C21.7843 141.53 22.0072 141.315 22.0072 141.307C22.0072 141.307 22.0072 141.3 22.0072 141.292C22.0072 141.292 21.7769 141.084 21.4945 140.817C21.227 140.557 20.9596 140.282 20.6995 140C20.4321 139.71 20.1572 139.428 20.068 139.39C19.9788 139.353 19.6742 139.532 19.3993 139.799L14.622 144.331C14.3396 144.599 14.1168 144.822 14.1168 144.822C14.1168 144.822 14.1168 144.836 14.1019 144.851L14.0796 144.866L13.5595 145.364L13.0394 145.862L11.9918 146.85L11.4718 147.348L10.9517 147.845L7.85345 150.788C7.85345 150.788 7.83116 150.817 7.8163 150.825C7.77173 150.825 7.73458 150.832 7.71972 150.84C7.67514 150.862 7.63056 150.981 7.60085 151.137C7.55627 151.241 7.54141 151.337 7.57113 151.412C7.57113 151.479 7.5637 151.538 7.57113 151.605L7.62313 158.195C7.62313 158.581 7.63056 158.894 7.63799 158.894C7.63799 158.894 7.65285 158.901 7.65285 158.923V158.953V159.674V160.394L7.66771 161.836V162.556L7.68257 163.277L7.71972 167.549C7.71972 167.936 7.88317 168.233 8.08378 168.218H8.17294C8.17294 168.218 8.17294 168.248 8.18037 168.255C8.21752 168.344 8.55928 168.418 8.94563 168.411L15.5358 168.359C15.9222 168.359 16.2342 168.352 16.2342 168.344L16.2268 168.359Z" fill="#01B151"/>
<path d="M37.0893 172.661L38.0775 171.613L38.5753 171.093L39.0731 170.566L40.8042 168.738C41.0717 168.456 41.2872 168.233 41.2872 168.24C41.2872 168.248 41.5026 168.032 41.7701 167.75L44.6454 164.726C44.8237 164.466 42.9291 162.363 42.684 162.586L42.632 162.638L37.0893 168.478L36.6436 168.938V173.121L37.0893 172.661Z" fill="#01B151"/>
<path d="M37.0893 154.703L38.0775 153.655L38.5753 153.135L39.0731 152.615C39.0731 152.615 39.14 152.548 39.2217 152.459C39.3034 152.37 39.3777 152.303 39.3777 152.311C39.3777 152.311 39.6006 152.095 39.8681 151.805L39.9795 151.694C40.247 151.412 40.8117 151.181 41.2352 151.189H52.09C52.09 151.189 52.1866 151.189 52.2981 151.189C52.2981 151.189 52.313 151.189 52.3204 151.181H56.964C57.3875 151.181 57.9521 151.412 58.2196 151.694L58.6134 152.11C58.8809 152.392 59.2078 152.504 59.3415 152.363L59.5867 152.103L60.5823 151.055C60.5823 151.055 60.6937 150.944 60.8349 150.795C60.9686 150.654 60.8646 150.305 60.5971 150.022L59.7056 149.086C59.4381 148.804 58.8734 148.574 58.4499 148.574H41.5992C41.1757 148.574 40.4773 148.574 40.0464 148.574H39.712C39.2811 148.574 38.7239 148.796 38.4564 149.079L37.0893 150.52L36.6436 150.988V155.171L37.0893 154.703Z" fill="#01B151"/>
<path d="M38.5754 154.183L37.5799 155.231C37.5799 155.231 37.4684 155.349 37.3272 155.491C37.1935 155.639 37.2975 155.981 37.565 156.263L40.3734 159.228C41.5251 160.565 45.8195 164.964 46.0869 165.238L48.0633 167.319C48.3307 167.601 48.5462 167.824 48.5536 167.817C48.5536 167.817 48.5833 167.846 48.6279 167.891C48.6725 167.935 48.7468 168.025 48.836 168.129C48.8657 168.158 48.9103 168.181 48.9548 168.188C49.096 168.262 49.2594 168.248 49.3635 168.129L49.6012 167.854L49.6235 167.824L52.0828 165.238C52.3502 164.956 52.4543 164.614 52.3131 164.466L52.0605 164.206L51.0723 163.158C51.0723 163.158 50.9609 163.039 50.8271 162.898C50.686 162.75 50.3665 162.861 50.0916 163.151L49.096 164.198L48.1004 163.151C47.8329 162.868 47.6175 162.645 47.61 162.645C47.61 162.645 47.6026 162.645 47.5952 162.645C47.5952 162.645 45.5817 160.506 44.1849 159.035C44.1701 159.02 44.1626 159.005 44.1552 158.99L42.9219 157.69L42.8847 157.653L39.7122 154.309C39.4447 154.027 39.2293 153.804 39.2293 153.804C39.2293 153.804 39.1921 153.774 39.1475 153.737C39.103 153.693 38.9618 153.774 38.8206 153.916L38.5754 154.176V154.183Z" fill="#01B151"/>
<path d="M174.837 156.167C174.726 156.219 174.614 156.293 174.518 156.397L174.176 156.754C173.909 157.036 173.686 157.259 173.686 157.259C173.686 157.259 173.463 157.482 173.195 157.764L171.553 159.495C171.598 159.547 171.501 159.599 171.509 159.815C172.445 160.84 173.188 161.888 173.559 161.59L175.038 160.03L175.06 160.052V156.107C175.06 156.107 175.045 156.107 175.038 156.107C174.956 156.107 174.882 156.107 174.837 156.159V156.167Z" fill="#01B151"/>
<path d="M165.736 148.573H165.654C165.231 148.573 164.666 148.796 164.398 149.079L163.024 150.52L162.526 151.04L162.028 151.568L161.033 152.615L160.535 153.135L160.037 153.655L155.616 158.314C155.616 158.314 155.646 158.344 155.661 158.351L154.569 159.495L154.079 160.015L153.581 160.535L152.593 161.583L152.095 162.103L151.597 162.623L146.054 168.463L145.557 168.983L145.059 169.503L144.071 170.551L143.573 171.078L143.075 171.598L142.198 172.52C141.938 172.802 141.366 173.025 140.943 173.025L136.433 172.995C136.388 172.973 136.366 172.951 136.351 172.951H136.262L133.082 172.973L129.902 172.951H129.813C129.813 172.951 129.768 172.965 129.731 172.995L125.221 173.025C124.798 173.025 124.226 172.802 123.966 172.52C123.691 172.237 123.468 172.014 123.468 172.022C123.468 172.022 123.371 171.933 123.26 171.821C123.238 171.806 123.215 171.792 123.193 171.784L122.547 171.101L122.561 171.086L123.059 170.558L124.798 168.73C125.058 168.448 125.273 168.225 125.273 168.233C125.273 168.24 125.496 168.025 125.756 167.742L128.632 164.718C128.81 164.458 126.915 162.356 126.663 162.579L126.611 162.631L121.068 168.47L120.57 168.99L120.555 169.005L114.99 163.143C114.723 162.861 114.396 162.749 114.255 162.891L114.01 163.151L113.022 164.198C113.022 164.198 112.91 164.317 112.769 164.458C112.635 164.599 112.739 164.949 113.007 165.231L118.572 171.101L118.089 171.613L117.212 172.534C116.945 172.817 116.38 173.04 115.956 173.04L104.916 172.973H104.819C104.767 172.973 104.507 173.203 104.24 173.478L102.65 175.157C102.382 175.44 102.182 175.67 102.204 175.67C102.226 175.67 102.471 175.67 102.754 175.67C103.006 175.67 103.266 175.67 103.266 175.67H117.45C117.873 175.67 118.438 175.44 118.705 175.157L120.08 173.708L120.563 173.196L122.42 175.15C122.42 175.15 122.487 175.202 122.517 175.232C122.755 175.477 122.933 175.662 122.94 175.662H127.198V175.67C127.22 175.67 127.465 175.67 127.747 175.67C128 175.67 128.253 175.67 128.253 175.67H137.911C137.911 175.67 138.134 175.67 138.417 175.67C138.699 175.67 138.944 175.67 138.966 175.67V175.662H142.436C142.86 175.662 143.424 175.432 143.692 175.15L145.059 173.701L145.557 173.181L146.054 172.661L147.043 171.613L147.54 171.093L148.038 170.566L153.581 164.726L154.079 164.206L154.569 163.686L155.564 162.638L156.062 162.118L156.56 161.598L165.959 151.701C166.219 151.427 166.783 151.196 167.207 151.196H175.045V148.588H165.728L165.736 148.573Z" fill="#01B151"/>
<path d="M171.858 172.973H171.761C171.761 172.973 171.724 172.988 171.68 173.017L167.185 173.047C166.769 173.032 166.226 172.817 165.966 172.542L165.394 171.94C165.394 171.94 165.364 171.97 165.349 171.985C165.312 171.948 165.26 171.896 165.201 171.829C165.097 171.71 164.896 171.732 164.755 171.881L164.502 172.141L163.514 173.188C163.514 173.188 163.403 173.307 163.262 173.448C163.12 173.597 163.232 173.939 163.499 174.221L164.391 175.157C164.651 175.44 164.881 175.67 164.889 175.67H169.146V175.677C169.168 175.677 169.413 175.677 169.696 175.677C169.948 175.677 170.201 175.677 170.201 175.677H175.045V173.01H175.023L171.843 172.988L171.858 172.973Z" fill="#01B151"/>
<path d="M174.042 163.151C173.775 162.868 173.552 162.645 173.552 162.645H173.537C173.537 162.645 171.516 160.506 170.127 159.035C170.112 159.02 170.112 159.005 170.097 158.99L168.864 157.69L168.834 157.653L165.654 154.309C165.394 154.027 165.164 153.804 165.164 153.804C165.164 153.804 165.127 153.774 165.09 153.737C165.052 153.693 164.904 153.774 164.763 153.915L164.51 154.176L163.522 155.223C163.522 155.223 163.41 155.342 163.269 155.483C163.128 155.632 163.24 155.974 163.507 156.256L166.315 159.22C167.467 160.558 171.761 164.956 172.021 165.231L173.998 167.311C174.258 167.594 174.481 167.817 174.488 167.809C174.488 167.809 174.518 167.839 174.562 167.883C174.6 167.928 174.681 168.017 174.771 168.121C174.808 168.151 174.845 168.173 174.889 168.181C174.941 168.21 175.001 168.21 175.053 168.21V164.169L175.031 164.191L174.035 163.143L174.042 163.151Z" fill="#01B151"/>
<path d="M143.342 170.306L143.588 170.046L144.583 168.998C144.583 168.998 144.695 168.879 144.828 168.738C144.97 168.589 144.866 168.248 144.598 167.965L139.538 162.638L139.041 162.118L138.543 161.598L137.547 160.55L137.049 160.03L136.552 159.51L133.609 156.412C133.505 156.3 133.401 156.234 133.29 156.182C133.245 156.13 133.171 156.122 133.089 156.13C133.008 156.13 132.933 156.13 132.889 156.182C132.777 156.234 132.673 156.308 132.569 156.412L132.228 156.769C131.96 157.051 131.737 157.274 131.737 157.274C131.737 157.274 131.514 157.497 131.247 157.779L129.605 159.51C129.649 159.562 129.553 159.614 129.56 159.83C130.496 160.855 131.239 161.903 131.611 161.605L133.089 160.045L134.568 161.605L135.058 162.125L135.556 162.646L136.552 163.693L137.049 164.213L137.547 164.733L142.607 170.068C142.874 170.35 143.201 170.462 143.342 170.313V170.306Z" fill="#01B151"/>
<path d="M156.33 162.898L156.077 163.158L155.089 164.206C155.089 164.206 154.978 164.325 154.844 164.466C154.703 164.607 154.814 164.956 155.074 165.238L156.493 166.732C156.493 166.732 156.456 166.754 156.434 166.762L159.569 170.06C159.829 170.343 160.052 170.566 160.052 170.558C160.052 170.558 160.06 170.558 160.067 170.558C160.067 170.558 160.282 170.328 160.543 170.046C160.803 169.778 161.077 169.511 161.36 169.251C161.657 168.991 161.932 168.708 161.976 168.619C162.006 168.56 161.932 168.426 161.82 168.262C161.835 168.24 161.85 168.225 161.872 168.21L157.058 163.143C156.976 163.062 156.894 162.995 156.813 162.95C156.746 162.876 156.686 162.816 156.634 162.764C156.605 162.794 156.582 162.816 156.553 162.846C156.456 162.831 156.374 162.846 156.322 162.898H156.33Z" fill="#01B151"/>
<path d="M146.567 155.231C146.567 155.231 146.456 155.349 146.314 155.491C146.173 155.639 146.285 155.981 146.552 156.263L151.129 161.085C151.396 161.368 151.723 161.479 151.864 161.33L152.11 161.07L153.105 160.023C153.105 160.023 153.209 159.904 153.35 159.763C153.492 159.622 153.38 159.272 153.12 158.99L148.543 154.168C148.276 153.886 147.949 153.774 147.815 153.923L147.563 154.183L146.574 155.231H146.567Z" fill="#01B151"/>
<path d="M161.278 151.196C161.389 151.196 161.701 150.966 161.969 150.684L163.083 149.502C163.083 149.502 163.276 149.294 163.522 149.042C163.759 148.789 163.611 148.581 163.187 148.581H161.062H160.29H159.458C159.458 148.581 159.42 148.581 159.406 148.581H151.537H148.692C148.268 148.581 147.696 148.804 147.436 149.086L146.069 150.528L145.571 151.048L145.074 151.575L144.085 152.623L143.588 153.143L143.09 153.663L138.03 158.99C137.763 159.272 137.659 159.622 137.792 159.763L138.045 160.023L139.041 161.07C139.041 161.07 139.145 161.189 139.286 161.33C139.419 161.472 139.754 161.36 140.014 161.085L145.074 155.751L145.571 155.231L146.069 154.71L147.057 153.663L147.555 153.143L148.053 152.623L148.93 151.701C149.197 151.419 149.762 151.189 150.193 151.196H157.972C158.157 151.211 158.373 151.256 158.566 151.33C158.611 151.285 158.648 151.241 158.692 151.196H161.07C161.07 151.196 161.166 151.196 161.285 151.196H161.278Z" fill="#01B151"/>
<path d="M148.922 172.534L148.536 172.126C148.268 171.844 147.942 171.732 147.808 171.881L147.555 172.141L146.567 173.188C146.567 173.188 146.456 173.307 146.314 173.448C146.173 173.597 146.285 173.939 146.552 174.221L147.436 175.157C147.696 175.44 148.268 175.67 148.692 175.67H159.406C159.829 175.67 160.394 175.44 160.661 175.157L162.036 173.708L162.534 173.188L163.031 172.668L164.027 171.621L164.517 171.101L165.015 170.573L166.746 168.745C167.014 168.463 167.229 168.24 167.229 168.248C167.229 168.255 167.445 168.039 167.712 167.757L170.587 164.733C170.766 164.473 168.871 162.371 168.619 162.593L168.574 162.645L163.031 168.485L162.534 169.005L162.036 169.525L161.04 170.573L160.542 171.101L160.045 171.621L159.168 172.542C158.9 172.824 158.336 173.047 157.912 173.047L153.44 173.017C153.44 173.017 153.492 173.04 153.521 173.055H150.178C149.747 173.055 149.182 172.824 148.915 172.542L148.922 172.534Z" fill="#01B151"/>
<path d="M128.156 158.99L126.923 157.69L126.893 157.653L123.713 154.309C123.446 154.027 123.23 153.804 123.223 153.804C123.223 153.804 123.186 153.774 123.149 153.737C123.104 153.693 122.963 153.774 122.822 153.915L122.569 154.176L121.581 155.223C121.581 155.223 121.469 155.342 121.328 155.483C121.194 155.632 121.298 155.974 121.566 156.256L124.374 159.22C125.526 160.558 129.82 164.956 130.08 165.231L132.057 167.311C132.324 167.594 132.547 167.817 132.547 167.809C132.547 167.809 132.577 167.839 132.621 167.883C132.659 167.928 132.74 168.017 132.83 168.121C132.867 168.151 132.904 168.173 132.948 168.181C133.09 168.255 133.253 168.24 133.35 168.121L133.587 167.846L133.61 167.817L136.069 165.231C136.336 164.949 136.448 164.607 136.307 164.458L136.054 164.198L135.058 163.151C135.058 163.151 134.947 163.032 134.813 162.891C134.672 162.742 134.345 162.854 134.085 163.143L133.09 164.191L132.094 163.143C131.834 162.861 131.604 162.638 131.604 162.638C131.604 162.638 131.596 162.638 131.589 162.638C131.589 162.638 129.568 160.498 128.178 159.027C128.171 159.012 128.164 158.997 128.149 158.983L128.156 158.99Z" fill="#01B151"/>
<path d="M101.535 170.046L102.523 168.998C102.523 168.998 102.635 168.879 102.776 168.738C102.91 168.589 102.806 168.248 102.538 167.965L97.4785 162.638L96.9807 162.118L96.4829 161.598L95.4947 160.55L94.9969 160.03L94.4991 159.51L91.557 156.412C91.4529 156.3 91.3415 156.234 91.2375 156.182C91.1929 156.13 91.1186 156.122 91.0369 156.13C90.9551 156.13 90.8808 156.13 90.8363 156.182C90.7323 156.234 90.6208 156.308 90.5168 156.412L90.175 156.769C89.9075 157.051 89.6847 157.274 89.6847 157.274C89.6847 157.274 89.4543 157.497 89.1943 157.779L87.5523 159.51C87.5969 159.562 87.5003 159.614 87.5077 159.83C88.4439 160.855 89.1869 161.903 89.5583 161.605L91.0369 160.045L92.5154 161.605L93.0132 162.125L93.511 162.646L94.4991 163.693L94.9969 164.213L95.4947 164.733L100.554 170.068C100.822 170.35 101.149 170.462 101.283 170.313L101.535 170.053V170.046Z" fill="#01B151"/>
<path d="M52.0901 175.655H53.9327C53.9327 175.655 54.163 175.655 54.4379 175.655C54.7203 175.655 54.9654 175.655 54.9877 175.655V175.648H58.4574C58.8809 175.648 59.453 175.417 59.7131 175.135L61.0876 173.686L61.5854 173.166L62.0757 172.646L63.0713 171.598L63.5691 171.078L64.0669 170.551L69.6095 164.711L70.1073 164.191L70.6051 163.671L71.6007 162.623L72.0985 162.103L72.5963 161.583L81.995 151.687C82.2624 151.412 82.8197 151.181 83.2432 151.181H94.0535C94.0535 151.181 94.1426 151.181 94.2615 151.181C94.2615 151.181 94.2764 151.181 94.2838 151.174H98.9274C99.3509 151.174 99.9156 151.404 100.183 151.687L100.577 152.103C100.844 152.385 101.171 152.496 101.305 152.355L101.558 152.095L102.546 151.048C102.546 151.048 102.657 150.936 102.798 150.788C102.932 150.646 102.828 150.297 102.561 150.015L101.676 149.079C101.409 148.796 100.844 148.566 100.413 148.566H81.7646H81.6903C81.2594 148.566 80.7022 148.789 80.4347 149.071L79.0676 150.513L78.5698 151.033L78.072 151.56L77.0765 152.608L76.5787 153.128L76.0809 153.648L71.6602 158.306C71.6602 158.306 71.6899 158.336 71.7047 158.344L70.62 159.488L70.1222 160.008L69.6244 160.528L68.6362 161.576L68.1384 162.096L67.6406 162.616L62.098 168.456L61.6077 168.976L61.1099 169.496L60.1143 170.543L59.6165 171.071L59.1261 171.591L58.2494 172.512C57.9819 172.795 57.4173 173.017 56.9938 173.017L52.4765 172.988C52.4765 172.988 52.4096 172.943 52.4022 172.943H52.3056L49.1256 172.965L45.9457 172.943H45.8491C45.8491 172.943 45.8045 172.958 45.7674 172.988L41.2501 173.017C40.8266 173.017 40.2545 172.795 39.9945 172.512C39.7196 172.23 39.5041 172.007 39.4967 172.014C39.4967 172.014 39.4001 171.925 39.2886 171.814C39.1772 171.695 38.9766 171.717 38.8428 171.866L38.5977 172.126L37.6021 173.173C37.6021 173.173 37.4906 173.292 37.3495 173.434C37.2157 173.582 37.3197 173.924 37.5872 174.206L38.4788 175.142C38.7463 175.425 38.9691 175.655 38.9766 175.655H43.2338V175.662C43.2561 175.662 43.5013 175.662 43.7836 175.662C44.0363 175.662 44.2889 175.662 44.2889 175.662H52.105L52.0901 175.655Z" fill="#01B151"/>
<path d="M93.2583 175.655H95.8662C95.8662 175.655 96.0965 175.655 96.3714 175.655C96.6538 175.655 96.8989 175.655 96.9212 175.655L96.9138 175.648H100.383C100.814 175.648 101.379 175.417 101.647 175.135L103.014 173.686L103.504 173.166L104.002 172.646L104.997 171.598L105.495 171.078L105.986 170.551L108.43 167.98C108.467 167.95 108.512 167.921 108.549 167.876L111.068 165.224C111.105 165.186 111.134 165.142 111.164 165.097L111.528 164.711L112.026 164.191L112.524 163.671L113.512 162.623L114.01 162.103L114.508 161.583L114.886 161.174C114.931 161.137 114.968 161.108 115.013 161.07L120.072 155.736L120.57 155.216L121.068 154.696L122.064 153.648L122.554 153.128L123.052 152.608C123.052 152.608 123.119 152.541 123.2 152.452C123.289 152.363 123.356 152.296 123.356 152.303C123.356 152.303 123.579 152.088 123.847 151.798L123.958 151.687C124.218 151.404 124.79 151.174 125.214 151.181H136.069C136.069 151.181 136.165 151.181 136.284 151.181C136.284 151.181 136.299 151.181 136.306 151.174H140.943C141.366 151.174 141.931 151.404 142.198 151.687L142.592 152.103C142.86 152.385 143.186 152.496 143.328 152.355L143.573 152.095L144.568 151.048C144.568 151.048 144.68 150.936 144.814 150.788C144.955 150.646 144.851 150.297 144.583 150.015L143.699 149.079C143.432 148.796 142.867 148.566 142.443 148.566H123.683C123.26 148.566 122.688 148.789 122.428 149.079L112.539 159.495L112.041 160.015L111.543 160.535L110.555 161.583L110.057 162.103L109.559 162.623L104.017 168.463L103.519 168.983L103.029 169.503L102.033 170.551L101.535 171.078L101.045 171.598L100.168 172.52C99.9006 172.802 99.3359 173.025 98.9124 173.025L94.3951 172.995C94.358 172.973 94.3282 172.951 94.3134 172.951H94.2168L91.0368 172.973L87.8643 172.951H87.7677C87.7677 172.951 87.7232 172.965 87.6935 172.995L83.1984 173.025C82.7749 173.01 82.24 172.795 81.98 172.52L81.4079 171.918C81.4079 171.918 81.3856 171.948 81.3707 171.962C81.3336 171.925 81.2816 171.873 81.2221 171.806C81.1107 171.687 80.9101 171.71 80.7763 171.858L80.5312 172.118L79.543 173.166C79.543 173.166 79.4315 173.285 79.2904 173.426C79.1566 173.575 79.2607 173.916 79.5281 174.199L80.4123 175.135C80.6797 175.417 80.9026 175.648 80.9101 175.648H85.1673V175.655C85.1896 175.655 85.4348 175.655 85.7171 175.655C85.9697 175.655 86.2223 175.655 86.2223 175.655H93.2658H93.2583Z" fill="#01B151"/>
<path d="M104.515 155.231C104.515 155.231 104.403 155.349 104.269 155.491C104.136 155.639 104.24 155.981 104.507 156.263L109.084 161.085C109.351 161.368 109.678 161.479 109.819 161.33L110.072 161.07L111.06 160.023C111.06 160.023 111.172 159.904 111.313 159.763C111.447 159.622 111.343 159.272 111.075 158.99L106.498 154.168C106.231 153.886 105.904 153.774 105.77 153.923L105.518 154.183L104.522 155.231H104.515Z" fill="#01B151"/>
<path d="M119.225 151.196C119.344 151.196 119.649 150.966 119.916 150.684L121.038 149.502C121.038 149.502 121.231 149.294 121.469 149.042C121.714 148.789 121.566 148.581 121.135 148.581H119.017H118.245H106.647C106.223 148.581 105.651 148.796 105.391 149.086L104.024 150.528L103.526 151.048L103.036 151.575L102.04 152.623L101.543 153.143L101.052 153.663L95.9925 158.99C95.725 159.272 95.621 159.622 95.7547 159.763L95.9999 160.023L96.9881 161.07C96.9881 161.07 97.0995 161.189 97.2407 161.33C97.3818 161.472 97.7013 161.36 97.9762 161.085L103.036 155.751L103.526 155.231L104.024 154.71L105.02 153.663L105.517 153.143L106.008 152.623L106.885 151.701C107.152 151.419 107.709 151.189 108.14 151.196H119.025C119.025 151.196 119.114 151.196 119.233 151.196H119.225Z" fill="#01B151"/>
<path d="M86.1034 158.99L84.8701 157.69L84.8329 157.653L81.6604 154.309C81.393 154.027 81.1775 153.804 81.1701 153.804C81.1701 153.804 81.1329 153.774 81.0883 153.737C81.0438 153.693 80.9026 153.774 80.7614 153.915L80.5162 154.176L79.5281 155.223C79.5281 155.223 79.4166 155.342 79.2755 155.483C79.1417 155.632 79.2458 155.974 79.5132 156.256L82.3217 159.22C83.4733 160.558 87.7677 164.956 88.0352 165.231L90.0115 167.311C90.279 167.594 90.4944 167.817 90.4944 167.809C90.4944 167.809 90.5242 167.839 90.5687 167.883C90.6133 167.928 90.6876 168.017 90.7768 168.121C90.8065 168.151 90.8511 168.173 90.8956 168.181C91.0368 168.255 91.2003 168.24 91.3043 168.121L91.542 167.846L91.5643 167.817L94.0236 165.231C94.291 164.949 94.3951 164.607 94.2613 164.458L94.0087 164.198L93.0206 163.151C93.0206 163.151 92.9091 163.032 92.7754 162.891C92.6342 162.742 92.3073 162.854 92.0398 163.143L91.0442 164.191L90.0486 163.143C89.7812 162.861 89.5583 162.638 89.5583 162.638C89.5583 162.638 89.5508 162.638 89.5434 162.638C89.5434 162.638 87.53 160.498 86.1332 159.027C86.1257 159.012 86.1183 158.997 86.1034 158.983V158.99Z" fill="#01B151"/>
<path d="M59.3415 170.306L59.5867 170.046L60.5823 168.998C60.5823 168.998 60.6938 168.879 60.8349 168.738C60.9687 168.589 60.8646 168.248 60.5972 167.965L55.5375 162.638L55.0397 162.118L54.5419 161.598L53.5537 160.55L53.0559 160.03L52.5582 159.51L49.616 156.412C49.512 156.3 49.4079 156.234 49.2965 156.182C49.2519 156.13 49.1776 156.122 49.0959 156.13C49.0142 156.13 48.9399 156.13 48.8953 156.182C48.7838 156.234 48.6798 156.308 48.5758 156.412L48.234 156.769C47.9666 157.051 47.7437 157.274 47.7437 157.274C47.7437 157.274 47.5208 157.497 47.2533 157.779L45.6113 159.51C45.6559 159.562 45.5667 159.614 45.5742 159.83C46.5103 160.855 47.2459 161.903 47.6248 161.605L49.1033 160.045L50.5818 161.605L51.0796 162.125L51.5774 162.646L52.573 163.693L53.0708 164.213L53.5686 164.733L58.6283 170.068C58.8958 170.35 59.2227 170.462 59.3564 170.313L59.3415 170.306Z" fill="#01B151"/>
<path d="M72.3288 162.898L72.0762 163.158L71.0881 164.206C71.0881 164.206 70.9766 164.325 70.8429 164.466C70.7017 164.607 70.8057 164.956 71.0806 165.238L72.4923 166.732C72.4923 166.732 72.4551 166.754 72.4403 166.762L75.5756 170.06C75.8431 170.343 76.0586 170.566 76.066 170.558C76.066 170.558 76.0734 170.558 76.0809 170.558C76.0809 170.558 76.2889 170.328 76.5564 170.046C76.8164 169.778 77.0913 169.511 77.3737 169.251C77.6634 168.991 77.9457 168.708 77.9829 168.619C78.0052 168.56 77.9457 168.426 77.8269 168.262C77.8417 168.24 77.864 168.225 77.8789 168.21L73.0644 163.143C72.9827 163.062 72.9084 162.995 72.8192 162.95C72.7523 162.876 72.6855 162.816 72.6409 162.764C72.6112 162.794 72.5889 162.816 72.5592 162.846C72.4626 162.831 72.3808 162.846 72.3288 162.898Z" fill="#01B151"/>
<path d="M62.5661 155.231C62.5661 155.231 62.4546 155.349 62.3209 155.491C62.1872 155.639 62.2912 155.981 62.5586 156.263L67.1354 161.085C67.4028 161.368 67.7298 161.479 67.8635 161.33L68.1161 161.07L69.1043 160.023C69.1043 160.023 69.2157 159.904 69.3495 159.763C69.4906 159.622 69.3792 159.272 69.1191 158.99L64.5424 154.168C64.2749 153.886 63.948 153.774 63.8143 153.923L63.5691 154.183L62.5735 155.231H62.5661Z" fill="#01B151"/>
<path d="M63.4428 149.086L62.0757 150.528L61.5853 151.048L61.0875 151.575L60.092 152.623L59.5942 153.143L59.1038 153.663L54.0441 158.99C53.7766 159.272 53.6726 159.622 53.8138 159.763L54.059 160.023L55.0471 161.07C55.0471 161.07 55.1586 161.189 55.2923 161.33C55.4335 161.472 55.7604 161.36 56.0279 161.085L61.0875 155.751L61.5853 155.231L62.0757 154.71L63.0713 153.663L63.5691 153.143L64.0669 152.623L64.9436 151.701C65.2111 151.419 65.7757 151.189 66.1992 151.196H73.9782C74.1714 151.211 74.372 151.256 74.5726 151.33C74.6172 151.285 74.6617 151.241 74.6989 151.196H77.0764C77.0764 151.196 77.173 151.196 77.2844 151.196C77.3959 151.196 77.708 150.966 77.9754 150.684L79.0973 149.502C79.0973 149.502 79.2905 149.294 79.5357 149.042C79.7809 148.789 79.6248 148.581 79.2013 148.581H77.0838H76.3111H75.479C75.479 148.581 75.4419 148.581 75.427 148.581H67.5589H64.7207C64.2898 148.581 63.7325 148.804 63.4576 149.086H63.4428Z" fill="#01B151"/>
<path d="M64.9361 172.534L64.5423 172.126C64.2748 171.844 63.9479 171.732 63.8142 171.881L63.569 172.141L62.5734 173.188C62.5734 173.188 62.4619 173.307 62.3282 173.448C62.1945 173.597 62.2985 173.939 62.566 174.221L63.4501 175.157C63.7176 175.44 64.2822 175.67 64.7132 175.67H75.4195C75.843 175.67 76.4076 175.44 76.6751 175.157L78.0496 173.708L78.5474 173.188L79.0452 172.668L80.0408 171.621L80.5386 171.101L81.0364 170.573L82.7675 168.745C83.035 168.463 83.2504 168.24 83.2504 168.248C83.2504 168.255 83.4659 168.039 83.7334 167.757L86.6087 164.733C86.787 164.473 84.8924 162.371 84.6472 162.593L84.5952 162.645L79.0526 168.485L78.5548 169.005L78.057 169.525L77.0614 170.573L76.5637 171.101L76.0659 171.621L75.1891 172.542C74.9217 172.824 74.357 173.047 73.9335 173.047L69.4682 173.017C69.4682 173.017 69.5202 173.04 69.5574 173.055H66.2065C65.7756 173.055 65.211 172.824 64.9509 172.542L64.9361 172.534Z" fill="#01B151"/>
<path d="M24.0874 138.291L23.0398 137.303L22.5197 136.805L21.9996 136.307L20.1719 134.576C19.8896 134.308 19.6667 134.093 19.6741 134.093C19.6815 134.093 19.4661 133.877 19.1763 133.61L16.1524 130.735C15.8923 130.556 13.7897 132.451 14.0126 132.696L14.0646 132.748L19.9044 138.291L20.3651 138.736H24.548L24.0799 138.291H24.0874Z" fill="#01B151"/>
<path d="M6.13713 138.291L5.08953 137.303L4.56945 136.805L4.04936 136.307C4.04936 136.307 3.98249 136.24 3.89334 136.158C3.80418 136.077 3.73731 136.002 3.74474 136.002C3.74474 136.002 3.52185 135.779 3.23952 135.512L3.12807 135.408C2.84574 135.14 2.61542 134.576 2.62285 134.152L2.62285 123.297C2.62285 123.297 2.62285 123.201 2.62285 123.089C2.62285 123.089 2.62284 123.075 2.61541 123.067V118.423C2.61541 117.993 2.84574 117.435 3.12807 117.168L3.54414 116.774C3.82647 116.507 3.93792 116.18 3.79675 116.046L3.53671 115.801L2.48911 114.805C2.48911 114.805 2.37766 114.694 2.22907 114.56C2.0879 114.426 1.7387 114.53 1.45637 114.798L0.520219 115.682C0.237888 115.949 0.00756836 116.514 0.00756836 116.938L0.00756836 133.788C0.00756836 134.212 0.00756836 134.91 0.00756836 135.334L0.00756836 135.668C0.00756836 136.099 0.237888 136.656 0.520219 136.924L1.96903 138.291L2.4371 138.736H6.61264L6.15199 138.291H6.13713Z" fill="#01B151"/>
<path d="M5.61685 136.805L6.66445 137.8C6.66445 137.8 6.78332 137.912 6.92449 138.046C7.07308 138.179 7.41485 138.075 7.69718 137.808L10.6617 134.999C11.999 133.848 16.3974 129.553 16.6798 129.286L18.7601 127.309C19.0424 127.042 19.2653 126.827 19.2579 126.819C19.2579 126.819 19.2802 126.789 19.3322 126.745C19.3768 126.7 19.4659 126.626 19.57 126.537C19.5997 126.507 19.6145 126.462 19.6294 126.418C19.7037 126.277 19.6888 126.113 19.57 126.009L19.2951 125.772L19.2653 125.749L16.6798 123.29C16.3974 123.023 16.0557 122.918 15.9071 123.06L15.647 123.305L14.5994 124.293C14.5994 124.293 14.4806 124.404 14.3394 124.538C14.1908 124.679 14.3023 124.999 14.592 125.274L15.6396 126.262L14.592 127.257C14.3097 127.525 14.0868 127.74 14.0868 127.748C14.0868 127.748 14.0868 127.755 14.0868 127.763C14.0868 127.763 11.947 129.776 10.4759 131.173C10.4611 131.188 10.4462 131.195 10.4388 131.203L9.13856 132.436L9.10141 132.473L5.75801 135.646C5.47568 135.913 5.25279 136.129 5.26022 136.136C5.26022 136.136 5.2305 136.173 5.19335 136.218C5.14877 136.262 5.2305 136.404 5.37167 136.545L5.63171 136.79L5.61685 136.805Z" fill="#01B151"/>
<path d="M7.59313 0.542709C7.65257 0.654156 7.72687 0.758167 7.83088 0.862184L8.18751 1.20395C8.46984 1.47142 8.69273 1.69431 8.69273 1.69431C8.69273 1.69431 8.91563 1.91721 9.19796 2.18468L10.9291 3.82666C10.9811 3.78208 11.0331 3.87866 11.2486 3.87123C12.2739 2.93508 13.3215 2.19212 13.0169 1.82063L11.4566 0.342091L11.4789 0.319802L7.53369 0.319802C7.53369 0.319802 7.53369 0.334661 7.53369 0.342091C7.53369 0.423818 7.53369 0.49813 7.59313 0.542709Z" fill="#01B151"/>
<path d="M0 9.63673L0 9.71104C0 10.1345 0.230325 10.6992 0.512656 10.9667L1.96146 12.3412L2.48154 12.839L3.00163 13.3368L4.04922 14.3324L4.56931 14.8301L5.08939 15.3279L9.74787 19.7486C9.74787 19.7486 9.77758 19.7189 9.78501 19.7041L10.9292 20.7962L11.4493 21.2866L11.9694 21.7844L13.017 22.7726L13.5445 23.2704L14.0646 23.7682L19.9044 29.3108L20.4244 29.8086L20.9445 30.3064L21.9921 31.302L22.5122 31.7997L23.0323 32.2975L23.9536 33.1742C24.2359 33.4343 24.4588 34.0064 24.4588 34.4299L24.4291 38.9472C24.3994 38.9843 24.3845 39.0141 24.3845 39.0289V39.1255L24.4068 42.298L24.3845 45.478C24.3845 45.478 24.3845 45.5151 24.3845 45.5671C24.3845 45.582 24.3994 45.6043 24.4291 45.6488L24.4588 50.1587C24.4588 50.5822 24.2359 51.1543 23.9536 51.4143C23.6638 51.6892 23.4409 51.9047 23.4484 51.9047C23.4484 51.9047 23.3592 52.0013 23.2478 52.1127C23.2329 52.135 23.218 52.1573 23.2106 52.1796L22.5345 52.826L22.5196 52.8111L21.9996 52.3134L20.1718 50.5748C19.8895 50.3073 19.6666 50.0993 19.674 50.0993C19.6815 50.0993 19.466 49.8764 19.1762 49.6163L16.1523 46.741C15.8923 46.5627 13.7897 48.4573 14.0126 48.7099L14.0646 48.7545L19.9044 54.2971L20.4244 54.7949L20.4393 54.8098L14.5772 60.3746C14.2949 60.6421 14.1834 60.969 14.3246 61.1102L14.5846 61.3554L15.6322 62.3435C15.6322 62.3435 15.7511 62.455 15.8923 62.5962C16.0335 62.7299 16.3827 62.6259 16.665 62.3658L22.5345 56.8009L23.0397 57.2839L23.961 58.1606C24.2434 58.4206 24.4662 58.9927 24.4662 59.4162L24.3994 70.4569C24.3994 70.4569 24.3994 70.5014 24.3994 70.5534C24.3994 70.6054 24.6297 70.8655 24.912 71.133L26.5912 72.7229C26.8735 72.9904 27.1038 73.191 27.1038 73.1687C27.1038 73.1464 27.1038 72.9013 27.1038 72.6189C27.1038 72.3663 27.1038 72.1063 27.1038 72.1063V57.9228C27.1038 57.4993 26.8735 56.9347 26.5912 56.6672L25.1498 55.2927L24.6371 54.8098L26.5912 52.9523C26.5912 52.9523 26.6432 52.8854 26.6729 52.8557C26.9106 52.618 27.1038 52.4396 27.1038 52.4322V48.175H27.1112C27.1112 48.1527 27.1112 47.9075 27.1112 47.6252C27.1112 47.3726 27.1112 47.1125 27.1112 47.1125V37.4538C27.1112 37.4538 27.1112 37.2309 27.1112 36.9486C27.1112 36.6662 27.1112 36.4211 27.1112 36.3988C27.1112 36.3988 27.1112 36.3988 27.1038 36.3988V32.9291C27.1038 32.5056 26.8735 31.9409 26.5912 31.6734L25.1498 30.2989L24.6297 29.8011L24.1096 29.3033L23.062 28.3152L22.5419 27.8174L22.0218 27.3196L16.182 21.7695L15.662 21.2718L15.1419 20.7814L14.0943 19.7858L13.5742 19.288L13.0467 18.7902L3.15022 9.39154C2.87532 9.1315 2.645 8.56684 2.645 8.14334L2.645 0.304939H0.0297198L0.0297198 9.62188L0 9.63673Z" fill="#01B151"/>
<path d="M24.3994 3.52204C24.3994 3.52204 24.3994 3.56662 24.3994 3.61863C24.3994 3.63349 24.4142 3.65579 24.4439 3.70037L24.4737 8.19537C24.4588 8.61144 24.2433 9.15382 23.9684 9.41386L23.3666 9.98595C23.3666 9.98595 23.3963 10.0157 23.4112 10.0305C23.3741 10.0677 23.3221 10.1197 23.2552 10.1791C23.1363 10.2906 23.1586 10.4837 23.3072 10.6249L23.5672 10.8775L24.6148 11.8657C24.6148 11.8657 24.7263 11.9771 24.8749 12.1183C25.016 12.2595 25.3652 12.148 25.6476 11.8805L26.5837 10.989C26.866 10.7289 27.0964 10.4986 27.0964 10.4912V6.2339H27.1038C27.1038 6.21161 27.1038 5.96643 27.1038 5.6841C27.1038 5.43149 27.1038 5.17888 27.1038 5.17888V0.334679H24.4365V0.356967L24.4142 3.53691L24.3994 3.52204Z" fill="#01B151"/>
<path d="M14.5774 1.33766C14.295 1.60514 14.0721 1.82803 14.0721 1.82803C14.0721 1.82803 14.0721 1.83548 14.0721 1.84291C14.0721 1.84291 11.9324 3.8638 10.4613 5.25317C10.4464 5.2606 10.4315 5.26801 10.4241 5.28287L9.12391 6.51622L9.08676 6.54594L5.74336 9.72589C5.46103 9.99336 5.23814 10.2163 5.24557 10.2163C5.24557 10.2163 5.21585 10.2534 5.1787 10.2906C5.13412 10.3277 5.21585 10.4763 5.35701 10.6175L5.61705 10.8701L6.66465 11.8582C6.66465 11.8582 6.78353 11.9697 6.9247 12.1108C7.07329 12.252 7.41506 12.1406 7.69739 11.8731L10.6619 9.06465C11.9992 7.91303 16.3977 3.61861 16.68 3.35856L18.7603 1.38224C19.0427 1.1222 19.2655 0.899326 19.2581 0.891896C19.2581 0.891896 19.2804 0.862173 19.3324 0.817595C19.377 0.780445 19.4662 0.698719 19.5702 0.609562C19.5999 0.572412 19.6147 0.535261 19.6296 0.490683C19.6593 0.438674 19.6593 0.379235 19.6668 0.327227H15.625L15.6472 0.349515L14.5997 1.3451L14.5774 1.33766Z" fill="#01B151"/>
<path d="M21.7321 32.0375L21.472 31.7923L20.4244 30.7967C20.4244 30.7967 20.313 30.6853 20.1644 30.5515C20.0158 30.4104 19.674 30.5144 19.3917 30.7819L14.0571 35.8415L13.537 36.3393L13.0095 36.8371L11.9619 37.8327L11.4418 38.3305L10.9218 38.8283L7.82354 41.7705C7.71209 41.8745 7.64522 41.9785 7.59322 42.0826C7.54121 42.1271 7.52635 42.2014 7.53378 42.2832C7.53378 42.3649 7.53378 42.4392 7.59322 42.4838C7.65265 42.5878 7.72695 42.6992 7.83097 42.8032L8.18759 43.145C8.46993 43.4125 8.69282 43.6354 8.69282 43.6354C8.69282 43.6354 8.91571 43.8583 9.19804 44.1257L10.9292 45.7677C10.9812 45.7231 11.0332 45.8197 11.2487 45.8123C12.274 44.8762 13.3216 44.1332 13.0169 43.7617L11.4567 42.2832L13.0169 40.8046L13.5445 40.3143L14.0645 39.8165L15.1121 38.8209L15.6322 38.3231L16.1523 37.8253L21.4795 32.7656C21.7618 32.4982 21.8732 32.1712 21.7321 32.0301V32.0375Z" fill="#01B151"/>
<path d="M14.3247 19.0503L14.5847 19.3029L15.6323 20.2911C15.6323 20.2911 15.7512 20.4025 15.8923 20.5362C16.0335 20.6774 16.3827 20.566 16.665 20.3059L18.151 18.8869C18.151 18.8869 18.1733 18.924 18.1807 18.9463L21.4795 15.8109C21.7619 15.5509 21.9847 15.328 21.9847 15.328C21.9847 15.328 21.9847 15.3205 21.9847 15.3131C21.9847 15.3131 21.7544 15.0977 21.4721 14.8376C21.1972 14.5776 20.9372 14.3027 20.6771 14.0203C20.4171 13.7231 20.1347 13.4483 20.0456 13.4037C19.9936 13.3814 19.8524 13.4483 19.689 13.5597C19.6741 13.5448 19.6592 13.53 19.6369 13.5077L14.5698 18.3222C14.4881 18.4039 14.4212 18.4782 14.3692 18.5674C14.2949 18.6342 14.2355 18.6937 14.1909 18.7457C14.2206 18.7754 14.2429 18.7977 14.2726 18.8274C14.2578 18.924 14.2726 19.0057 14.3247 19.0577V19.0503Z" fill="#01B151"/>
<path d="M6.65727 28.813C6.65727 28.813 6.77614 28.9244 6.91731 29.0656C7.0659 29.2068 7.40767 29.0953 7.69 28.8279L12.5119 24.2511C12.7943 23.9836 12.9057 23.6567 12.7571 23.5156L12.4971 23.2704L11.4495 22.2748C11.4495 22.2748 11.3306 22.1708 11.1894 22.0296C11.0483 21.8885 10.6991 21.9999 10.4167 22.2599L5.59481 26.8367C5.31248 27.1042 5.20103 27.4311 5.34962 27.5648L5.60967 27.8174L6.65727 28.8056V28.813Z" fill="#01B151"/>
<path d="M2.62285 14.1021C2.62285 13.9906 2.39252 13.6786 2.11019 13.4111L0.928859 12.2966C0.928859 12.2966 0.720823 12.1034 0.468211 11.8583C0.215598 11.6205 0.00756836 11.7691 0.00756836 12.1926L0.00756836 14.3175L0.00756836 15.0902L0.00756836 15.9223C0.00756836 15.9223 0.00756836 15.9595 0.00756836 15.9744L0.00756836 23.8425L0.00756836 26.6881C0.00756836 27.1116 0.237887 27.6837 0.520219 27.9437L1.96903 29.3108L2.48911 29.8086L3.0092 30.3064L4.05679 31.302L4.57687 31.7998L5.09696 32.2976L10.4241 37.3572C10.7064 37.6247 11.0482 37.7287 11.1968 37.595L11.4568 37.3424L12.5044 36.3542C12.5044 36.3542 12.6233 36.2428 12.7645 36.1091C12.9131 35.9679 12.8016 35.641 12.5193 35.3809L7.19216 30.3213L6.67208 29.8234L6.15199 29.3257L5.10439 28.3375L4.58431 27.8397L4.06422 27.3419L3.14293 26.4652C2.8606 26.1977 2.63028 25.6331 2.63771 25.2022V17.4232C2.65257 17.2374 2.69715 17.022 2.77144 16.8288C2.72687 16.7842 2.68228 16.7471 2.64513 16.7025L2.64513 14.325C2.64513 14.325 2.64513 14.2284 2.64513 14.1095L2.62285 14.1021Z" fill="#01B151"/>
<path d="M23.961 26.4578L23.5449 26.8441C23.2626 27.1116 23.1511 27.4385 23.2997 27.5722L23.5598 27.8249L24.6074 28.813C24.6074 28.813 24.7188 28.9244 24.8674 29.0656C25.0086 29.2068 25.3578 29.0953 25.6401 28.8279L26.5762 27.9437C26.8586 27.6837 27.0889 27.1116 27.0889 26.6881V15.9744C27.0889 15.5509 26.8586 14.9862 26.5762 14.7187L25.1349 13.3442L24.6148 12.8464L24.0947 12.3486L23.0471 11.353L22.527 10.8627L22.0069 10.3649L20.1792 8.63374C19.8969 8.36627 19.674 8.15081 19.6814 8.15081C19.6888 8.15081 19.4734 7.93535 19.1836 7.66788L16.1597 4.79256C15.8997 4.61424 13.797 6.50883 14.0199 6.76144L14.0719 6.80602L19.9117 12.3486L20.4318 12.8464L20.9519 13.3442L21.9995 14.3398L22.5196 14.8376L23.0397 15.3354L23.961 16.2121C24.2433 16.4796 24.4662 17.0443 24.4662 17.4677L24.4365 21.933C24.4365 21.933 24.4662 21.881 24.4736 21.8513V25.1947C24.4736 25.6256 24.2433 26.1903 23.961 26.4578Z" fill="#01B151"/>
<path d="M10.4241 47.224L9.12391 48.4573L9.08676 48.487L5.74336 51.667C5.46103 51.9345 5.23814 52.1574 5.24557 52.1574C5.24557 52.1574 5.21585 52.1945 5.1787 52.2317C5.13412 52.2762 5.21585 52.4174 5.35701 52.5586L5.61705 52.8112L6.66465 53.7993C6.66465 53.7993 6.78353 53.9108 6.9247 54.0519C7.07329 54.1857 7.41506 54.0817 7.69739 53.8142L10.6619 51.0057C11.9992 49.8541 16.3977 45.5597 16.68 45.2997L18.7603 43.3234C19.0427 43.0559 19.2655 42.833 19.2581 42.833C19.2581 42.833 19.2804 42.8033 19.3324 42.7587C19.377 42.7215 19.4662 42.6398 19.5702 42.5507C19.5999 42.5135 19.6147 42.4764 19.6296 42.4318C19.7039 42.2906 19.689 42.1272 19.5702 42.0306L19.2953 41.7928L19.2655 41.7705L16.68 39.3113C16.3977 39.0438 16.0559 38.9398 15.9073 39.0735L15.6472 39.3261L14.5997 40.3217C14.5997 40.3217 14.4808 40.4332 14.3396 40.5669C14.191 40.7081 14.3025 41.035 14.5922 41.295L15.6398 42.2906L14.5922 43.2862C14.3099 43.5462 14.087 43.7766 14.087 43.7766C14.087 43.7766 14.087 43.784 14.087 43.7914C14.087 43.7914 11.9472 45.8123 10.4761 47.2017C10.4613 47.2091 10.4464 47.2165 10.439 47.2314L10.4241 47.224Z" fill="#01B151"/>
<path d="M21.472 73.8448L20.4244 72.8567C20.4244 72.8567 20.313 72.7452 20.1644 72.6041C20.0158 72.4703 19.674 72.5743 19.3917 72.8418L14.0571 77.9015L13.537 78.3993L13.0095 78.8971L11.9619 79.8853L11.4418 80.383L10.9218 80.8808L7.82354 83.823C7.71209 83.927 7.64522 84.0385 7.59322 84.1425C7.54121 84.1871 7.52635 84.2614 7.53378 84.3431C7.53378 84.4248 7.53378 84.4991 7.59322 84.5437C7.65265 84.6477 7.72695 84.7592 7.83097 84.8558L8.18759 85.1975C8.46993 85.465 8.69282 85.6879 8.69282 85.6879C8.69282 85.6879 8.91571 85.9182 9.19804 86.1783L10.9292 87.8202C10.9812 87.7682 11.0332 87.8723 11.2487 87.8648C12.274 86.9287 13.3216 86.1857 13.0169 85.8142L11.4567 84.3357L13.0169 82.8572L13.5445 82.3594L14.0645 81.8616L15.1121 80.8734L15.6322 80.3756L16.1523 79.8778L21.4795 74.8181C21.7618 74.5507 21.8732 74.2238 21.7321 74.09L21.472 73.8448Z" fill="#01B151"/>
<path d="M27.0891 123.29V121.455C27.0891 121.455 27.0891 121.224 27.0891 120.95C27.0891 120.667 27.0891 120.422 27.0891 120.4C27.0891 120.4 27.0891 120.4 27.0817 120.4V116.93C27.0817 116.507 26.8513 115.935 26.569 115.674L25.1276 114.3L24.6075 113.802L24.0875 113.312L23.0399 112.316L22.5198 111.818L21.9997 111.321L16.1599 105.778L15.6398 105.28L15.1197 104.782L14.0721 103.787L13.552 103.289L13.0245 102.791L3.12807 93.3926C2.85317 93.1251 2.62285 92.5679 2.62285 92.1444L2.62285 81.3341C2.62285 81.3341 2.62285 81.2449 2.62285 81.126C2.62285 81.126 2.62284 81.1112 2.61541 81.1037V76.4601C2.61541 76.0366 2.84574 75.472 3.12807 75.2045L3.54414 74.8107C3.82647 74.5432 3.93792 74.2163 3.79675 74.0826L3.53671 73.8374L2.48911 72.8493C2.48911 72.8493 2.37766 72.7378 2.22907 72.5966C2.0879 72.4629 1.7387 72.5669 1.45637 72.8344L0.520219 73.7185C0.237887 73.986 0.00756836 74.5507 0.00756836 74.9816L0.00756836 93.6378L0.00756836 93.7121C0.00756836 94.143 0.237887 94.7002 0.520219 94.9677L1.96903 96.3422L2.48911 96.84L3.0092 97.3378L4.05679 98.3334L4.57687 98.8312L5.09696 99.3215L9.75543 103.742C9.75543 103.742 9.78515 103.713 9.79258 103.698L10.9368 104.782L11.4568 105.28L11.9769 105.778L13.0245 106.766L13.552 107.264L14.0721 107.762L19.9119 113.304L20.432 113.795L20.9521 114.293L21.9997 115.288L22.5198 115.786L23.0399 116.276L23.9612 117.153C24.2435 117.42 24.4664 117.978 24.4664 118.409L24.4367 122.926C24.4367 122.926 24.3921 122.993 24.3921 123V123.097L24.4144 126.277L24.3921 129.457C24.3921 129.457 24.3921 129.501 24.3921 129.553C24.3921 129.568 24.4069 129.598 24.4367 129.635L24.4664 134.145C24.4664 134.576 24.2435 135.14 23.9612 135.401C23.6714 135.668 23.4485 135.883 23.4559 135.891C23.4559 135.891 23.3668 135.987 23.2553 136.099C23.1365 136.21 23.1587 136.411 23.3073 136.545L23.5674 136.79L24.615 137.785C24.615 137.785 24.7264 137.897 24.875 138.031C25.0162 138.164 25.3654 138.06 25.6477 137.793L26.5839 136.901C26.8662 136.634 27.0965 136.411 27.0965 136.404V132.146H27.104C27.104 132.124 27.104 131.879 27.104 131.596C27.104 131.344 27.104 131.091 27.104 131.091V123.275L27.0891 123.29Z" fill="#01B151"/>
<path d="M27.0889 82.1216V79.5138C27.0889 79.5138 27.0889 79.2834 27.0889 79.0085C27.0889 78.7262 27.0889 78.481 27.0889 78.4587C27.0889 78.4587 27.0889 78.4662 27.0814 78.4662V74.9964C27.0814 74.5655 26.8511 74.0083 26.5688 73.7334L25.1274 72.3663L24.6073 71.8759L24.0873 71.3781L23.0397 70.3826L22.5196 69.8848L21.9995 69.3944L19.4288 66.95C19.3991 66.9129 19.3619 66.8683 19.3248 66.8311L16.6723 64.3124C16.6352 64.2753 16.5906 64.2456 16.546 64.2158L16.1597 63.8518L15.6396 63.354L15.1195 62.8562L14.0719 61.868L13.5518 61.3702L13.0243 60.8724L12.6231 60.4935C12.586 60.449 12.5562 60.4118 12.5191 60.3672L7.19195 55.3075L6.67187 54.8098L6.15178 54.312L5.10418 53.3164L4.5841 52.826L4.06402 52.3282C4.06402 52.3282 3.99715 52.2539 3.90799 52.1796C3.81883 52.0979 3.75196 52.0236 3.75939 52.0236C3.75939 52.0236 3.5365 51.8007 3.25417 51.5332L3.14272 51.4218C2.86039 51.1617 2.63007 50.5896 2.6375 50.1661L2.6375 39.3112C2.6375 39.3112 2.6375 39.2147 2.6375 39.0958C2.6375 39.0958 2.6375 39.0809 2.63007 39.0735V34.4299C2.63007 34.0064 2.86039 33.4417 3.14272 33.1742L3.55879 32.7805C3.84112 32.513 3.95257 32.1861 3.8114 32.0449L3.55136 31.7997L2.50376 30.8042C2.50376 30.8042 2.39231 30.6927 2.24372 30.559C2.10255 30.4178 1.75336 30.5218 1.47103 30.7893L0.534873 31.6734C0.252542 31.9409 0.0222168 32.5056 0.0222168 32.9291L0.0222168 51.6892C0.0222168 52.1127 0.252542 52.6848 0.534873 52.9449L10.9588 62.8339L11.4789 63.3317L11.999 63.8295L13.0466 64.8177L13.5741 65.3155L14.0942 65.8132L19.934 71.3559L20.4541 71.8536L20.9742 72.344L22.0218 73.3322L22.5419 73.83L23.0619 74.3203L23.9832 75.197C24.2656 75.4645 24.4885 76.0292 24.4885 76.4527L24.4587 80.9626C24.429 80.9997 24.4142 81.0294 24.4142 81.0443V81.1409L24.4365 84.3208L24.4142 87.4933C24.4142 87.4933 24.4142 87.5379 24.4142 87.5899C24.4142 87.6048 24.429 87.6345 24.4587 87.6642L24.4885 92.1592C24.4736 92.5827 24.2581 93.1177 23.9832 93.3777L23.3814 93.9498C23.3814 93.9498 23.4111 93.9721 23.426 93.9869C23.3889 94.0241 23.3368 94.0761 23.27 94.1355C23.1511 94.247 23.1734 94.4476 23.322 94.5813L23.582 94.8265L24.6296 95.8147C24.6296 95.8147 24.7411 95.9261 24.8897 96.0598C25.0308 96.1936 25.38 96.0896 25.6624 95.8221L26.5985 94.938C26.8808 94.6705 27.1112 94.4476 27.1112 94.4402V90.1829H27.1186C27.1186 90.1606 27.1186 89.9154 27.1186 89.6331C27.1186 89.3805 27.1186 89.1279 27.1186 89.1279V82.0844L27.0889 82.1216Z" fill="#01B151"/>
<path d="M6.65727 70.8655C6.65727 70.8655 6.77614 70.977 6.91731 71.1107C7.0659 71.2445 7.40767 71.1404 7.69 70.873L12.5119 66.2962C12.7943 66.0288 12.9057 65.7019 12.7571 65.5607L12.4971 65.3155L11.4495 64.3273C11.4495 64.3273 11.3306 64.2159 11.1894 64.0822C11.0483 63.9484 10.6991 64.0524 10.4167 64.3125L5.59481 68.8892C5.31248 69.1567 5.20103 69.4836 5.34962 69.6173L5.60967 69.8625L6.65727 70.8581V70.8655Z" fill="#01B151"/>
<path d="M2.62285 56.1546C2.62285 56.0357 2.39252 55.7311 2.11019 55.4636L0.928859 54.3417C0.928859 54.3417 0.720823 54.1485 0.468211 53.9108C0.215598 53.6656 0.00756836 53.8142 0.00756836 54.2526L0.00756836 56.37L0.00756836 57.1427L0.00756836 68.7406C0.00756836 69.1641 0.230462 69.7288 0.512793 69.9962L1.9616 71.3633L2.48168 71.8611L3.00177 72.3515L4.04936 73.3396L4.56945 73.8374L5.08953 74.3278L10.4167 79.3949C10.699 79.6624 11.0408 79.7664 11.1894 79.6252L11.4494 79.38L12.497 78.3919C12.497 78.3919 12.6159 78.2804 12.7571 78.1467C12.9057 78.0055 12.7942 77.6861 12.5119 77.4112L7.18473 72.3515L6.66464 71.8611L6.14456 71.3633L5.09696 70.3677L4.57687 69.8699L4.05679 69.3796L3.1355 68.5029C2.85317 68.2354 2.62285 67.6782 2.63028 67.2472L2.63028 56.3626C2.63028 56.3626 2.63028 56.2735 2.63028 56.1546H2.62285Z" fill="#01B151"/>
<path d="M10.4241 89.2765L9.12391 90.5098L9.08676 90.547L5.74336 93.7195C5.46103 93.987 5.23814 94.2099 5.24557 94.2099C5.24557 94.2099 5.21585 94.247 5.1787 94.2916C5.13412 94.3362 5.21585 94.4773 5.35701 94.6111L5.61705 94.8563L6.66465 95.8444C6.66465 95.8444 6.78353 95.9559 6.9247 96.0896C7.07329 96.2233 7.41506 96.1193 7.69739 95.8518L10.6619 93.0434C11.9992 91.8918 16.3977 87.5974 16.68 87.3299L18.7603 85.3536C19.0427 85.0861 19.2655 84.8706 19.2581 84.8706C19.2581 84.8706 19.2804 84.8409 19.3324 84.7964C19.377 84.7518 19.4662 84.6775 19.5702 84.5883C19.5999 84.5586 19.6147 84.514 19.6296 84.4694C19.7039 84.3283 19.689 84.1648 19.5702 84.0608L19.2953 83.823L19.2655 83.8008L16.68 81.3415C16.3977 81.074 16.0559 80.97 15.9073 81.1038L15.6472 81.3564L14.5997 82.3445C14.5997 82.3445 14.4808 82.456 14.3396 82.5897C14.191 82.7309 14.3025 83.0578 14.5922 83.3252L15.6398 84.3208L14.5922 85.3164C14.3099 85.5839 14.087 85.8068 14.087 85.8068C14.087 85.8068 14.087 85.8142 14.087 85.8217C14.087 85.8217 11.9472 87.8351 10.4761 89.2319C10.4613 89.2394 10.4464 89.2468 10.439 89.2616L10.4241 89.2765Z" fill="#01B151"/>
<path d="M21.7321 116.031L21.472 115.786L20.4244 114.79C20.4244 114.79 20.313 114.679 20.1644 114.545C20.0158 114.411 19.674 114.515 19.3917 114.783L14.0571 119.843L13.537 120.34L13.0095 120.838L11.9619 121.826L11.4418 122.324L10.9218 122.822L7.82354 125.764C7.71209 125.868 7.64522 125.972 7.59322 126.084C7.54121 126.128 7.52635 126.202 7.53378 126.284C7.53378 126.366 7.53378 126.44 7.59322 126.485C7.65265 126.589 7.72695 126.693 7.83097 126.797L8.18759 127.139C8.46993 127.406 8.69282 127.629 8.69282 127.629C8.69282 127.629 8.91571 127.852 9.19804 128.119L10.9292 129.761C10.9812 129.717 11.0332 129.806 11.2487 129.798C12.274 128.862 13.3216 128.127 13.0169 127.748L11.4567 126.269L13.0169 124.791L13.5445 124.293L14.0645 123.795L15.1121 122.807L15.6322 122.309L16.1523 121.811L21.4795 116.752C21.7618 116.484 21.8732 116.157 21.7321 116.024V116.031Z" fill="#01B151"/>
<path d="M14.3247 103.051L14.5847 103.304L15.6323 104.292C15.6323 104.292 15.7512 104.404 15.8923 104.537C16.0335 104.678 16.3827 104.574 16.665 104.3L18.151 102.888C18.151 102.888 18.1733 102.918 18.1807 102.94L21.4795 99.8045C21.7619 99.537 21.9847 99.3216 21.9847 99.3141C21.9847 99.3141 21.9847 99.3067 21.9847 99.2993C21.9847 99.2993 21.7544 99.0912 21.4721 98.8238C21.1972 98.5637 20.9372 98.2888 20.6771 98.0065C20.4171 97.7167 20.1347 97.4344 20.0456 97.3973C19.9936 97.375 19.8524 97.4344 19.689 97.5533C19.6741 97.5384 19.6592 97.5161 19.6369 97.5013L14.5698 102.316C14.4881 102.397 14.4212 102.472 14.3692 102.561C14.2949 102.628 14.2355 102.695 14.1909 102.739C14.2206 102.769 14.2429 102.799 14.2726 102.821C14.2578 102.918 14.2726 102.999 14.3247 103.051Z" fill="#01B151"/>
<path d="M6.65727 112.807C6.65727 112.807 6.77614 112.918 6.91731 113.052C7.0659 113.185 7.40767 113.081 7.69 112.814L12.5119 108.237C12.7943 107.97 12.9057 107.643 12.7571 107.509L12.4971 107.264L11.4495 106.276C11.4495 106.276 11.3306 106.164 11.1894 106.031C11.0483 105.889 10.6991 106.001 10.4167 106.261L5.59481 110.838C5.31248 111.105 5.20103 111.432 5.34962 111.566L5.60967 111.811L6.65727 112.807Z" fill="#01B151"/>
<path d="M0.512585 111.937L1.96139 113.304L2.48147 113.795L3.00156 114.293L4.04915 115.288L4.56924 115.786L5.08932 116.276L10.4165 121.336C10.6988 121.603 11.0406 121.707 11.1892 121.574L11.4492 121.329L12.4968 120.34C12.4968 120.34 12.6157 120.229 12.7568 120.088C12.9054 119.947 12.794 119.62 12.5117 119.352L7.18452 114.293L6.66444 113.795L6.14435 113.304L5.09675 112.309L4.57667 111.811L4.05658 111.313L3.13529 110.437C2.85296 110.169 2.62264 109.604 2.63007 109.181V101.394C2.64493 101.201 2.68951 101.001 2.76381 100.8C2.71923 100.756 2.67465 100.711 2.6375 100.674L2.6375 98.2963C2.6375 98.2963 2.6375 98.1997 2.6375 98.0882C2.6375 97.9768 2.40718 97.6647 2.12484 97.3972L0.943507 96.2754C0.943507 96.2754 0.735477 96.0822 0.482865 95.837C0.230253 95.5918 0.0222168 95.7478 0.0222168 96.1713L0.0222168 98.2888L0.0222168 99.0615L0.0222168 99.8937C0.0222168 99.8937 0.0222168 99.9308 0.0222168 99.9457L0.0222168 107.814L0.0222168 110.652C0.0222168 111.083 0.252542 111.64 0.534873 111.915L0.512585 111.937Z" fill="#01B151"/>
<path d="M23.961 110.444L23.5449 110.838C23.2626 111.105 23.1511 111.432 23.2997 111.566L23.5598 111.811L24.6074 112.807C24.6074 112.807 24.7188 112.918 24.8674 113.052C25.0086 113.185 25.3578 113.081 25.6401 112.814L26.5762 111.93C26.8586 111.662 27.0889 111.098 27.0889 110.667V99.9605C27.0889 99.5295 26.8586 98.9723 26.5762 98.7048L25.1349 97.3303L24.6148 96.8325L24.0947 96.3347L23.0471 95.3391L22.527 94.8414L22.0069 94.3436L20.1792 92.6124C19.8969 92.3449 19.674 92.1295 19.6814 92.1295C19.6888 92.1295 19.4734 91.914 19.1836 91.6466L16.1597 88.7712C15.8997 88.5929 13.797 90.4875 14.0199 90.7327L14.0719 90.7847L19.9117 96.3273L20.4318 96.8251L20.9519 97.3229L21.9995 98.3185L22.5196 98.8163L23.0397 99.3067L23.961 100.183C24.2433 100.451 24.4662 101.015 24.4662 101.439L24.4365 105.904C24.4365 105.904 24.4662 105.852 24.4736 105.815V109.166C24.4736 109.589 24.2433 110.154 23.961 110.422V110.444Z" fill="#01B151"/>
</svg>
