<svg width="14" height="16" viewBox="0 0 14 16" fill="none" xmlns="http://www.w3.org/2000/svg">
<path d="M4.33333 3.83333C4.05999 3.83333 3.83333 3.60666 3.83333 3.33333V1.33333C3.83333 1.05999 4.05999 0.833328 4.33333 0.833328C4.60666 0.833328 4.83333 1.05999 4.83333 1.33333V3.33333C4.83333 3.60666 4.60666 3.83333 4.33333 3.83333ZM9.66666 3.83333C9.39333 3.83333 9.16666 3.60666 9.16666 3.33333V1.33333C9.16666 1.05999 9.39333 0.833328 9.66666 0.833328C9.93999 0.833328 10.1667 1.05999 10.1667 1.33333V3.33333C10.1667 3.60666 9.93999 3.83333 9.66666 3.83333ZM4.66666 9.66666C4.57999 9.66666 4.49333 9.64666 4.41333 9.61333C4.32666 9.58 4.25999 9.53333 4.19333 9.47333C4.07333 9.34666 3.99999 9.18 3.99999 9C3.99999 8.91333 4.01999 8.82666 4.05333 8.74666C4.08666 8.66666 4.13333 8.59333 4.19333 8.52666C4.25999 8.46666 4.32666 8.42 4.41333 8.38666C4.65333 8.28666 4.95333 8.33999 5.13999 8.52666C5.25999 8.65333 5.33333 8.82666 5.33333 9C5.33333 9.04 5.32666 9.08666 5.31999 9.13333C5.31333 9.17333 5.29999 9.21333 5.27999 9.25333C5.26666 9.29333 5.24666 9.33333 5.21999 9.37333C5.19999 9.40666 5.16666 9.43999 5.13999 9.47333C5.01333 9.59333 4.83999 9.66666 4.66666 9.66666ZM6.99999 9.66666C6.91333 9.66666 6.82666 9.64666 6.74666 9.61333C6.65999 9.58 6.59333 9.53333 6.52666 9.47333C6.40666 9.34666 6.33333 9.18 6.33333 9C6.33333 8.91333 6.35333 8.82666 6.38666 8.74666C6.41999 8.66666 6.46666 8.59333 6.52666 8.52666C6.59333 8.46666 6.65999 8.42 6.74666 8.38666C6.98666 8.27999 7.28666 8.33999 7.47333 8.52666C7.59333 8.65333 7.66666 8.82666 7.66666 9C7.66666 9.04 7.65999 9.08666 7.65333 9.13333C7.64666 9.17333 7.63333 9.21333 7.61333 9.25333C7.59999 9.29333 7.57999 9.33333 7.55333 9.37333C7.53333 9.40666 7.49999 9.43999 7.47333 9.47333C7.34666 9.59333 7.17333 9.66666 6.99999 9.66666ZM9.33333 9.66666C9.24666 9.66666 9.15999 9.64666 9.07999 9.61333C8.99333 9.58 8.92666 9.53333 8.85999 9.47333L8.77999 9.37333C8.75474 9.33618 8.73456 9.29582 8.71999 9.25333C8.70074 9.21555 8.68725 9.1751 8.67999 9.13333C8.67333 9.08666 8.66666 9.04 8.66666 9C8.66666 8.82666 8.73999 8.65333 8.85999 8.52666C8.92666 8.46666 8.99333 8.42 9.07999 8.38666C9.32666 8.27999 9.61999 8.33999 9.80666 8.52666C9.92666 8.65333 9.99999 8.82666 9.99999 9C9.99999 9.04 9.99333 9.08666 9.98666 9.13333C9.97999 9.17333 9.96666 9.21333 9.94666 9.25333C9.93333 9.29333 9.91333 9.33333 9.88666 9.37333C9.86666 9.40666 9.83333 9.43999 9.80666 9.47333C9.67999 9.59333 9.50666 9.66666 9.33333 9.66666ZM4.66666 12C4.57999 12 4.49333 11.98 4.41333 11.9467C4.33333 11.9133 4.25999 11.8667 4.19333 11.8067C4.07333 11.68 3.99999 11.5067 3.99999 11.3333C3.99999 11.2467 4.01999 11.16 4.05333 11.08C4.08666 10.9933 4.13333 10.92 4.19333 10.86C4.43999 10.6133 4.89333 10.6133 5.13999 10.86C5.25999 10.9867 5.33333 11.16 5.33333 11.3333C5.33333 11.5067 5.25999 11.68 5.13999 11.8067C5.01333 11.9267 4.83999 12 4.66666 12ZM6.99999 12C6.82666 12 6.65333 11.9267 6.52666 11.8067C6.40666 11.68 6.33333 11.5067 6.33333 11.3333C6.33333 11.2467 6.35333 11.16 6.38666 11.08C6.41999 10.9933 6.46666 10.92 6.52666 10.86C6.77333 10.6133 7.22666 10.6133 7.47333 10.86C7.53333 10.92 7.57999 10.9933 7.61333 11.08C7.64666 11.16 7.66666 11.2467 7.66666 11.3333C7.66666 11.5067 7.59333 11.68 7.47333 11.8067C7.34666 11.9267 7.17333 12 6.99999 12ZM9.33333 12C9.15999 12 8.98666 11.9267 8.85999 11.8067C8.79831 11.744 8.75059 11.6691 8.71999 11.5867C8.68666 11.5067 8.66666 11.42 8.66666 11.3333C8.66666 11.2467 8.68666 11.16 8.71999 11.08C8.75333 10.9933 8.79999 10.92 8.85999 10.86C9.01333 10.7067 9.24666 10.6333 9.45999 10.68C9.50666 10.6867 9.54666 10.7 9.58666 10.72C9.62666 10.7333 9.66666 10.7533 9.70666 10.78C9.73999 10.8 9.77333 10.8333 9.80666 10.86C9.92666 10.9867 9.99999 11.16 9.99999 11.3333C9.99999 11.5067 9.92666 11.68 9.80666 11.8067C9.67999 11.9267 9.50666 12 9.33333 12ZM12.6667 6.56H1.33333C1.05999 6.56 0.833328 6.33333 0.833328 6.06C0.833328 5.78666 1.05999 5.56 1.33333 5.56H12.6667C12.94 5.56 13.1667 5.78666 13.1667 6.06C13.1667 6.33333 12.94 6.56 12.6667 6.56Z" fill="white"/>
<path d="M9.66667 15.1667H4.33333C1.9 15.1667 0.5 13.7667 0.5 11.3333V5.66666C0.5 3.23333 1.9 1.83333 4.33333 1.83333H9.66667C12.1 1.83333 13.5 3.23333 13.5 5.66666V11.3333C13.5 13.7667 12.1 15.1667 9.66667 15.1667ZM4.33333 2.83333C2.42667 2.83333 1.5 3.75999 1.5 5.66666V11.3333C1.5 13.24 2.42667 14.1667 4.33333 14.1667H9.66667C11.5733 14.1667 12.5 13.24 12.5 11.3333V5.66666C12.5 3.75999 11.5733 2.83333 9.66667 2.83333H4.33333Z" fill="white"/>
</svg>
