<svg width="16" height="14" viewBox="0 0 16 14" fill="none" xmlns="http://www.w3.org/2000/svg">
<path d="M14.6667 0.666667H12.3333V0.333333C12.3333 0.244928 12.2982 0.160143 12.2357 0.0976311C12.1732 0.0351189 12.0884 0 12 0C11.9116 0 11.8268 0.0351189 11.7643 0.0976311C11.7018 0.160143 11.6667 0.244928 11.6667 0.333333V0.666667H8.33333V0.333333C8.33333 0.244928 8.29821 0.160143 8.2357 0.0976311C8.17319 0.0351189 8.0884 0 8 0C7.91159 0 7.8268 0.0351189 7.76429 0.0976311C7.70178 0.160143 7.66666 0.244928 7.66666 0.333333V0.666667H4.33333V0.333333C4.33333 0.244928 4.29821 0.160143 4.2357 0.0976311C4.17319 0.0351189 4.0884 0 3.99999 0C3.91159 0 3.8268 0.0351189 3.76429 0.0976311C3.70178 0.160143 3.66666 0.244928 3.66666 0.333333V0.666667H1.33333C1.06811 0.666667 0.813758 0.772024 0.626221 0.95956C0.438685 1.1471 0.333328 1.40145 0.333328 1.66667V13C0.333328 13.2652 0.438685 13.5196 0.626221 13.7071C0.813758 13.8946 1.06811 14 1.33333 14H14.6667C14.9319 14 15.1862 13.8946 15.3738 13.7071C15.5613 13.5196 15.6667 13.2652 15.6667 13V1.66667C15.6667 1.40145 15.5613 1.1471 15.3738 0.95956C15.1862 0.772024 14.9319 0.666667 14.6667 0.666667ZM1.33333 1.33333H3.66666V1.66667C3.66666 1.75507 3.70178 1.83986 3.76429 1.90237C3.8268 1.96488 3.91159 2 3.99999 2C4.0884 2 4.17319 1.96488 4.2357 1.90237C4.29821 1.83986 4.33333 1.75507 4.33333 1.66667V1.33333H7.66666V1.66667C7.66666 1.75507 7.70178 1.83986 7.76429 1.90237C7.8268 1.96488 7.91159 2 8 2C8.0884 2 8.17319 1.96488 8.2357 1.90237C8.29821 1.83986 8.33333 1.75507 8.33333 1.66667V1.33333H11.6667V1.66667C11.6667 1.75507 11.7018 1.83986 11.7643 1.90237C11.8268 1.96488 11.9116 2 12 2C12.0884 2 12.1732 1.96488 12.2357 1.90237C12.2982 1.83986 12.3333 1.75507 12.3333 1.66667V1.33333H14.6667C14.7551 1.33333 14.8399 1.36845 14.9024 1.43096C14.9649 1.49348 15 1.57826 15 1.66667V3.66667H0.999995V1.66667C0.999995 1.57826 1.03511 1.49348 1.09763 1.43096C1.16014 1.36845 1.24492 1.33333 1.33333 1.33333ZM0.999995 13V4.33333H15V10.6667H13.3333C13.0681 10.6667 12.8138 10.772 12.6262 10.9596C12.4387 11.1471 12.3333 11.4015 12.3333 11.6667V13.3333H1.33333C1.24492 13.3333 1.16014 13.2982 1.09763 13.2357C1.03511 13.1732 0.999995 13.0884 0.999995 13ZM14.5233 11.3333L13 12.8633V11.6667C13 11.5783 13.0351 11.4935 13.0976 11.431C13.1601 11.3685 13.2449 11.3333 13.3333 11.3333H14.5233ZM14.6667 13.3333H13.47L15 11.8033V13C15 13.0884 14.9649 13.1732 14.9024 13.2357C14.8399 13.2982 14.7551 13.3333 14.6667 13.3333Z" fill="white"/>
<path d="M10.3667 9.44333C10.3159 9.40185 10.2541 9.37625 10.1889 9.36973C10.1236 9.3632 10.0579 9.37605 9.99999 9.40667C9.69579 9.58091 9.35054 9.67068 8.99999 9.66667C8.46956 9.66667 7.96085 9.45595 7.58578 9.08088C7.2107 8.70581 6.99999 8.1971 6.99999 7.66667C6.99799 7.32949 7.08243 6.99743 7.24523 6.70216C7.40804 6.40689 7.64379 6.15827 7.92999 5.98C7.98836 5.94375 8.0341 5.89034 8.06095 5.82709C8.08781 5.76384 8.09445 5.69384 8.07999 5.62667C8.0656 5.55985 8.03103 5.49907 7.98094 5.45256C7.93086 5.40606 7.86769 5.37607 7.79999 5.36667C7.64551 5.34373 7.4895 5.33258 7.33332 5.33333C6.72362 5.33313 6.12554 5.50015 5.60417 5.81623C5.08279 6.1323 4.6581 6.58532 4.37629 7.12599C4.09449 7.66666 3.96637 8.27426 4.00588 8.88268C4.04539 9.4911 4.25102 10.077 4.60038 10.5767C4.94975 11.0764 5.42947 11.4707 5.98734 11.7167C6.54522 11.9626 7.15988 12.0509 7.76443 11.9719C8.36898 11.8928 8.94027 11.6494 9.41613 11.2683C9.89199 10.8871 10.2542 10.3827 10.4633 9.81C10.4864 9.7463 10.4895 9.67709 10.4722 9.61158C10.4549 9.54608 10.4181 9.48739 10.3667 9.44333ZM7.33332 11.3333C6.66383 11.3348 6.01827 11.0845 5.52487 10.632C5.03147 10.1794 4.72633 9.55788 4.67008 8.89076C4.61382 8.22363 4.81055 7.55976 5.2212 7.031C5.63185 6.50224 6.22637 6.1473 6.88666 6.03667C6.58184 6.43134 6.3938 6.90357 6.34388 7.39974C6.29397 7.89591 6.38418 8.39614 6.60427 8.84362C6.82436 9.2911 7.16552 9.66789 7.589 9.93122C8.01248 10.1946 8.50131 10.3339 8.99999 10.3333C9.14851 10.3329 9.29675 10.3206 9.44332 10.2967C9.19422 10.6192 8.8745 10.8804 8.50873 11.0601C8.14295 11.2398 7.74086 11.3333 7.33332 11.3333Z" fill="white"/>
<path d="M8.66666 7.66666H8.99999V7.99999C8.99999 8.0884 9.03511 8.17319 9.09763 8.2357C9.16014 8.29821 9.24492 8.33333 9.33333 8.33333C9.42173 8.33333 9.50652 8.29821 9.56903 8.2357C9.63154 8.17319 9.66666 8.0884 9.66666 7.99999V7.66666H9.99999C10.0884 7.66666 10.1732 7.63154 10.2357 7.56903C10.2982 7.50652 10.3333 7.42173 10.3333 7.33333C10.3333 7.24492 10.2982 7.16014 10.2357 7.09763C10.1732 7.03511 10.0884 6.99999 9.99999 6.99999H9.66666V6.66666C9.66666 6.57826 9.63154 6.49347 9.56903 6.43096C9.50652 6.36845 9.42173 6.33333 9.33333 6.33333C9.24492 6.33333 9.16014 6.36845 9.09763 6.43096C9.03511 6.49347 8.99999 6.57826 8.99999 6.66666V6.99999H8.66666C8.57826 6.99999 8.49347 7.03511 8.43096 7.09763C8.36845 7.16014 8.33333 7.24492 8.33333 7.33333C8.33333 7.42173 8.36845 7.50652 8.43096 7.56903C8.49347 7.63154 8.57826 7.66666 8.66666 7.66666Z" fill="white"/>
</svg>
