<svg width="33" height="33" viewBox="0 0 33 33" fill="none" xmlns="http://www.w3.org/2000/svg">
<path d="M12.4375 5.0818C12.4798 5.05797 12.4688 5.04304 12.6174 5.11308C12.766 5.18348 13.0021 5.3666 13.2339 5.61762C13.6965 6.12393 14.1609 6.89086 14.4027 7.39717C14.4101 7.41388 14.4194 7.42846 14.4283 7.44304C15.1102 8.61851 15.4039 9.51628 15.4131 10.0816C15.4227 10.6455 15.2723 10.8891 14.7931 11.1643L13.5536 11.8775C12.7472 12.3415 12.3667 13.1732 12.2722 13.949C12.1769 14.7252 12.3187 15.4793 12.664 16.0756L15.7182 21.3399C16.0656 21.9348 16.6523 22.434 17.3751 22.7405C18.0979 23.0473 19.0121 23.1341 19.8181 22.6704L21.059 21.9607C21.5383 21.6855 21.8242 21.6777 22.3109 21.9678C22.7991 22.258 23.4323 22.9584 24.1143 24.1332C24.1239 24.1502 24.1331 24.1648 24.1442 24.1815C24.4635 24.6416 24.8983 25.4253 25.1081 26.0777C25.2123 26.4027 25.2531 26.6964 25.24 26.861C25.2254 27.0238 25.2219 27.0054 25.1788 27.031L24.2384 27.5707C21.8739 28.5982 19.7079 28.3671 17.7705 27.3602C15.8274 26.3529 14.1385 24.5289 12.963 22.3895C12.9587 22.3856 12.9573 22.3799 12.9534 22.3767L10.3792 17.9383C10.3771 17.9326 10.3735 17.9291 10.3717 17.923C9.09742 15.8409 8.35075 13.4736 8.44319 11.2973C8.53635 9.12411 9.42239 7.14153 11.501 5.61691L12.4375 5.0818ZM13.1916 3.90135C12.7845 3.71113 12.2235 3.65531 11.7644 3.91984L10.7692 4.49264C10.7465 4.50544 10.7262 4.5186 10.7059 4.5314C8.3095 6.285 7.20586 8.72588 7.09848 11.2425C6.99004 13.7577 7.83057 16.3536 9.21795 18.6228L11.7797 23.0352C11.7811 23.0352 11.7833 23.0352 11.7833 23.037L11.7868 23.0484C13.0686 25.3712 14.9061 27.3865 17.1465 28.5506C19.3904 29.715 22.0638 29.9849 24.7888 28.7966C24.813 28.7874 24.8354 28.7764 24.8574 28.765L25.8533 28.1926C26.3123 27.928 26.5442 27.4203 26.5819 26.9748C26.6206 26.5275 26.5299 26.0973 26.3923 25.6699C26.1228 24.8254 25.6563 24.0094 25.2681 23.4452C24.5328 22.1851 23.827 21.3076 23.0078 20.8197C22.6124 20.5822 22.1604 20.455 21.6991 20.4514C21.2378 20.4478 20.784 20.568 20.3849 20.7995L19.144 21.511C18.7781 21.7214 18.3522 21.699 17.9045 21.5092C17.4551 21.3186 17.0412 20.9364 16.8851 20.6701L13.8309 15.4057C13.6766 15.1398 13.5525 14.5908 13.6101 14.1104C13.6691 13.6279 13.8622 13.2514 14.2281 13.0406L15.4654 12.3291C16.2736 11.8654 16.7771 11.0174 16.7618 10.0599C16.7451 9.10882 16.3347 8.05709 15.6005 6.78917C15.3033 6.1762 14.8283 5.36695 14.2316 4.71628C13.9291 4.38491 13.5984 4.09157 13.1916 3.90135Z" fill="#838DAE"/>
</svg>
