<svg width="22" height="22" viewBox="0 0 22 22" fill="none" xmlns="http://www.w3.org/2000/svg">
<path d="M10.3125 4.125V8.25C10.3127 8.62858 10.208 8.9998 10.01 9.3225C9.82552 9.62401 9.56693 9.87328 9.25885 10.0466C8.95078 10.2199 8.60347 10.3114 8.25 10.3125H4.125C3.57849 10.3109 3.05484 10.093 2.6684 9.7066C2.28195 9.32016 2.06413 8.79651 2.0625 8.25V4.125C2.06358 3.77153 2.15513 3.42422 2.32843 3.11615C2.50172 2.80807 2.75099 2.54948 3.0525 2.365C3.3752 2.16704 3.74642 2.06234 4.125 2.0625H8.25C8.79651 2.06413 9.32016 2.28195 9.7066 2.6684C10.093 3.05484 10.3109 3.57849 10.3125 4.125ZM19.9375 4.125V8.25C19.9377 8.62858 19.833 8.9998 19.635 9.3225C19.4505 9.62401 19.1919 9.87328 18.8839 10.0466C18.5758 10.2199 18.2285 10.3114 17.875 10.3125H13.75C13.2035 10.3109 12.6798 10.093 12.2934 9.7066C11.907 9.32016 11.6891 8.79651 11.6875 8.25V4.125C11.6886 3.77153 11.7801 3.42422 11.9534 3.11615C12.1267 2.80807 12.376 2.54948 12.6775 2.365C13.0002 2.16704 13.3714 2.06234 13.75 2.0625H17.875C18.4215 2.06413 18.9452 2.28195 19.3316 2.6684C19.718 3.05484 19.9359 3.57849 19.9375 4.125ZM10.3125 13.75V17.875C10.3127 18.2536 10.208 18.6248 10.01 18.9475C9.82552 19.249 9.56693 19.4983 9.25885 19.6716C8.95078 19.8449 8.60347 19.9364 8.25 19.9375H4.125C3.57849 19.9359 3.05484 19.718 2.6684 19.3316C2.28195 18.9452 2.06413 18.4215 2.0625 17.875V13.75C2.06358 13.3965 2.15513 13.0492 2.32843 12.7411C2.50172 12.4331 2.75099 12.1745 3.0525 11.99C3.3752 11.792 3.74642 11.6873 4.125 11.6875H8.25C8.79651 11.6891 9.32016 11.907 9.7066 12.2934C10.093 12.6798 10.3109 13.2035 10.3125 13.75Z" fill="#01B151"/>
<path d="M19.9375 13.75V17.875C19.9377 18.2536 19.833 18.6248 19.635 18.9475C19.4505 19.249 19.1919 19.4983 18.8839 19.6716C18.5758 19.8449 18.2285 19.9364 17.875 19.9375H13.75C13.2035 19.9359 12.6798 19.718 12.2934 19.3316C11.907 18.9452 11.6891 18.4215 11.6875 17.875V13.75C11.6886 13.3965 11.7801 13.0492 11.9534 12.7411C12.1267 12.4331 12.376 12.1745 12.6775 11.99C13.0002 11.792 13.3714 11.6873 13.75 11.6875H17.875C18.4215 11.6891 18.9452 11.907 19.3316 12.2934C19.718 12.6798 19.9359 13.2035 19.9375 13.75Z" fill="#FFBA63"/>
<path d="M10.3125 4.125V8.25C10.3127 8.62858 10.208 8.9998 10.01 9.3225C9.6873 9.52046 9.31608 9.62516 8.9375 9.625H4.8125C4.26599 9.62337 3.74234 9.40555 3.3559 9.0191C2.96945 8.63266 2.75163 8.10901 2.75 7.5625V3.4375C2.74984 3.05892 2.85454 2.6877 3.0525 2.365C3.3752 2.16704 3.74642 2.06234 4.125 2.0625H8.25C8.79651 2.06413 9.32016 2.28195 9.7066 2.6684C10.093 3.05484 10.3109 3.57849 10.3125 4.125ZM19.9375 4.125V8.25C19.9377 8.62858 19.833 8.9998 19.635 9.3225C19.3123 9.52046 18.9411 9.62516 18.5625 9.625H14.4375C13.891 9.62337 13.3673 9.40555 12.9809 9.0191C12.5945 8.63266 12.3766 8.10901 12.375 7.5625V3.4375C12.3748 3.05892 12.4795 2.6877 12.6775 2.365C13.0002 2.16704 13.3714 2.06234 13.75 2.0625H17.875C18.4215 2.06413 18.9452 2.28195 19.3316 2.6684C19.718 3.05484 19.9359 3.57849 19.9375 4.125ZM10.3125 13.75V17.875C10.3127 18.2536 10.208 18.6248 10.01 18.9475C9.6873 19.1455 9.31608 19.2502 8.9375 19.25H4.8125C4.26599 19.2484 3.74234 19.0305 3.3559 18.6441C2.96945 18.2577 2.75163 17.734 2.75 17.1875V13.0625C2.74984 12.6839 2.85454 12.3127 3.0525 11.99C3.3752 11.792 3.74642 11.6873 4.125 11.6875H8.25C8.79651 11.6891 9.32016 11.907 9.7066 12.2934C10.093 12.6798 10.3109 13.2035 10.3125 13.75Z" fill="#01B151"/>
<path d="M19.9375 13.75V17.875C19.9377 18.2536 19.833 18.6248 19.635 18.9475C19.3123 19.1455 18.9411 19.2502 18.5625 19.25H14.4375C13.891 19.2484 13.3673 19.0305 12.9809 18.6441C12.5945 18.2577 12.3766 17.734 12.375 17.1875V13.0625C12.3748 12.6839 12.4795 12.3127 12.6775 11.99C13.0002 11.792 13.3714 11.6873 13.75 11.6875H17.875C18.4215 11.6891 18.9452 11.907 19.3316 12.2934C19.718 12.6798 19.9359 13.2035 19.9375 13.75Z" fill="#FFBA63"/>
</svg>
