<svg width="316" height="342" viewBox="0 0 316 342" fill="none" xmlns="http://www.w3.org/2000/svg">
<path d="M171.16 26H167.8L160.192 14.504V26H156.832V9.224H160.192L167.8 20.744V9.224H171.16V26Z" fill="#1B1B2E"/>
<path d="M271.109 65.7299L270.208 64.829L272.079 55.7116L266.584 61.2058L265.684 60.3049L272.593 53.3951L273.494 54.2959L271.633 63.4035L277.118 57.9192L278.018 58.82L271.109 65.7299ZM279.712 61.999L277.406 64.3056L279.92 66.82L279.178 67.5625L276.663 65.048L274.288 67.4239L277.099 70.2354L276.357 70.9778L272.644 67.2655L279.554 60.3557L283.266 64.068L282.524 64.8104L279.712 61.999Z" fill="#A9A9A9"/>
<path d="M55.1813 67.6827L54.2804 68.5835L45.163 66.7125L50.6572 72.2068L49.7564 73.1076L42.8465 66.1978L43.7474 65.2969L52.8549 67.158L47.3706 61.6737L48.2715 60.7728L55.1813 67.6827ZM58.489 50.5751L63.3892 59.4748L62.3795 60.4845L55.2221 56.5346L59.1126 63.7514L58.1227 64.7611L49.2824 59.7817L50.2427 58.8214L57.598 63.1673L53.4105 55.6536L54.4203 54.6438L61.835 58.8907L57.5188 51.5453L58.489 50.5751Z" fill="#A9A9A9"/>
<path d="M273.363 272.877C273.818 272.422 274.307 272.092 274.828 271.887C275.349 271.696 275.854 271.64 276.343 271.719C276.838 271.805 277.276 272.032 277.659 272.402L276.699 273.362C276.343 273.072 275.937 272.93 275.481 272.937C275.026 272.956 274.574 273.191 274.125 273.64C273.696 274.068 273.465 274.511 273.432 274.966C273.399 275.435 273.551 275.837 273.888 276.174C274.152 276.438 274.439 276.58 274.749 276.599C275.059 276.619 275.366 276.563 275.669 276.431C275.973 276.299 276.359 276.098 276.828 275.827C277.402 275.491 277.887 275.243 278.283 275.085C278.672 274.933 279.091 274.884 279.54 274.936C279.989 275.002 280.428 275.25 280.857 275.679C281.233 276.055 281.471 276.484 281.57 276.966C281.669 277.448 281.626 277.939 281.441 278.441C281.249 278.949 280.929 279.427 280.481 279.876C279.834 280.523 279.144 280.889 278.412 280.975C277.672 281.067 277.009 280.873 276.422 280.391L277.412 279.401C277.709 279.632 278.078 279.724 278.521 279.678C278.969 279.639 279.395 279.418 279.798 279.015C280.174 278.639 280.382 278.233 280.421 277.797C280.467 277.368 280.316 276.979 279.966 276.629C279.715 276.378 279.441 276.243 279.144 276.223C278.841 276.21 278.544 276.263 278.253 276.382C277.963 276.514 277.577 276.715 277.095 276.986C276.514 277.316 276.023 277.556 275.62 277.708C275.224 277.867 274.798 277.916 274.343 277.857C273.894 277.804 273.452 277.56 273.016 277.124C272.68 276.788 272.452 276.382 272.333 275.907C272.215 275.431 272.238 274.926 272.403 274.392C272.568 273.857 272.888 273.352 273.363 272.877ZM275.076 283.637L272.77 281.331L270.255 283.845L269.513 283.103L272.027 280.588L269.651 278.212L266.84 281.024L266.097 280.281L269.81 276.569L276.72 283.479L273.007 287.191L272.265 286.449L275.076 283.637Z" fill="#A9A9A9"/>
<path d="M61.1566 281.154C61.612 281.609 61.942 282.098 62.1466 282.619C62.338 283.141 62.3941 283.645 62.3149 284.134C62.2291 284.629 62.0014 285.068 61.6318 285.45L60.6716 284.49C60.9619 284.134 61.1038 283.728 61.0972 283.273C61.0774 282.817 60.8431 282.365 60.3944 281.916C59.9654 281.487 59.5232 281.256 59.0678 281.223C58.5993 281.19 58.1967 281.342 57.8601 281.679C57.5961 281.943 57.4542 282.23 57.4344 282.54C57.4146 282.85 57.4707 283.157 57.6027 283.461C57.7347 283.764 57.936 284.15 58.2066 284.619C58.5432 285.193 58.7907 285.678 58.949 286.074C59.1008 286.463 59.1503 286.883 59.0975 287.331C59.0315 287.78 58.7841 288.219 58.3551 288.648C57.9789 289.024 57.5499 289.262 57.0681 289.361C56.5864 289.46 56.0947 289.417 55.5931 289.232C55.0849 289.041 54.6065 288.721 54.1577 288.272C53.5109 287.625 53.1446 286.935 53.0588 286.203C52.9664 285.464 53.1611 284.8 53.6429 284.213L54.6329 285.203C54.4019 285.5 54.3095 285.869 54.3557 286.312C54.3953 286.76 54.6164 287.186 55.0189 287.589C55.3951 287.965 55.801 288.173 56.2366 288.212C56.6656 288.259 57.0549 288.107 57.4047 287.757C57.6555 287.506 57.7908 287.232 57.8106 286.935C57.8238 286.632 57.771 286.335 57.6522 286.044C57.5202 285.754 57.3189 285.368 57.0483 284.886C56.7184 284.305 56.4775 283.814 56.3257 283.411C56.1673 283.015 56.1178 282.589 56.1772 282.134C56.23 281.685 56.4742 281.243 56.9097 280.808C57.2463 280.471 57.6522 280.243 58.1274 280.124C58.6026 280.006 59.1074 280.029 59.642 280.194C60.1766 280.359 60.6815 280.679 61.1566 281.154ZM41.8931 275.829L50.7927 270.929L51.8025 271.938L47.8526 279.096L55.0693 275.205L56.079 276.195L51.0996 285.035L50.1393 284.075L54.4852 276.72L46.9715 280.907L45.9618 279.898L50.2086 272.483L42.8632 276.799L41.8931 275.829Z" fill="#A9A9A9"/>
<path d="M164.628 332.168C163.46 332.168 162.404 331.968 161.46 331.568C160.532 331.168 159.796 330.592 159.252 329.84C158.708 329.088 158.428 328.2 158.412 327.176H162.012C162.06 327.864 162.3 328.408 162.732 328.808C163.18 329.208 163.788 329.408 164.556 329.408C165.34 329.408 165.956 329.224 166.404 328.856C166.852 328.472 167.076 327.976 167.076 327.368C167.076 326.872 166.924 326.464 166.62 326.144C166.316 325.824 165.932 325.576 165.468 325.4C165.02 325.208 164.396 325 163.596 324.776C162.508 324.456 161.62 324.144 160.932 323.84C160.26 323.52 159.676 323.048 159.18 322.424C158.7 321.784 158.46 320.936 158.46 319.88C158.46 318.888 158.708 318.024 159.204 317.288C159.7 316.552 160.396 315.992 161.292 315.608C162.188 315.208 163.212 315.008 164.364 315.008C166.092 315.008 167.492 315.432 168.564 316.28C169.652 317.112 170.252 318.28 170.364 319.784H166.668C166.636 319.208 166.388 318.736 165.924 318.368C165.476 317.984 164.876 317.792 164.124 317.792C163.468 317.792 162.94 317.96 162.54 318.296C162.156 318.632 161.964 319.12 161.964 319.76C161.964 320.208 162.108 320.584 162.396 320.888C162.7 321.176 163.068 321.416 163.5 321.608C163.948 321.784 164.572 321.992 165.372 322.232C166.46 322.552 167.348 322.872 168.036 323.192C168.724 323.512 169.316 323.992 169.812 324.632C170.308 325.272 170.556 326.112 170.556 327.152C170.556 328.048 170.324 328.88 169.859 329.648C169.396 330.416 168.716 331.032 167.82 331.496C166.924 331.944 165.86 332.168 164.628 332.168Z" fill="#1B1B2E"/>
<path d="M308.129 164.96V169.16H313.769V171.824H308.129V176.264H314.489V179H304.769V162.224H314.489V164.96H308.129Z" fill="#1B1B2E"/>
<path d="M24.255 162.248L19.575 179H15.615L12.471 167.072L9.18303 179L5.24703 179.024L0.735031 162.248H4.33503L7.28703 175.256L10.695 162.248H14.439L17.655 175.184L20.631 162.248H24.255Z" fill="#1B1B2E"/>
</svg>
