<svg width="32" height="32" viewBox="0 0 32 32" fill="none" xmlns="http://www.w3.org/2000/svg">
<g clip-path="url(#clip0_239_677)">
<path fill-rule="evenodd" clip-rule="evenodd" d="M6.20576 1.02176L11.5626 6.37856C11.7022 6.51878 11.7807 6.70864 11.7807 6.90656C11.7807 7.10448 11.7022 7.29434 11.5626 7.43456C10.6586 8.33824 9.39552 9.60096 8.69376 10.3315C8.4485 10.5787 8.2648 10.88 8.15752 11.2113C8.05023 11.5425 8.02236 11.8944 8.07616 12.2384C8.08032 12.2653 8.08576 12.2922 8.09312 12.3184C8.42848 13.5558 9.45184 16.1827 12.6186 19.3494C15.7776 22.5094 18.415 23.552 19.6576 23.9181C19.6877 23.927 19.7174 23.9338 19.7472 23.9389C20.0987 23.9969 20.4591 23.9703 20.7983 23.8612C21.1375 23.7521 21.4458 23.5637 21.6976 23.3117C21.6976 23.3123 24.5686 20.4406 24.5686 20.4406C24.7087 20.3007 24.8986 20.222 25.0966 20.2218C25.2944 20.2218 25.4848 20.3008 25.6246 20.4406L30.9814 25.7974C31.1211 25.9377 31.1995 26.1275 31.1995 26.3254C31.1995 26.5234 31.1211 26.7132 30.9814 26.8534C30.2022 27.6314 29.1178 28.7168 28.1616 29.6653L28.1594 29.6675C27.537 30.2895 26.7677 30.7443 25.9227 30.9896C25.0777 31.2349 24.1844 31.2628 23.3258 31.0707C19.984 30.28 14.591 28.2074 9.19328 22.8096C3.79552 17.4118 1.72288 12.0192 0.926081 8.6784C0.7339 7.81879 0.761991 6.92456 1.00775 6.07871C1.2535 5.23286 1.70896 4.4628 2.33184 3.84L5.14976 1.02208C5.28928 0.88256 5.47968 0.8032 5.67776 0.8032C5.87584 0.8032 6.06624 0.88224 6.20576 1.02176ZM16.1341 3.17216C23.1421 3.17216 28.831 8.86112 28.831 15.8688C28.8367 16.0631 28.9179 16.2475 29.0574 16.383C29.1968 16.5184 29.3835 16.5941 29.5779 16.5941C29.7723 16.5941 29.959 16.5184 30.0985 16.383C30.2379 16.2475 30.3191 16.0631 30.3248 15.8688C30.3248 8.03712 23.9658 1.6784 16.1341 1.6784C15.9398 1.68409 15.7553 1.76527 15.6199 1.90472C15.4845 2.04416 15.4087 2.2309 15.4087 2.42528C15.4087 2.61966 15.4845 2.8064 15.6199 2.94584C15.7553 3.08529 15.9398 3.16647 16.1341 3.17216Z" fill="#01B151"/>
<path fill-rule="evenodd" clip-rule="evenodd" d="M16.1341 7.65344C20.6685 7.65344 24.3498 11.3347 24.3498 15.8688C24.3554 16.0631 24.4366 16.2475 24.5761 16.383C24.7155 16.5184 24.9023 16.5941 25.0966 16.5941C25.291 16.5941 25.4778 16.5184 25.6172 16.383C25.7566 16.2475 25.8378 16.0631 25.8435 15.8688C25.8435 10.5101 21.4928 6.15968 16.1341 6.15968C15.9398 6.16537 15.7553 6.24655 15.6199 6.386C15.4845 6.52545 15.4087 6.71218 15.4087 6.90656C15.4087 7.10095 15.4845 7.28768 15.6199 7.42713C15.7553 7.56657 15.9398 7.64775 16.1341 7.65344Z" fill="#FFBA63"/>
<path fill-rule="evenodd" clip-rule="evenodd" d="M16.1341 12.1344C18.1955 12.1344 19.8685 13.8077 19.8685 15.8688C19.8742 16.0631 19.9554 16.2475 20.0948 16.383C20.2342 16.5184 20.421 16.5941 20.6154 16.5941C20.8097 16.5941 20.9965 16.5184 21.1359 16.383C21.2754 16.2475 21.3566 16.0631 21.3622 15.8688C21.3622 12.9837 19.0192 10.6406 16.1341 10.6406C15.9398 10.6463 15.7553 10.7275 15.6199 10.867C15.4845 11.0064 15.4087 11.1931 15.4087 11.3875C15.4087 11.5819 15.4845 11.7686 15.6199 11.9081C15.7553 12.0475 15.9398 12.1287 16.1341 12.1344Z" fill="#FFBA63"/>
</g>
<defs>
<clipPath id="clip0_239_677">
<rect width="32" height="32" fill="white"/>
</clipPath>
</defs>
</svg>
