<svg width="12" height="12" viewBox="0 0 12 12" fill="none" xmlns="http://www.w3.org/2000/svg">
<path d="M10.35 4.875H1.64999C1.63029 4.875 1.61078 4.87888 1.59259 4.88642C1.57439 4.89396 1.55785 4.905 1.54392 4.91893C1.52999 4.93286 1.51894 4.9494 1.51141 4.9676C1.50387 4.9858 1.49999 5.0053 1.49999 5.025V9C1.47092 9.20375 1.48968 9.41147 1.55478 9.60672C1.61988 9.80197 1.72954 9.97938 1.87507 10.1249C2.0206 10.2705 2.19802 10.3801 2.39327 10.4452C2.58851 10.5103 2.79624 10.5291 2.99999 10.5H8.99999C9.20374 10.5291 9.41146 10.5103 9.60671 10.4452C9.80196 10.3801 9.97937 10.2705 10.1249 10.1249C10.2704 9.97938 10.3801 9.80197 10.4452 9.60672C10.5103 9.41147 10.5291 9.20375 10.5 9V5.025C10.5 5.0053 10.4961 4.9858 10.4886 4.9676C10.481 4.9494 10.47 4.93286 10.4561 4.91893C10.4421 4.905 10.4256 4.89396 10.4074 4.88642C10.3892 4.87888 10.3697 4.875 10.35 4.875ZM7.69099 7.292L7.06049 7.892C7.03788 7.91343 7.02092 7.94012 7.01115 7.9697C7.00138 7.99928 6.99909 8.03082 7.00449 8.0615L7.14849 8.884C7.15437 8.92181 7.14966 8.96052 7.13487 8.99582C7.12008 9.03111 7.0958 9.06162 7.06472 9.08395C7.03363 9.10627 6.99697 9.11955 6.9588 9.12229C6.92063 9.12504 6.88245 9.11715 6.84849 9.0995L6.09249 8.7105C6.06444 8.69627 6.03344 8.68885 6.00199 8.68885C5.97054 8.68885 5.93953 8.69627 5.91149 8.7105L5.15599 9.0995C5.1219 9.11832 5.08322 9.1272 5.04434 9.12512C5.00546 9.12304 4.96794 9.11009 4.93606 9.08774C4.90417 9.06539 4.8792 9.03454 4.86399 8.99869C4.84877 8.96285 4.84392 8.92346 4.84999 8.885L4.99399 8.063C4.99939 8.03232 4.9971 8.00078 4.98733 7.9712C4.97755 7.94162 4.9606 7.91493 4.93799 7.8935L4.30749 7.2935C4.28147 7.26866 4.26304 7.23694 4.25434 7.20204C4.24564 7.16713 4.24702 7.13047 4.25833 7.09633C4.26965 7.06218 4.29042 7.03194 4.31824 7.00914C4.34606 6.98633 4.37979 6.97189 4.41549 6.9675L5.28699 6.8435C5.31803 6.83922 5.34759 6.82753 5.37318 6.80943C5.39876 6.79133 5.41962 6.76735 5.43399 6.7395L5.81149 5.9895C5.82922 5.9552 5.85604 5.92643 5.88902 5.90635C5.922 5.88627 5.95987 5.87565 5.99849 5.87565C6.0371 5.87565 6.07497 5.88627 6.10795 5.90635C6.14094 5.92643 6.16776 5.9552 6.18549 5.9895L6.56299 6.7395C6.57736 6.76735 6.59822 6.79133 6.6238 6.80943C6.64938 6.82753 6.67894 6.83922 6.70999 6.8435L7.58149 6.9675C7.61701 6.97188 7.65056 6.9862 7.6783 7.00881C7.70603 7.03143 7.72682 7.06142 7.73826 7.09532C7.7497 7.12923 7.75134 7.16568 7.74297 7.20048C7.73461 7.23527 7.71659 7.267 7.69099 7.292ZM10.5 3.75V3.975C10.5 4.01478 10.4842 4.05294 10.4561 4.08107C10.4279 4.1092 10.3898 4.125 10.35 4.125H1.64999C1.61021 4.125 1.57205 4.1092 1.54392 4.08107C1.51579 4.05294 1.49999 4.01478 1.49999 3.975V3.75C1.47092 3.54625 1.48968 3.33853 1.55478 3.14328C1.61988 2.94803 1.72954 2.77062 1.87507 2.62508C2.0206 2.47955 2.19802 2.36989 2.39327 2.30479C2.58851 2.23969 2.79624 2.22093 2.99999 2.25H3.62499V1.5C3.62499 1.40054 3.6645 1.30516 3.73482 1.23483C3.80515 1.16451 3.90053 1.125 3.99999 1.125C4.09944 1.125 4.19483 1.16451 4.26515 1.23483C4.33548 1.30516 4.37499 1.40054 4.37499 1.5V2.25H7.62499V1.5C7.62499 1.40054 7.6645 1.30516 7.73482 1.23483C7.80515 1.16451 7.90053 1.125 7.99999 1.125C8.09944 1.125 8.19483 1.16451 8.26515 1.23483C8.33548 1.30516 8.37499 1.40054 8.37499 1.5V2.25H8.99999C9.20374 2.22093 9.41146 2.23969 9.60671 2.30479C9.80196 2.36989 9.97937 2.47955 10.1249 2.62508C10.2704 2.77062 10.3801 2.94803 10.4452 3.14328C10.5103 3.33853 10.5291 3.54625 10.5 3.75Z" fill="#FFBA63"/>
</svg>
