<svg width="32" height="32" viewBox="0 0 32 32" fill="none" xmlns="http://www.w3.org/2000/svg">
<g clip-path="url(#clip0_239_911)">
<path d="M16.0006 17.7474C18.2739 17.7474 20.5472 16.8821 22.2778 15.1515C25.739 11.6903 25.739 6.05855 22.2778 2.59732C18.8166 -0.863902 13.1848 -0.863902 9.7236 2.59732C6.26238 6.05848 6.26238 11.6902 9.7236 15.1515C11.4541 16.8821 13.7274 17.7474 16.0006 17.7474ZM11.0494 3.9232C12.3719 2.6007 14.1303 1.87235 16.0006 1.87235C17.871 1.87235 19.6294 2.6007 20.9519 3.9232C23.6819 6.65333 23.6819 11.0955 20.9519 13.8256C18.2218 16.5557 13.7795 16.5557 11.0494 13.8256C8.31935 11.0955 8.31935 6.65333 11.0494 3.9232Z" fill="#838DAE"/>
<path d="M13.6583 12.5354C14.1762 12.8741 14.5839 13.0379 15.0346 13.1127V13.219C15.0346 13.7368 15.4544 14.1566 15.9722 14.1566C16.49 14.1566 16.9097 13.7368 16.9097 13.219V13.0049C17.9273 12.64 18.5771 11.722 18.7294 10.816C18.9436 9.54141 18.2537 8.39023 17.0125 7.95152C16.4007 7.73533 15.7264 7.47581 15.363 7.1908C15.3316 7.16617 15.2864 7.04861 15.3189 6.87616C15.3343 6.79422 15.4053 6.52064 15.6709 6.44058C16.2155 6.27657 16.5813 6.48858 16.7134 6.58734C17.128 6.89735 17.7156 6.81253 18.0257 6.39783C18.3357 5.98312 18.2509 5.39559 17.8362 5.08551C17.6995 4.98326 17.3857 4.77625 16.9383 4.63937V4.52968C16.9383 4.0119 16.5185 3.59213 16.0007 3.59213C15.483 3.59213 15.0632 4.0119 15.0632 4.52968V4.66793C14.2479 4.94095 13.6424 5.64698 13.4762 6.52883C13.3177 7.36987 13.5973 8.18885 14.2058 8.66612C14.781 9.11727 15.5943 9.43891 16.3875 9.71936C16.8749 9.89161 16.9245 10.2417 16.8802 10.505C16.8167 10.8825 16.4991 11.2904 15.9516 11.2941C15.3078 11.2981 15.156 11.2745 14.6847 10.9662C14.2514 10.6827 13.6704 10.8042 13.3869 11.2375C13.1035 11.6709 13.2251 12.2519 13.6583 12.5354ZM31.0798 19.3632C29.8543 18.1377 27.8611 18.1362 26.6337 19.3589L23.2654 22.6472C22.7393 21.7896 21.7936 21.216 20.7163 21.2145L15.9263 21.182L15.6568 20.9279C14.3672 19.7123 12.684 18.9671 10.917 18.8296C9.24943 18.6997 7.57229 19.1164 6.15998 20.0052H0.937544C0.41977 20.0052 0 20.425 0 20.9428V29.4677C0 29.9854 0.41977 30.4052 0.937544 30.4052H6.34542L14.1171 31.98C14.1784 31.9924 14.2408 31.9987 14.3033 31.9987H22.5064C22.755 31.9987 22.9935 31.8999 23.1693 31.724L31.0798 23.8135C32.3068 22.5865 32.3068 20.5902 31.0798 19.3632ZM1.87509 21.8803H5.50188V28.5301H1.87509V21.8803ZM29.754 22.4876L22.118 30.1236H14.3973L7.37697 28.701V21.4611C9.60807 20.1896 12.4782 20.5086 14.3706 22.2924L14.9084 22.7993C15.0808 22.9618 15.3083 23.053 15.5452 23.0546L20.7058 23.0895H20.7122C21.3287 23.0895 21.8303 23.5911 21.8303 24.2077V25.3258H14.3032C13.7855 25.3258 13.3657 25.7455 13.3657 26.2633C13.3657 26.7811 13.7855 27.2009 14.3032 27.2009H22.7677C23.2855 27.2009 23.7052 26.7811 23.7052 26.2633V24.8383L27.9473 20.6971L27.9553 20.6891C28.4512 20.1933 29.258 20.1933 29.7539 20.6891C30.2498 21.185 30.2498 21.9917 29.754 22.4876Z" fill="#838DAE"/>
</g>
<defs>
<clipPath id="clip0_239_911">
<rect width="32" height="32" fill="white"/>
</clipPath>
</defs>
</svg>
