<svg width="32" height="32" viewBox="0 0 32 32" fill="none" xmlns="http://www.w3.org/2000/svg">
<path d="M21.625 17.875C26.2849 17.875 30.0625 14.0974 30.0625 9.4375C30.0625 4.7776 26.2849 1 21.625 1C16.9651 1 13.1875 4.7776 13.1875 9.4375C13.1875 14.0974 16.9651 17.875 21.625 17.875Z" fill="#FFD480"/>
<path d="M30.0625 9.4375C30.0625 4.77756 26.2849 1 21.625 1V17.875C26.2849 17.875 30.0625 14.0974 30.0625 9.4375Z" fill="#FFD480"/>
<path d="M22.5625 8.5H20.6875C20.1702 8.5 19.75 8.07975 19.75 7.5625C19.75 7.04525 20.1702 6.625 20.6875 6.625H22.5625C23.0798 6.625 23.5 7.04525 23.5 7.5625H25.375C25.375 6.01163 24.1134 4.75 22.5625 4.75V2.875H20.6875V4.75C19.1366 4.75 17.875 6.01163 17.875 7.5625C17.875 9.11337 19.1366 10.375 20.6875 10.375H22.5625C23.0798 10.375 23.5 10.7952 23.5 11.3125C23.5 11.8298 23.0798 12.25 22.5625 12.25H20.6875C20.1702 12.25 19.75 11.8298 19.75 11.3125H17.875C17.875 12.8634 19.1366 14.125 20.6875 14.125V16H22.5625V14.125C24.1134 14.125 25.375 12.8634 25.375 11.3125C25.375 9.76163 24.1134 8.5 22.5625 8.5Z" fill="#FFBA63"/>
<path d="M22.5625 14.125C24.1134 14.125 25.375 12.8634 25.375 11.3125C25.375 9.76163 24.1134 8.5 22.5625 8.5H21.625V10.375H22.5625C23.0798 10.375 23.5 10.7952 23.5 11.3125C23.5 11.8298 23.0798 12.25 22.5625 12.25H21.625V16H22.5625V14.125ZM22.5625 6.625C23.0798 6.625 23.5 7.04525 23.5 7.5625H25.375C25.375 6.01163 24.1134 4.75 22.5625 4.75V2.875H21.625V6.625H22.5625Z" fill="#FFBA63"/>
<path d="M0 19.75V28.1875H3.75L4.6875 26.5882V20.6765L3.75 19.75H0Z" fill="#01B151"/>
<path d="M31.4976 23.0052C30.6465 21.5398 28.6742 21.1689 27.1927 21.9916L21.625 24.9958L20.9301 25.375H11.3125V23.5H20.6875V22.5625C20.6875 21.0092 19.4283 19.75 17.875 19.75H14.4811C13.7817 19.1686 11.9442 17.875 9.4375 17.875C8.64213 17.875 6.68325 17.9863 3.75 19.75V28.1875L18.0077 31L21.625 29.1518L32 23.8827C32 23.8827 31.5034 23.0151 31.4976 23.0052Z" fill="#FFDDCC"/>
<path d="M31.4976 23.0052C30.6465 21.5398 28.6743 21.1689 27.1927 21.9916L21.625 24.9958V29.1518L32 23.8828C32 23.8828 31.5034 23.0151 31.4976 23.0052Z" fill="#FFDDCC"/>
</svg>
