<svg width="24" height="24" viewBox="0 0 24 24" fill="none" xmlns="http://www.w3.org/2000/svg">
<path d="M23.1397 10.4024C22.7337 7.44571 21.1698 4.77136 18.792 2.9677C16.4142 1.16405 13.4173 0.378841 10.4606 0.784822C7.50382 1.1908 4.82946 2.75471 3.02581 5.13251C1.22215 7.51031 0.436947 10.5072 0.842927 13.4639C1.17611 15.9109 2.29999 18.1819 4.04337 19.931C5.78675 21.68 8.05407 22.8113 10.4999 23.1524C11.0013 23.2176 11.5064 23.2502 12.0119 23.2499C14.0516 23.2536 16.0531 22.6972 17.7982 21.6412C17.8876 21.5931 17.9664 21.5273 18.0296 21.4478C18.0929 21.3684 18.1394 21.2769 18.1662 21.1789C18.1931 21.081 18.1997 20.9786 18.1858 20.878C18.1719 20.7773 18.1377 20.6806 18.0853 20.5936C18.0329 20.5066 17.9633 20.4312 17.8809 20.3719C17.7984 20.3125 17.7048 20.2706 17.6056 20.2486C17.5064 20.2265 17.4039 20.2249 17.304 20.2437C17.2042 20.2625 17.1093 20.3013 17.0249 20.3579C15.0479 21.5464 12.7137 21.9958 10.4367 21.6264C8.15977 21.257 6.08737 20.0927 4.58748 18.3401C3.08759 16.5876 2.25725 14.3603 2.24388 12.0536C2.23051 9.74688 3.03498 7.51008 4.51446 5.74028C5.99394 3.97049 8.05271 2.78223 10.3252 2.38645C12.5978 1.99068 14.937 2.41301 16.9277 3.57846C18.9184 4.74391 20.4316 6.57708 21.1988 8.75249C21.9661 10.9279 21.9376 13.3048 21.1184 15.4612C20.9847 15.8134 20.7318 16.1076 20.4036 16.2927C20.0755 16.4779 19.6929 16.5422 19.3222 16.4745C18.9516 16.4069 18.6164 16.2115 18.3748 15.9224C18.1333 15.6333 18.0006 15.2687 17.9999 14.8919V6.74995C17.9999 6.55103 17.9209 6.36027 17.7803 6.21962C17.6396 6.07896 17.4488 5.99995 17.2499 5.99995C17.051 5.99995 16.8602 6.07896 16.7196 6.21962C16.5789 6.36027 16.4999 6.55103 16.4999 6.74995V8.04445C15.6883 7.12084 14.6125 6.46889 13.4182 6.17682C12.2238 5.88475 10.9685 5.96666 9.82228 6.41147C8.67601 6.85628 7.69407 7.64251 7.00936 8.66376C6.32464 9.68501 5.9702 10.892 5.99401 12.1213C6.01783 13.3506 6.41874 14.5429 7.14249 15.5369C7.86625 16.5309 8.8779 17.2785 10.0405 17.6786C11.2032 18.0786 12.4606 18.1119 13.6428 17.7738C14.8249 17.4357 15.8747 16.7425 16.6499 15.7882C16.836 16.4097 17.2122 16.9571 17.7257 17.3536C18.2392 17.75 18.8641 17.9754 19.5124 17.9981C20.1608 18.0208 20.7999 17.8396 21.3398 17.48C21.8798 17.1205 22.2934 16.6006 22.5224 15.9937C23.192 14.2108 23.4042 12.2885 23.1397 10.4024ZM11.9999 16.4999C11.1099 16.4999 10.2399 16.236 9.49986 15.7416C8.75984 15.2471 8.18306 14.5443 7.84247 13.722C7.50188 12.8998 7.41276 11.995 7.58639 11.122C7.76003 10.2491 8.18861 9.4473 8.81795 8.81797C9.44728 8.18863 10.2491 7.76005 11.122 7.58641C11.9949 7.41278 12.8997 7.5019 13.722 7.84249C14.5443 8.18308 15.2471 8.75986 15.7415 9.49988C16.236 10.2399 16.4999 11.1099 16.4999 11.9999C16.4987 13.1931 16.0242 14.337 15.1806 15.1806C14.3369 16.0243 13.193 16.4988 11.9999 16.4999Z" fill="#01B151"/>
</svg>
