<svg width="25" height="24" viewBox="0 0 25 24" fill="none" xmlns="http://www.w3.org/2000/svg">
<path d="M10.7787 12.9299C10.7222 12.9299 9.53656 12.9303 8.98972 12.9297C8.7082 12.9296 8.60776 12.8284 8.60776 12.5451C8.60731 11.8173 8.60731 11.0896 8.60776 10.3619C8.60794 10.0821 8.71414 9.9754 8.99206 9.97522C9.5389 9.97486 10.7181 9.97504 10.7787 9.97504V8.39068C10.7791 7.67536 10.9067 6.99064 11.2701 6.3637C11.6422 5.722 12.1836 5.28244 12.8775 5.02828C13.322 4.86538 13.7833 4.8004 14.2549 4.80004C14.8449 4.79968 15.435 4.80022 16.0252 4.8013C16.2788 4.80166 16.3913 4.9138 16.3919 5.16922C16.3929 5.85376 16.3929 6.5383 16.3919 7.22266C16.3915 7.48078 16.2837 7.58446 16.0243 7.58734C15.5406 7.59256 15.0566 7.58932 14.5735 7.60876C14.0855 7.60876 13.8288 7.84708 13.8288 8.35216C13.8171 8.8864 13.824 9.42118 13.824 9.97486C13.8697 9.97486 15.2584 9.97468 15.9075 9.97486C16.2023 9.97486 16.3031 10.0762 16.3031 10.3727C16.3031 11.0964 16.3029 11.8204 16.3024 12.5442C16.3022 12.8363 16.2075 12.9296 15.9109 12.9297C15.2618 12.9301 13.8785 12.9299 13.818 12.9299V18.788C13.818 19.1003 13.7198 19.1999 13.4116 19.1999H11.1575C10.8851 19.1999 10.7789 19.094 10.7789 18.8217L10.7787 12.9299Z" fill="#3D6AD6"/>
</svg>
