<svg width="32" height="32" viewBox="0 0 32 32" fill="none" xmlns="http://www.w3.org/2000/svg">
<path d="M24 29H8C5.243 29 3 26.757 3 24V8C3 5.243 5.243 3 8 3H24C26.757 3 29 5.243 29 8V24C29 26.757 26.757 29 24 29Z" fill="#2CB0FF"/>
<path d="M25.117 17.703C24.5553 17.1421 23.7939 16.827 23 16.827C22.2061 16.827 21.4447 17.1421 20.883 17.703L18.703 19.883C18.5164 20.0692 18.2636 20.1739 18 20.1739C17.7364 20.1739 17.4836 20.0692 17.297 19.883L13.117 15.703C12.5553 15.1421 11.7939 14.827 11 14.827C10.2061 14.827 9.44474 15.1421 8.883 15.703L3 21.586V24C3 26.757 5.243 29 8 29H24C26.757 29 29 26.757 29 24V21.586L25.117 17.703Z" fill="#01B151"/>
<path d="M20.5 14C22.1569 14 23.5 12.6569 23.5 11C23.5 9.34315 22.1569 8 20.5 8C18.8431 8 17.5 9.34315 17.5 11C17.5 12.6569 18.8431 14 20.5 14Z" fill="#FFBA63"/>
</svg>
