<svg width="32" height="32" viewBox="0 0 32 32" fill="none" xmlns="http://www.w3.org/2000/svg">
<g clip-path="url(#clip0_102_15526)">
<path d="M27.5862 7.72414V14.3448H4.47393C2.91807 14.3448 1.65517 12.8618 1.65517 11.0345C1.65517 9.20717 2.91807 7.72414 4.47393 7.72414H27.5862Z" fill="#F5EFCA"/>
<path d="M28.6897 14.8966C28.6888 15.1889 28.5722 15.4691 28.3655 15.6758C28.1588 15.8826 27.8786 15.9991 27.5862 16H4.96552C3.64858 16 2.38558 15.4769 1.45437 14.5456C0.523151 13.6144 0 12.3514 0 11.0345C0 9.71755 0.523151 8.45455 1.45437 7.52334C2.38558 6.59212 3.64858 6.06897 4.96552 6.06897H27.5862C27.8789 6.06897 28.1595 6.18523 28.3665 6.39216C28.5734 6.5991 28.6897 6.87977 28.6897 7.17242C28.6897 7.46507 28.5734 7.74574 28.3665 7.95267C28.1595 8.15961 27.8789 8.27587 27.5862 8.27587H4.96552C4.23389 8.27587 3.53222 8.56651 3.01488 9.08385C2.49754 9.60119 2.2069 10.3029 2.2069 11.0345C2.2069 11.7661 2.49754 12.4678 3.01488 12.9851C3.53222 13.5025 4.23389 13.7931 4.96552 13.7931H27.5862C27.8786 13.794 28.1588 13.9105 28.3655 14.1173C28.5722 14.324 28.6888 14.6042 28.6897 14.8966Z" fill="#FFBA63"/>
<path d="M30.8966 16H3.31035C2.70093 16 2.2069 16.494 2.2069 17.1034V22.6207C2.2069 23.2301 2.70093 23.7241 3.31035 23.7241H30.8966C31.506 23.7241 32 23.2301 32 22.6207V17.1034C32 16.494 31.506 16 30.8966 16Z" fill="#017435"/>
<path d="M28.6897 23.7241H1.10345C0.494031 23.7241 0 24.2182 0 24.8276V30.3448C0 30.9542 0.494031 31.4483 1.10345 31.4483H28.6897C29.2991 31.4483 29.7931 30.9542 29.7931 30.3448V24.8276C29.7931 24.2182 29.2991 23.7241 28.6897 23.7241Z" fill="#01B151"/>
<path d="M28.6897 0.551727H1.10345C0.494031 0.551727 0 1.04576 0 1.65518V4.96552C0 5.57494 0.494031 6.06897 1.10345 6.06897H28.6897C29.2991 6.06897 29.7931 5.57494 29.7931 4.96552V1.65518C29.7931 1.04576 29.2991 0.551727 28.6897 0.551727Z" fill="#01B151"/>
<path d="M4.41379 0.551727H6.62069V6.06897H4.41379V0.551727ZM23.1724 0.551727H25.3793V6.06897H23.1724V0.551727Z" fill="#F5EFCA"/>
<path d="M23.1724 18.2069H11.0345C10.7298 18.2069 10.4828 18.4539 10.4828 18.7586V20.9655C10.4828 21.2702 10.7298 21.5172 11.0345 21.5172H23.1724C23.4771 21.5172 23.7241 21.2702 23.7241 20.9655V18.7586C23.7241 18.4539 23.4771 18.2069 23.1724 18.2069Z" fill="#1B1B2E"/>
<path d="M26.4828 16H27.5862V23.7241H26.4828V16ZM6.62069 16H7.72414V23.7241H6.62069V16Z" fill="#1B1B2E"/>
<path d="M14.8966 29.2414C17.6389 29.2414 19.8621 28.5003 19.8621 27.5862C19.8621 26.6721 17.6389 25.931 14.8966 25.931C12.1542 25.931 9.93103 26.6721 9.93103 27.5862C9.93103 28.5003 12.1542 29.2414 14.8966 29.2414Z" fill="#F5EFCA"/>
<path d="M3.31034 23.7241H5.51724V31.4483H3.31034V23.7241ZM24.2759 23.7241H26.4828V31.4483H24.2759V23.7241Z" fill="#FFBA63"/>
</g>
<defs>
<clipPath id="clip0_102_15526">
<rect width="32" height="32" fill="white"/>
</clipPath>
</defs>
</svg>
