<svg width="32" height="32" viewBox="0 0 32 32" fill="none" xmlns="http://www.w3.org/2000/svg">
<path fill-rule="evenodd" clip-rule="evenodd" d="M14.1426 4.18799C13.3466 4.57466 12.3933 5.16532 11.04 6.00532L8.37329 7.65999C7.09196 8.45599 6.19196 9.01466 5.51996 9.52932C4.86796 10.0293 4.49329 10.4413 4.23596 10.9107C3.97863 11.3813 3.82796 11.932 3.74929 12.7747C3.66796 13.6387 3.66663 14.728 3.66663 16.272V18.3C3.66663 20.9267 3.66796 22.8013 3.85329 24.224C4.03463 25.6213 4.37729 26.432 4.94663 27.0227C5.51329 27.608 6.28396 27.956 7.61863 28.1413C8.98663 28.3307 10.7893 28.3333 13.3333 28.3333H18.6666C21.2106 28.3333 23.0133 28.3307 24.3813 28.1413C25.716 27.9547 26.4866 27.608 27.052 27.0213C27.6226 26.432 27.9653 25.6213 28.1453 24.224C28.332 22.8013 28.3333 20.928 28.3333 18.3V16.272C28.3333 14.728 28.3333 13.6387 28.2506 12.7747C28.172 11.932 28.0213 11.3813 27.764 10.9107C27.5066 10.4413 27.132 10.0293 26.4786 9.52932C25.808 9.01466 24.908 8.45599 23.6266 7.65999L20.96 6.00666C19.6066 5.16532 18.6533 4.57599 17.8586 4.18799C17.0826 3.81066 16.5333 3.66666 16 3.66666C15.4666 3.66666 14.9173 3.81066 14.1426 4.18799ZM13.2666 2.38932C14.196 1.93599 15.0533 1.66666 15.9986 1.66666C16.944 1.66666 17.8 1.93732 18.732 2.38932C19.6306 2.82666 20.6706 3.47199 21.968 4.27732L24.724 5.98799C25.9506 6.75066 26.936 7.36132 27.6933 7.94132C28.4786 8.54132 29.0813 9.15466 29.5173 9.95066C29.952 10.744 30.1466 11.5893 30.2413 12.588C30.332 13.5547 30.332 14.7387 30.332 16.2227V18.3733C30.332 20.912 30.332 22.916 30.128 24.4827C29.92 26.0893 29.48 27.3867 28.488 28.412C27.492 29.4427 26.224 29.904 24.6546 30.1213C23.1346 30.3333 21.1906 30.3333 18.7426 30.3333H13.256C10.808 30.3333 8.86529 30.3333 7.34396 30.1213C5.77329 29.904 4.50663 29.4427 3.50929 28.412C2.51863 27.3867 2.07863 26.0893 1.86929 24.4827C1.66663 22.916 1.66663 20.912 1.66663 18.3733V16.2227C1.66663 14.7387 1.66663 13.556 1.75729 12.588C1.85063 11.588 2.04663 10.744 2.48129 9.95066C2.91729 9.15466 3.52129 8.54266 4.30529 7.94132C5.06263 7.35999 6.04663 6.75066 7.27463 5.98799L10.0306 4.27732C11.328 3.47199 12.368 2.82666 13.268 2.38932H13.2666Z" fill="#838DAE"/>
<path fill-rule="evenodd" clip-rule="evenodd" d="M11 24C11 23.7348 11.1054 23.4804 11.2929 23.2929C11.4804 23.1054 11.7348 23 12 23H20C20.2652 23 20.5196 23.1054 20.7071 23.2929C20.8946 23.4804 21 23.7348 21 24C21 24.2652 20.8946 24.5196 20.7071 24.7071C20.5196 24.8946 20.2652 25 20 25H12C11.7348 25 11.4804 24.8946 11.2929 24.7071C11.1054 24.5196 11 24.2652 11 24Z" fill="#838DAE"/>
</svg>
