<svg width="32" height="32" viewBox="0 0 32 32" fill="none" xmlns="http://www.w3.org/2000/svg">
<g clip-path="url(#clip0_150_648)">
<path fill-rule="evenodd" clip-rule="evenodd" d="M4.91767 26.6286C4.91767 25.1694 6.02748 23.823 8.04435 22.8376C8.133 22.7929 8.22965 22.7662 8.3287 22.7591C8.42775 22.7519 8.52723 22.7646 8.62136 22.7962C8.71549 22.8279 8.8024 22.8779 8.87704 22.9434C8.95169 23.0089 9.01258 23.0885 9.0562 23.1778C9.09981 23.267 9.12527 23.364 9.1311 23.4631C9.13693 23.5622 9.12301 23.6615 9.09016 23.7553C9.0573 23.849 9.00617 23.9352 8.93971 24.009C8.87326 24.0828 8.79281 24.1427 8.70304 24.1851C7.2506 24.8951 6.4176 25.7856 6.4176 26.6289C6.4176 28.4591 10.3525 30.4989 16 30.4989C21.6475 30.4989 25.5824 28.4591 25.5824 26.6289C25.5824 25.7859 24.75 24.8954 23.297 24.1851C23.2081 24.1421 23.1286 24.082 23.063 24.0082C22.9974 23.9344 22.947 23.8483 22.9147 23.755C22.8825 23.6617 22.8689 23.5629 22.875 23.4643C22.881 23.3658 22.9064 23.2693 22.9497 23.1806C22.9931 23.0919 23.0536 23.0126 23.1276 22.9473C23.2017 22.882 23.288 22.832 23.3814 22.8001C23.4749 22.7683 23.5737 22.7551 23.6723 22.7616C23.7708 22.768 23.8671 22.7938 23.9557 22.8375C25.9725 23.8229 27.0824 25.1693 27.0824 26.6285C27.0824 28.1763 25.8507 29.5792 23.6125 30.5799C21.5667 31.4949 18.8631 31.9987 16 31.9987C13.1369 31.9987 10.433 31.4951 8.38748 30.5799C6.14923 29.5792 4.9176 28.1763 4.9176 26.6285L4.91767 26.6286ZM9.10735 4.34113C5.57754 7.87132 5.60379 13.5695 9.17129 18.1988L15.8092 26.8113C15.8317 26.8405 15.8606 26.8641 15.8936 26.8804C15.9267 26.8966 15.963 26.9051 15.9999 26.9051C16.0367 26.9051 16.073 26.8966 16.1061 26.8804C16.1391 26.8641 16.168 26.8405 16.1905 26.8113L22.8287 18.1988C26.3962 13.5695 26.4225 7.87132 22.8924 4.34119C21.0605 2.5206 18.5826 1.49875 15.9999 1.49875C13.4171 1.49875 10.9393 2.52054 9.10735 4.34113ZM14.6212 27.7269C14.7838 27.938 14.9927 28.1088 15.2317 28.2264C15.4708 28.344 15.7336 28.4051 16 28.4051C16.2664 28.4051 16.5292 28.344 16.7683 28.2264C17.0073 28.1088 17.2162 27.938 17.3788 27.7269L24.0167 19.1144C25.8838 16.6924 26.9517 13.8353 27.0249 11.0698C27.1051 8.06351 26.0424 5.37007 23.953 3.28038C21.8398 1.17857 18.9804 -0.00125122 15.9999 -0.00125122C13.0194 -0.00125122 10.1601 1.17857 8.04679 3.28038C5.9576 5.37001 4.89491 8.06326 4.97504 11.0697C5.04816 13.8354 6.11673 16.6924 7.98317 19.1144L14.6211 27.7269L14.6212 27.7269ZM16 8.03944C16.7655 8.03942 17.5138 8.26638 18.1502 8.69164C18.7867 9.11689 19.2828 9.72133 19.5757 10.4285C19.8687 11.1357 19.9453 11.9139 19.796 12.6646C19.6467 13.4154 19.2781 14.105 18.7368 14.6463C18.1955 15.1875 17.5059 15.5561 16.7552 15.7055C16.0044 15.8548 15.2262 15.7781 14.5191 15.4852C13.8119 15.1923 13.2074 14.6962 12.7822 14.0597C12.3569 13.4232 12.13 12.675 12.13 11.9095C12.1314 10.8835 12.5395 9.9 13.265 9.17456C13.9905 8.44912 14.9741 8.041 16 8.03969V8.03944ZM16 17.2798C14.9379 17.2798 13.8996 16.9648 13.0165 16.3746C12.1334 15.7845 11.4451 14.9458 11.0387 13.9645C10.6323 12.9832 10.526 11.9034 10.7332 10.8617C10.9404 9.81993 11.4519 8.86306 12.203 8.11203C12.9541 7.36101 13.911 6.84956 14.9527 6.64236C15.9944 6.43517 17.0742 6.54153 18.0555 6.94801C19.0368 7.35448 19.8755 8.04281 20.4656 8.92595C21.0556 9.80908 21.3706 10.8474 21.3706 11.9095C21.3691 13.3334 20.8029 14.6986 19.796 15.7055C18.7891 16.7123 17.424 17.2786 16 17.2801V17.2798Z" fill="#01B151"/>
</g>
<defs>
<clipPath id="clip0_150_648">
<rect width="32" height="32" fill="white"/>
</clipPath>
</defs>
</svg>
