<svg width="375" height="343" viewBox="0 0 375 343" fill="none" xmlns="http://www.w3.org/2000/svg">
<path d="M190.419 62.9254H189.848V80.0801H190.419V62.9254Z" fill="#07AE53"/>
<path d="M189.69 63.3037C191.73 63.8327 194 63.5952 195.95 62.3887C197.757 61.2786 199.035 59.5392 199.556 57.4851C199.562 57.4581 199.549 57.4368 199.549 57.4137C199.545 57.3789 199.543 57.3423 199.528 57.3133C199.516 57.2805 199.493 57.2554 199.468 57.2284C199.448 57.211 199.446 57.1839 199.423 57.1743C199.41 57.1685 199.394 57.1743 199.381 57.1685C199.369 57.1627 199.361 57.1492 199.348 57.1473C199.327 57.1395 199.304 57.1531 199.278 57.1588C199.244 57.1588 199.211 57.1588 199.178 57.1704C199.141 57.1839 199.114 57.209 199.089 57.238C199.07 57.2515 199.045 57.2573 199.033 57.2785C197.705 59.5218 194.964 60.7844 192.383 60.3539C189.989 59.9485 188.332 58.2573 187.846 55.711C187.479 53.7997 187.771 52.2302 188.705 51.0487C190.348 48.9734 193.469 48.7495 193.498 48.7495C193.524 48.7475 193.537 48.7282 193.556 48.7205C193.595 48.7089 193.632 48.6954 193.659 48.6684C193.684 48.651 193.697 48.622 193.715 48.5911C193.728 48.5738 193.751 48.5583 193.757 48.5371C193.763 48.5197 193.751 48.5101 193.751 48.4927C193.753 48.4753 193.765 48.4657 193.765 48.4483C193.765 48.4232 193.742 48.4097 193.734 48.3884C193.722 48.3556 193.713 48.3247 193.695 48.3016C193.67 48.2726 193.636 48.2533 193.599 48.2301C193.581 48.2243 193.574 48.2012 193.553 48.1973C189.259 47.151 185.05 49.6008 183.989 53.7804C183.761 54.6762 183.865 55.8731 183.95 56.7863C184.259 60.1608 186.73 62.5354 189.686 63.3018L189.69 63.3037Z" fill="#07AE53"/>
<path d="M294.278 220.339H80.825V224.507H294.278V220.339Z" fill="#07AE53"/>
<path d="M294.278 220.339H80.825V222.492H294.278V220.339Z" fill="#07AE53"/>
<path d="M294.278 216.171H80.825V220.339H294.278V216.171Z" fill="#07AE53"/>
<path d="M294.278 216.171H80.825V218.324H294.278V216.171Z" fill="#07AE53"/>
<path d="M294.131 255.861V224.507H80.8674V255.861H52.838V377.181H325.502V255.861H294.131Z" fill="#07AE53"/>
<path d="M272.956 197.503H107.868V211.036H272.956V197.503Z" fill="#07AE53"/>
<path d="M190.176 73.1958C190.176 73.1958 181.153 105.27 151.838 123.99C122.525 142.693 99.4084 154.062 115.196 197.505H265.141C280.929 154.062 257.816 142.693 228.503 123.99C199.188 105.272 190.176 73.1958 190.176 73.1958Z" fill="#07AE53"/>
<path d="M270.262 211.038H111.123V216.171H270.262V211.038Z" fill="#07AE53"/>
<path d="M272.955 197.503H107.868V199.37H272.955V197.503Z" fill="#07AE53"/>
<path d="M318.203 11.9962H317.778V24.728H318.203V11.9962Z" fill="#07AE53"/>
<path d="M317.661 12.2779C319.176 12.6698 320.862 12.4941 322.307 11.5984C323.649 10.776 324.597 9.48443 324.985 7.95931C324.989 7.94001 324.979 7.92263 324.979 7.90719C324.977 7.88016 324.975 7.85506 324.964 7.8319C324.956 7.80873 324.939 7.78942 324.92 7.76819C324.906 7.7566 324.904 7.73537 324.887 7.72765C324.875 7.72379 324.865 7.72765 324.856 7.72379C324.848 7.71993 324.84 7.71027 324.831 7.70834C324.815 7.70255 324.798 7.7122 324.779 7.71606C324.752 7.71606 324.728 7.71606 324.705 7.72379C324.678 7.73344 324.657 7.75274 324.64 7.77398C324.626 7.78363 324.607 7.78749 324.599 7.80487C323.613 9.47092 321.578 10.4072 319.665 10.0868C317.887 9.78559 316.657 8.53075 316.298 6.64076C316.026 5.22182 316.242 4.05771 316.935 3.17931C318.153 1.63875 320.472 1.47272 320.493 1.47272C320.512 1.47272 320.522 1.45728 320.535 1.45149C320.564 1.44377 320.591 1.43411 320.612 1.41288C320.63 1.40129 320.641 1.37813 320.653 1.35689C320.663 1.34531 320.68 1.33373 320.684 1.31635C320.69 1.30477 320.68 1.29705 320.68 1.28353C320.68 1.27195 320.69 1.2623 320.69 1.25071C320.69 1.23334 320.674 1.22175 320.667 1.20631C320.659 1.18314 320.651 1.15998 320.638 1.14067C320.618 1.11944 320.593 1.10399 320.566 1.08855C320.555 1.08469 320.547 1.06538 320.531 1.06345C317.344 0.287378 314.222 2.10401 313.433 5.2083C313.263 5.87241 313.342 6.76238 313.404 7.44C313.632 9.9439 315.468 11.7065 317.661 12.276V12.2779Z" fill="#07AE53"/>
<path d="M444.24 270.486H345.117V278.017H444.24V270.486Z" fill="#07AE53"/>
<path d="M394.82 201.323C394.82 201.323 400.237 219.169 417.84 229.584C435.441 239.99 449.319 246.316 439.84 270.486H349.81C340.329 246.316 354.208 239.99 371.808 229.584C389.409 219.169 394.82 201.323 394.82 201.323Z" fill="#07AE53"/>
<path d="M448.464 284.514H332.03V377.181H448.464V284.514Z" fill="#07AE53"/>
<path d="M454.13 278.015H332.03V284.514H454.13V278.015Z" fill="#07AE53"/>
<path d="M333.931 76.3018V245.2V377.181H301.751V245.2V76.3018H333.931Z" fill="#07AE53"/>
<path d="M335.32 74.0315H300.363V77.8057H335.32V74.0315Z" fill="#07AE53"/>
<path d="M331.103 70.2592H304.584V74.0315H331.103V70.2592Z" fill="#07AE53"/>
<path d="M331.103 58.6857H304.584V66.4869H331.103V58.6857Z" fill="#07AE53"/>
<path d="M335.32 66.4869H300.363V70.2592H335.32V66.4869Z" fill="#07AE53"/>
<path d="M337.462 118.776H299.024V136.961H337.462V118.776Z" fill="#07AE53"/>
<path d="M328.931 133.535H306.286V136.961H328.931V133.535Z" fill="#07AE53"/>
<path d="M301.846 140.832H333.947L336.706 136.961H298.773L301.846 140.832Z" fill="#07AE53"/>
<path d="M337.491 200.192H299.052V218.378H337.491V200.192Z" fill="#07AE53"/>
<path d="M328.96 214.951H306.315V218.378H328.96V214.951Z" fill="#07AE53"/>
<path d="M301.875 222.249H333.978L336.734 218.378H298.801L301.875 222.249Z" fill="#07AE53"/>
<path d="M335.885 54.7359H299.985V58.6838H335.885V54.7359Z" fill="#07AE53"/>
<path d="M317.985 18.4651C317.985 18.4651 319.947 27.8243 326.323 33.2858C332.698 38.7434 337.725 42.06 334.292 54.7359H301.684C298.249 42.06 303.277 38.7434 309.651 33.2858C316.026 27.8243 317.985 18.4651 317.985 18.4651Z" fill="#07AE53"/>
<path d="M322.92 179.962H313.628V181.238H322.92V179.962Z" fill="#07AE53"/>
<path d="M322.92 107.922H313.628V109.198H322.92V107.922Z" fill="#07AE53"/>
<path d="M57.3572 11.1852H56.9325V23.917H57.3572V11.1852Z" fill="#07AE53"/>
<path d="M56.8167 11.467C58.3322 11.8589 60.0176 11.6832 61.4635 10.7875C62.8052 9.96508 63.7531 8.67355 64.1412 7.14843C64.147 7.12912 64.1354 7.11175 64.1354 7.0963C64.1334 7.06928 64.1296 7.04418 64.1199 7.02101C64.1122 6.99785 64.0929 6.97854 64.0755 6.95731C64.0601 6.94572 64.0582 6.92449 64.0427 6.91677C64.0331 6.9129 64.0215 6.91677 64.0118 6.9129C64.0041 6.90904 63.9964 6.89939 63.9867 6.89746C63.9713 6.89167 63.9539 6.90132 63.9346 6.90518C63.9076 6.90518 63.8844 6.90518 63.8612 6.9129C63.8342 6.92256 63.813 6.94186 63.7956 6.9631C63.7821 6.97275 63.7628 6.97661 63.7551 6.99399C62.7686 8.66004 60.7338 9.59634 58.8187 9.27588C57.0426 8.97471 55.8129 7.71987 55.4518 5.82988C55.1796 4.41094 55.3958 3.24682 56.0908 2.36843C57.309 0.827867 59.6276 0.661842 59.6488 0.661842C59.6681 0.661842 59.6778 0.646397 59.6913 0.640606C59.7202 0.632884 59.7473 0.623232 59.7685 0.601996C59.7859 0.590412 59.7975 0.567246 59.809 0.54601C59.8187 0.534427 59.8361 0.522844 59.8399 0.505469C59.8438 0.493886 59.8361 0.486163 59.8361 0.47265C59.838 0.461066 59.8457 0.451414 59.8457 0.439831C59.8457 0.422456 59.8284 0.410873 59.8226 0.395429C59.8149 0.372262 59.8071 0.349096 59.7936 0.329791C59.7743 0.308555 59.7492 0.293111 59.7222 0.277666C59.7106 0.273805 59.7029 0.2545 59.6874 0.252569C56.502 -0.523505 53.3785 1.29313 52.5889 4.39742C52.419 5.06152 52.4981 5.9515 52.5599 6.62912C52.7877 9.13302 54.6236 10.8956 56.8167 11.4651V11.467Z" fill="#07AE53"/>
<path d="M30.0135 270.486H-69.1097V278.017H30.0135V270.486Z" fill="#07AE53"/>
<path d="M-19.69 201.323C-19.69 201.323 -25.1071 219.169 -42.7097 229.584C-60.3104 239.99 -74.189 246.316 -64.71 270.486H25.3203C34.8011 246.316 20.9225 239.99 3.32188 229.584C-14.2788 219.169 -19.692 201.323 -19.692 201.323H-19.69Z" fill="#07AE53"/>
<path d="M43.1004 284.514H-73.3339V377.181H43.1004V284.514Z" fill="#07AE53"/>
<path d="M43.1004 278.015H-79V284.514H43.1004V278.015Z" fill="#07AE53"/>
<path d="M41.1966 76.3017V245.2V377.181H73.3766V245.2V76.3017H41.1966Z" fill="#07AE53"/>
<path d="M74.7647 74.0313H39.8086V77.8055H74.7647V74.0313Z" fill="#07AE53"/>
<path d="M70.5484 70.2591H44.0287V74.0313H70.5484V70.2591Z" fill="#07AE53"/>
<path d="M70.5484 58.6855H44.0287V66.4868H70.5484V58.6855Z" fill="#07AE53"/>
<path d="M74.7647 66.4868H39.8086V70.2591H74.7647V66.4868Z" fill="#07AE53"/>
<path d="M76.1045 118.776H37.6656V136.961H76.1045V118.776Z" fill="#07AE53"/>
<path d="M73.284 140.832H41.1811L38.4224 136.961H76.3574L73.284 140.832Z" fill="#07AE53"/>
<path d="M76.0755 200.192H37.6367V218.377H76.0755V200.192Z" fill="#07AE53"/>
<path d="M68.8147 214.951H46.1696V218.378H68.8147V214.951Z" fill="#07AE53"/>
<path d="M73.2549 222.248H41.1521L38.3934 218.378H76.3283L73.2549 222.248Z" fill="#07AE53"/>
<path d="M75.145 54.7358H39.2448V58.6837H75.145V54.7358Z" fill="#07AE53"/>
<path d="M57.1447 18.465C57.1447 18.465 55.1833 27.8242 48.8067 33.2857C42.4321 38.7433 37.405 42.0599 40.8394 54.7358H73.448C76.8805 42.0599 71.8553 38.7433 65.4807 33.2857C59.1061 27.8242 57.1466 18.465 57.1466 18.465H57.1447Z" fill="#07AE53"/>
<path d="M61.502 179.962H52.2103V181.238H61.502V179.962Z" fill="#07AE53"/>
<path d="M61.502 107.922H52.2103V109.198H61.502V107.922Z" fill="#07AE53"/>
</svg>
