<svg width="24" height="24" viewBox="0 0 24 24" fill="none" xmlns="http://www.w3.org/2000/svg">
<path d="M9.00153 3.31731C9.03326 3.29944 9.025 3.28824 9.13646 3.34077C9.24793 3.39357 9.425 3.53091 9.59886 3.71917C9.9458 4.09891 10.2941 4.67411 10.4754 5.05384C10.481 5.06637 10.4879 5.07731 10.4946 5.08824C11.0061 5.96984 11.2263 6.64317 11.2333 7.06717C11.2405 7.49011 11.1277 7.67277 10.7682 7.87917L9.8386 8.4141C9.2338 8.7621 8.94846 9.38584 8.87753 9.96771C8.80606 10.5498 8.91246 11.1154 9.1714 11.5626L11.4621 15.5109C11.7226 15.957 12.1626 16.3314 12.7047 16.5613C13.2469 16.7914 13.9325 16.8565 14.537 16.5088L15.4677 15.9765C15.8271 15.7701 16.0415 15.7642 16.4066 15.9818C16.7727 16.1994 17.2477 16.7248 17.7591 17.6058C17.7663 17.6186 17.7733 17.6296 17.7815 17.6421C18.021 17.9872 18.3471 18.5749 18.5045 19.0642C18.5826 19.308 18.6133 19.5282 18.6034 19.6517C18.5925 19.7738 18.5898 19.76 18.5575 19.7792L17.8522 20.184C16.0789 20.9546 14.4543 20.7813 13.0013 20.0261C11.5439 19.2706 10.2773 17.9026 9.39566 16.2981C9.39246 16.2952 9.3914 16.2909 9.38846 16.2885L7.4578 12.9597C7.4562 12.9554 7.45353 12.9528 7.4522 12.9482C6.49646 11.3866 5.93646 9.61117 6.0058 7.9789C6.07566 6.34904 6.7402 4.86211 8.29913 3.71864L9.00153 3.31731ZM9.56713 2.43197C9.2618 2.28931 8.841 2.24744 8.49673 2.44584L7.75033 2.87544C7.73326 2.88504 7.71806 2.89491 7.70286 2.90451C5.90553 4.21971 5.0778 6.05037 4.99726 7.93784C4.91593 9.82424 5.54633 11.7712 6.58686 13.473L8.5082 16.7824C8.50926 16.7824 8.51086 16.7824 8.51086 16.7837L8.51353 16.7922C9.47486 18.5344 10.853 20.0458 12.5333 20.9189C14.2162 21.7922 16.2213 21.9946 18.265 21.1034C18.2831 21.0965 18.2999 21.0882 18.3165 21.0797L19.0634 20.6504C19.4077 20.452 19.5815 20.0712 19.6098 19.737C19.6389 19.4016 19.5709 19.0789 19.4677 18.7584C19.2655 18.125 18.9157 17.513 18.6245 17.0898C18.073 16.1448 17.5437 15.4866 16.9293 15.1208C16.6327 14.9426 16.2937 14.8472 15.9477 14.8445C15.6017 14.8418 15.2614 14.932 14.9621 15.1056L14.0314 15.6392C13.757 15.797 13.4375 15.7802 13.1018 15.6378C12.7647 15.4949 12.4543 15.2082 12.3373 15.0085L10.0466 11.0602C9.93086 10.8608 9.8378 10.449 9.881 10.0888C9.92526 9.7269 10.0701 9.44451 10.3445 9.28637L11.2725 8.75277C11.8786 8.40504 12.2562 7.76904 12.2447 7.05091C12.2322 6.33757 11.9245 5.54877 11.3738 4.59784C11.1509 4.13811 10.7946 3.53117 10.3471 3.04317C10.1202 2.79464 9.8722 2.57464 9.56713 2.43197Z" fill="#01B151"/>
</svg>
