<svg width="32" height="32" viewBox="0 0 32 32" fill="none" xmlns="http://www.w3.org/2000/svg">
<g clip-path="url(#clip0_102_15489)">
<path d="M16 32C24.8366 32 32 24.8366 32 16C32 7.16344 24.8366 0 16 0C7.16344 0 0 7.16344 0 16C0 24.8366 7.16344 32 16 32Z" fill="#01B151"/>
<path d="M4.91831 24.286C3.13175 21.9071 2.165 19.028 2.165 16C2.165 12.972 3.13181 10.0929 4.91831 7.714C7.51113 3.44006 12.0488 0.477 17.3038 0.053125C16.8701 0.0179254 16.4351 0.000202741 16 0C7.16344 0 0 7.16344 0 16C0 24.8366 7.16344 32 16 32C16.4391 32 16.8737 31.9816 17.3038 31.9469C12.0488 31.523 7.51113 28.5599 4.91831 24.286Z" fill="#01B151"/>
<path d="M16 28.96C23.1576 28.96 28.96 23.1576 28.96 16C28.96 8.84239 23.1576 3.04 16 3.04C8.84239 3.04 3.04 8.84239 3.04 16C3.04 23.1576 8.84239 28.96 16 28.96Z" fill="white"/>
<path d="M13.9506 3.26594C7.8095 4.25069 3.1025 9.58563 3.1025 16C3.1025 22.4144 7.8095 27.7493 13.9507 28.7341C8.55975 27.0119 4.65581 21.9622 4.65581 16C4.65581 10.0378 8.55975 4.98806 13.9506 3.26594Z" fill="#F3F0F3"/>
<path d="M22.363 12.337L16.0727 9.7795C16.0261 9.76056 15.9739 9.76056 15.9272 9.7795L9.637 12.337C9.60141 12.3515 9.57095 12.3762 9.54951 12.4081C9.52807 12.44 9.51662 12.4775 9.51662 12.5159V14.6018L16 12.0332L22.4834 14.6018V12.5159C22.4834 12.4775 22.4719 12.44 22.4505 12.4081C22.429 12.3762 22.3986 12.3515 22.363 12.337Z" fill="#433F43"/>
<path d="M16 13.5867L9.51662 16.2902V21.9879C9.51662 22.0133 9.52162 22.0384 9.53133 22.0619C9.54104 22.0853 9.55527 22.1066 9.57321 22.1245C9.59115 22.1425 9.61244 22.1567 9.63588 22.1664C9.65932 22.1761 9.68444 22.1811 9.70981 22.1811H22.2902C22.3156 22.1811 22.3407 22.1761 22.3642 22.1664C22.3876 22.1567 22.4089 22.1425 22.4269 22.1245C22.4448 22.1066 22.459 22.0853 22.4687 22.0619C22.4784 22.0384 22.4834 22.0133 22.4834 21.9879V16.2902L16 13.5867Z" fill="#433F43"/>
<path d="M9.51662 21.9879C9.51662 22.0133 9.52162 22.0384 9.53133 22.0619C9.54104 22.0853 9.55527 22.1066 9.57321 22.1245C9.59115 22.1425 9.61244 22.1567 9.63588 22.1664C9.65932 22.1761 9.68444 22.1811 9.70981 22.1811H16V13.6543L9.51662 16.2903V21.9879ZM16 9.76531C15.9753 9.76531 15.9506 9.77006 15.9272 9.77956L9.637 12.3371C9.60141 12.3515 9.57095 12.3763 9.54951 12.4082C9.52807 12.44 9.51662 12.4776 9.51662 12.516V14.6019L16 11.9658V9.76531Z" fill="#685E68"/>
<path d="M11.2747 11.6712L9.637 12.3371C9.60141 12.3515 9.57095 12.3763 9.54951 12.4082C9.52807 12.44 9.51662 12.4776 9.51662 12.516V14.6019L11.2747 13.8871V11.6712ZM11.2747 21.9879V15.5754L9.51662 16.2903V21.9879C9.51662 22.0133 9.52162 22.0384 9.53133 22.0619C9.54104 22.0853 9.55527 22.1066 9.57321 22.1245C9.59115 22.1425 9.61244 22.1567 9.63588 22.1664C9.65932 22.1761 9.68444 22.1811 9.70981 22.1811H11.4679C11.4425 22.1811 11.4174 22.1761 11.3939 22.1664C11.3705 22.1567 11.3492 22.1425 11.3313 22.1245C11.3133 22.1066 11.2991 22.0853 11.2894 22.0619C11.2797 22.0384 11.2747 22.0133 11.2747 21.9879Z" fill="#554E56"/>
<path d="M17.6013 14.2544V17.2036C17.6013 17.2397 17.6117 17.2751 17.6313 17.3054C17.6509 17.3357 17.6788 17.3597 17.7117 17.3746L18.826 17.8768C18.9501 17.9327 19.0906 17.8419 19.0906 17.7058V14.8754L17.6013 14.2544Z" fill="#FED402"/>
<path d="M16 11.9658L9.51662 14.6018V16.2902L16 13.6542L22.4834 16.2902V14.6018L16 11.9658Z" fill="#FAC600"/>
<path d="M9.51662 14.6018V16.2902L16 13.6542V11.9658L9.51662 14.6018Z" fill="#FED402"/>
<path d="M11.2747 13.8871L9.51662 14.6018V16.2902L11.2747 15.5754V13.8871Z" fill="#FAC600"/>
<path d="M15.8364 4.71912L13.2345 8.56406C13.1163 8.73875 13.3174 8.95225 13.4988 8.84468L16.0191 7.35062C16.0505 7.33196 16.0866 7.32241 16.1231 7.32303C16.1597 7.32365 16.1954 7.33441 16.2262 7.35412L18.4529 8.77837C18.6336 8.894 18.8432 8.679 18.7229 8.50125L16.1636 4.71912C16.0852 4.60337 15.9147 4.60337 15.8364 4.71912Z" fill="#FFBA63"/>
<path d="M16.8083 5.67181L16.1636 4.71912C16.0853 4.60337 15.9148 4.60337 15.8364 4.71912L13.2346 8.56406C13.1164 8.73875 13.3174 8.95225 13.4989 8.84468L15.4399 7.69393L16.8083 5.67181Z" fill="#FFBA63"/>
<path d="M16.4688 28.9506V27.1601C16.4688 26.9012 16.2589 26.6914 16 26.6914C15.8757 26.6914 15.7565 26.7408 15.6685 26.8287C15.5806 26.9166 15.5313 27.0358 15.5313 27.1601V28.9506C15.6869 28.9562 15.843 28.96 16 28.96C16.157 28.96 16.3131 28.9562 16.4688 28.9506ZM28.9506 15.5312H28.4588C28.1998 15.5312 27.99 15.7411 27.99 16C27.99 16.2589 28.1998 16.4688 28.4588 16.4688H28.9506C28.9562 16.3131 28.96 16.157 28.96 16C28.96 15.843 28.9562 15.6869 28.9506 15.5312ZM4.01 16C4.01 15.8757 3.96062 15.7565 3.87271 15.6685C3.7848 15.5806 3.66557 15.5312 3.54125 15.5312H3.04938C3.04381 15.6869 3.04 15.843 3.04 16C3.04 16.157 3.04381 16.3131 3.04938 16.4688H3.54125C3.66557 16.4688 3.7848 16.4194 3.87271 16.3315C3.96062 16.2435 4.01 16.1243 4.01 16ZM8.44006 23.5599C8.35215 23.4721 8.23293 23.4227 8.10863 23.4227C7.98432 23.4227 7.8651 23.4721 7.77719 23.5599L6.51538 24.8218C6.72838 25.0506 6.9495 25.2717 7.17831 25.4847L8.44013 24.2229C8.52802 24.135 8.57739 24.0157 8.57738 23.8914C8.57736 23.7671 8.52797 23.6478 8.44006 23.5599ZM23.5599 8.44006C23.6515 8.53156 23.7715 8.57731 23.8914 8.57731C24.0114 8.57731 24.1314 8.53156 24.2229 8.44006L25.4848 7.17825C25.2718 6.94942 25.0506 6.7283 24.8218 6.51531L23.56 7.77712C23.5165 7.82065 23.4819 7.87232 23.4584 7.92919C23.4348 7.98606 23.4227 8.04702 23.4227 8.10858C23.4227 8.17014 23.4348 8.2311 23.4583 8.28797C23.4819 8.34485 23.5164 8.39653 23.5599 8.44006ZM24.2229 23.5599C24.135 23.472 24.0157 23.4226 23.8914 23.4226C23.7671 23.4226 23.6479 23.472 23.5599 23.5599C23.472 23.6479 23.4226 23.7671 23.4226 23.8914C23.4226 24.0157 23.472 24.135 23.5599 24.2229L24.8218 25.4847C25.0506 25.2717 25.2717 25.0506 25.4847 24.8218L24.2229 23.5599ZM7.77713 8.44006C7.86863 8.53156 7.98863 8.57731 8.10856 8.57731C8.2285 8.57731 8.3485 8.53156 8.44 8.44006C8.48353 8.39653 8.51806 8.34486 8.54162 8.28798C8.56518 8.23111 8.57731 8.17015 8.57731 8.10859C8.57731 8.04703 8.56518 7.98608 8.54162 7.9292C8.51806 7.87233 8.48353 7.82065 8.44 7.77712L7.17819 6.51531C6.94937 6.72831 6.72825 6.94943 6.51525 7.17825L7.77713 8.44006Z" fill="#B5ADB6"/>
<path d="M18.7654 25.0321H13.2346C12.9757 25.0321 12.7658 24.8223 12.7658 24.5634C12.7658 24.3044 12.9757 24.0946 13.2346 24.0946H18.7654C19.0244 24.0946 19.2342 24.3044 19.2342 24.5634C19.2342 24.8223 19.0244 25.0321 18.7654 25.0321ZM5.45632 16.0927L6.94488 17.5281C7.02663 17.6069 7.163 17.5489 7.163 17.4354V14.5646C7.163 14.451 7.02663 14.3931 6.94488 14.4719L5.45632 15.9073C5.44385 15.9193 5.43394 15.9337 5.42716 15.9496C5.42039 15.9656 5.4169 15.9827 5.4169 16C5.4169 16.0173 5.42039 16.0344 5.42716 16.0504C5.43394 16.0663 5.44385 16.0807 5.45632 16.0927ZM26.5437 16.0927L25.0551 17.5281C24.9734 17.6069 24.837 17.549 24.837 17.4354V14.5646C24.837 14.451 24.9734 14.3931 25.0551 14.4719L26.5437 15.9073C26.5963 15.9579 26.5963 16.0421 26.5437 16.0927Z" fill="#FFBA63"/>
<path d="M16 29.835C12.3046 29.835 8.83025 28.3959 6.21719 25.7828C3.60413 23.1697 2.165 19.6954 2.165 16C2.165 12.3046 3.60406 8.83025 6.21719 6.21719C8.83031 3.60413 12.3046 2.165 16 2.165C19.6954 2.165 23.1698 3.60406 25.7828 6.21719C28.3959 8.83031 29.835 12.3046 29.835 16C29.835 19.6954 28.3959 23.1698 25.7828 25.7828C23.1697 28.3959 19.6954 29.835 16 29.835ZM16 3.1025C8.88825 3.1025 3.1025 8.88831 3.1025 16C3.1025 23.1117 8.88825 28.8975 16 28.8975C23.1117 28.8975 28.8975 23.1117 28.8975 16C28.8975 8.88831 23.1117 3.1025 16 3.1025Z" fill="#4FC123"/>
</g>
<defs>
<clipPath id="clip0_102_15489">
<rect width="32" height="32" fill="white"/>
</clipPath>
</defs>
</svg>
