<svg xmlns="http://www.w3.org/2000/svg" width="64" height="64" viewBox="0 0 64 64"><rect width="64" height="64" fill="none"/><path d="M2.451,4.377A2.449,2.449,0,0,1,.718.2a.64.64,0,0,1,.921.889L1.623,1.1A1.17,1.17,0,1,0,3.278,2.756a.64.64,0,0,1,.921.889l-.016.016a2.444,2.444,0,0,1-1.732.716Z" transform="translate(10.614 9.703)" fill="#ffba63"/><path d="M1.28,0V2.88A.64.64,0,1,1,0,2.88V0Z" transform="translate(12.16 13.44)" fill="#ffba63"/><path d="M6.4,0a4.48,4.48,0,0,1,4.48,4.48v3.2H1.92V4.48A4.48,4.48,0,0,1,6.4,0ZM1.28,12.8H11.52v9.6H1.28ZM0,28.8H12.8V40.96H0Z" transform="translate(6.4 16.64)" fill="#e6ebf4"/><path d="M14.6,23.6v1.946a1.283,1.283,0,0,1-.48,1L11.4,28.723h-1.28v12.16H1.194C.048,36.173-.458,25.811.515,16.563A64.658,64.658,0,0,1,4.534,0,4.476,4.476,0,0,1,8.2,4.4V7.6h1.28a1.284,1.284,0,0,1,1.28,1.28v1.389a1.284,1.284,0,0,1-.378.909L8.835,12.723v9.6h4.48A1.284,1.284,0,0,1,14.6,23.6Z" transform="translate(9.085 16.717)" fill="#f3f6fb"/><path d="M5.76,0V12.16H0V7.68A1.284,1.284,0,0,1,1.28,6.4h.64V3.84A1.284,1.284,0,0,1,3.2,2.56h.493A19.985,19.985,0,0,1,3.648,0Z" transform="translate(13.44 45.44)" fill="#f0e3e7"/><path d="M16.265,3.575,14.72,5.12H4.48L2.935,3.575a1.28,1.28,0,0,1-.375-.9V1.28A1.28,1.28,0,0,1,3.84,0H15.36a1.28,1.28,0,0,1,1.28,1.28V2.67a1.28,1.28,0,0,1-.375.9Zm3.84,11.52A1.28,1.28,0,0,1,20.48,16v1.945a1.28,1.28,0,0,1-.481,1L17.28,21.12H3.2L.481,18.944a1.28,1.28,0,0,1-.481-1V16a1.28,1.28,0,0,1,1.28-1.28H19.2A1.28,1.28,0,0,1,20.105,15.095Z" transform="translate(3.2 24.32)" fill="#f3f8fb"/><path d="M20.16,0a1.227,1.227,0,0,1-.32.384L17.12,2.56H3.04L.32.384A1.227,1.227,0,0,1,0,0Z" transform="translate(3.36 42.88)" fill="#f0e3e7"/><path d="M2.185.375a1.28,1.28,0,0,1,.375.905V3.2H0V1.28A1.28,1.28,0,0,1,2.185.375Z" transform="translate(11.52 35.84)" fill="#01b151"/><path d="M3.2,0H40.32A1.28,1.28,0,0,1,41.6,1.28V3.84H1.92V1.28A1.28,1.28,0,0,1,3.2,0ZM1.28,3.84H42.24a1.28,1.28,0,0,1,1.28,1.28V9.6H0V5.12A1.28,1.28,0,0,1,1.28,3.84Z" transform="translate(14.72 48)" fill="#f3f6fb"/><path d="M0,5.76s3.221-.64,8.32-1.28c5.12-.64,9.6-1.92,8.017-4.48H17.92A1.28,1.28,0,0,1,19.2,1.28V5.76Z" transform="translate(39.04 51.84)" fill="#f0e3e7"/><path d="M1.92,0A1.92,1.92,0,0,1,3.84,1.92V3.84H0V1.92A1.92,1.92,0,0,1,1.92,0Z" transform="translate(34.24 53.76)" fill="#01b151"/><path d="M13.85,0a1.287,1.287,0,0,1-.262.378L12.045,1.92H1.8L.262.378A1.287,1.287,0,0,1,0,0Z" transform="translate(5.875 27.52)" fill="#f0e3e7"/><path d="M34.605,26.772H.045S-1.235,13.2,9.8,6.6C15.264,3.334,17.325,0,17.325,0s2.061,3.334,7.524,6.6c11.036,6.6,9.756,20.172,9.756,20.172Z" transform="translate(19.155 21.228)" fill="#01b151"/><path d="M25.967,24.672H.873C-2.532,14.5,4.732,5.312,10.428,0a28.022,28.022,0,0,0,5.786,4.5c11.034,6.6,9.754,20.173,9.754,20.173Z" transform="translate(27.793 23.328)" fill="#01b151"/><path d="M0,12.8A25.918,25.918,0,0,0,1.728,7.756c.05-.785-.576-2.319-.517-3.1A26.172,26.172,0,0,1,2.76,0,26.3,26.3,0,0,1,4.312,4.653c.064.784-.567,2.318-.517,3.1A25.866,25.866,0,0,0,5.523,12.8Z" transform="translate(33.72 11.52)" fill="#ffba63"/><path d="M1.722,7.757c.051-.787-.576-2.317-.512-3.1A26.332,26.332,0,0,1,2.758,0S3,.576,3.3,1.344A16.608,16.608,0,0,0,2.285,4.653c-.058.787.57,2.317.518,3.1A25.726,25.726,0,0,1,1.075,12.8H0A25.811,25.811,0,0,0,1.722,7.757Z" transform="translate(33.722 11.52)" fill="#ffba63"/><path d="M0,3.84s11.9-.11,12.8-1.92A1.4,1.4,0,0,0,12.16,0h4.48a1.28,1.28,0,0,1,1.28,1.28V3.84Z" transform="translate(38.4 48)" fill="#f0e3e7"/></svg>