<svg xmlns="http://www.w3.org/2000/svg" width="64" height="64" viewBox="0 0 64 64"><rect width="64" height="64" fill="none"/><path d="M0,1.086,2.8,0,2.382,3.67,1.273,5.31,0,4.532Z" transform="translate(59.417 15.348)" fill="#01b151"/><path d="M59.269,8.137l-19,38.385-35.6.231a14.673,14.673,0,0,1-3.547-3.627,5.342,5.342,0,0,1-.692-5.287C2.551,33.282,51.567.006,51.567.006A6.683,6.683,0,0,1,56.5,1.892a10.3,10.3,0,0,1,2.77,6.245Z" transform="translate(1.421 12.521)" fill="#fcf4f6"/><path d="M56.5,1.892,36.123,40.228l-35,2.9a5.342,5.342,0,0,1-.692-5.287C2.551,33.282,51.567.006,51.567.006A6.683,6.683,0,0,1,56.5,1.892Z" transform="translate(1.421 12.521)" fill="#f0e3e7"/><path d="M64,14.654,43.376,57.076,6.515,56.47C.1,53.382,0,46.338,0,46.338L25.825,7.681,55.709,0l2.109,3.28L50.951,16.248,35.393,45.623,2.022,48.3c.454,4.525,4.931,6.449,4.931,6.449l33.882-.979L62.219,11.886Z" transform="translate(0 3.462)" fill="#01b151"/><path d="M64,14.654,43.376,57.076,6.515,56.47C.1,53.382,0,46.338,0,46.338L33.108,42.07,55.709,0l2.109,3.28L50.951,16.248,35.393,45.623,2.022,48.3c.454,4.525,4.931,6.449,4.931,6.449l33.882-.979L62.219,11.886Z" transform="translate(0 3.462)" fill="#01b151"/><path d="M30.615,5.481,22.148,21.527a13.582,13.582,0,0,0-8.656,7.32L3.26,30.472C3.7,28.318,1.788,27,0,26.251L13.207,6.52c3.758-.655,5.6-2.6,6.484-4.493h0L27.891,0a4.556,4.556,0,0,0,2.724,5.481Z" transform="translate(12.33 13.381)" fill="#ffba63"/><path d="M6.513,13.633s-2.525,5.462-5.294,4.354c-2.507-1-.369-5.939-.369-5.939s-3.3-5.324,4.02-6.932c0,0,3.088-5.126,6.16-5.116,3.4.012.31,6.034.31,6.034s3.862,5.973-4.826,7.6Z" transform="translate(22.123 20.089)" fill="#01b151"/></svg>