<svg width="32" height="32" viewBox="0 0 32 32" fill="none" xmlns="http://www.w3.org/2000/svg">
<g clip-path="url(#clip0_102_15541)">
<path d="M29.7085 9.94002L30.345 10.3291L30.8993 9.50895L31.1099 7.67398L29.7085 8.21686V9.94002Z" fill="#01B151"/>
<path d="M30.3448 10.3288L20.8471 29.5214L3.04633 29.6371C3.04633 29.6371 1.96378 28.8945 1.27273 27.8238C0.77952 27.0603 0.485545 26.1289 0.926507 25.1801C1.98607 22.9014 26.4939 6.26333 26.4939 6.26333C26.9475 6.24481 27.4 6.31889 27.824 6.48106C28.248 6.64323 28.6345 6.89008 28.9599 7.20655C29.5778 7.80147 30.1275 8.76629 30.3448 10.3288Z" fill="#FCF4F6"/>
<path d="M28.9599 7.20655L18.7719 26.3748L1.27273 27.8238C0.77952 27.0603 0.485545 26.1289 0.926507 25.1801C1.98607 22.9014 26.4939 6.26333 26.4939 6.26333C26.9475 6.24481 27.4 6.31889 27.824 6.48106C28.248 6.64323 28.6345 6.89008 28.9599 7.20655Z" fill="#F0E3E7"/>
<path d="M32 9.05817L21.6879 30.2689L3.2574 29.9659C0.0501566 28.4222 0 24.9 0 24.9L12.9126 5.57158L27.8544 1.73111L28.9091 3.37096L25.4754 9.85511L17.6963 24.5427L1.0108 25.8788C1.2379 28.1414 3.47614 29.1035 3.47614 29.1035L20.4173 28.6137L31.1097 7.67399L32 9.05817Z" fill="#01B151"/>
<path d="M32 9.05817L21.6879 30.2689L3.2574 29.9659C0.0501566 28.4222 0 24.9 0 24.9L16.5538 22.7663L27.8544 1.73111L28.9091 3.37096L25.4754 9.85511L17.6963 24.5427L1.0108 25.8788C1.2379 28.1414 3.47614 29.1035 3.47614 29.1035L20.4173 28.6137L31.1097 7.67399L32 9.05817Z" fill="#01B151"/>
<path d="M21.4727 9.43086L17.2393 17.4538C15.8885 17.8426 14.0376 18.7928 12.9112 21.1139L7.79519 21.9262C8.01463 20.8492 7.05887 20.1902 6.1651 19.8161L12.7684 9.95054C14.6472 9.62313 15.566 8.65274 16.0105 7.70394H16.0111L20.1108 6.69035C19.9018 7.62731 20.0613 8.721 21.4727 9.43086Z" fill="#FFBA63"/>
<path d="M14.318 16.861C14.318 16.861 13.0553 19.5917 11.6708 19.0378C10.4176 18.5363 11.4864 16.0682 11.4864 16.0682C11.4864 16.0682 9.83782 13.4064 13.4961 12.6022C13.4961 12.6022 15.0403 10.0392 16.576 10.0444C18.2778 10.0502 16.7308 13.0616 16.7308 13.0616C16.7308 13.0616 18.6621 16.048 14.318 16.861Z" fill="#F5EFCA"/>
</g>
<defs>
<clipPath id="clip0_102_15541">
<rect width="32" height="32" fill="white"/>
</clipPath>
</defs>
</svg>
