<svg xmlns="http://www.w3.org/2000/svg" width="48" height="48" viewBox="0 0 48 48"><rect width="48" height="48" fill="none"/><path d="M33.938,43.313v1.875H5.625A5.629,5.629,0,0,1,0,39.563V5.625A5.629,5.629,0,0,1,5.625,0H33.938V35.813a3.75,3.75,0,0,0,0,7.5Z" transform="translate(7.031 0.469)" fill="#01b151"/><path d="M5.625,0V45.188A5.629,5.629,0,0,1,0,39.563V5.625A5.629,5.629,0,0,1,5.625,0Z" transform="translate(7.031 0.469)" fill="#47b85c"/><path d="M33.938,9.375V11.25H5.625A5.625,5.625,0,0,1,5.625,0H33.938V1.875a3.75,3.75,0,0,0,0,7.5Z" transform="translate(7.031 34.406)" fill="#2b6e38"/><path d="M32.063,7.5H3.75a3.75,3.75,0,0,1,0-7.5H32.063a3.75,3.75,0,0,0,0,7.5Z" transform="translate(8.906 36.281)" fill="#ffcb5d"/><path d="M3.722,7.5,1.856,5.625,0,7.5V0H3.722Z" transform="translate(12.656 40.031)" fill="#e86b4d"/><path d="M0,0H24.563V30.188H0Z" transform="translate(14.531 2.344)" fill="#ffcb5d"/><path d="M20.813,12.188V18c0,3.8-4.453,4.725-4.453,4.725,0,5.719-5.953,7.462-5.953,7.462s-5.953-1.744-5.953-7.462C4.453,22.725,0,21.788,0,18V12.188c0-3.8,4.453-4.725,4.453-4.725C4.453,1.744,10.406,0,10.406,0s5.953,1.744,5.953,7.463c0,0,4.453.928,4.453,4.725Z" transform="translate(16.406 2.344)" fill="#01b151"/><path d="M7.481,19.2l1.425,1.425L7.031,22.5,5.156,20.625,6.581,19.2C2.906,18.938,0,15.478,0,11.25S2.906,3.563,6.581,3.3L5.156,1.875,7.031,0,8.906,1.875,7.481,3.3c3.675.263,6.581,3.722,6.581,7.95S11.156,18.938,7.481,19.2Z" transform="translate(19.781 6.188)" fill="#ffcb5d"/><path d="M7.5,3.75A3.75,3.75,0,1,1,3.75,0,3.75,3.75,0,0,1,7.5,3.75Z" transform="translate(23.063 13.688)" fill="#ffba63"/><path d="M0,0H20.719V.938H0Z" transform="translate(12.656 39.563)" fill="#ffba63"/></svg>