<svg width="33" height="32" viewBox="0 0 33 32" fill="none" xmlns="http://www.w3.org/2000/svg">
<g clip-path="url(#clip0_239_943)">
<path d="M24.061 13.9504C24.8301 13.435 25.3816 12.6661 25.6247 11.7586C25.8905 10.7668 25.7557 9.7335 25.2452 8.84919C24.7346 7.96488 23.9072 7.3315 22.9153 7.06569C22.0079 6.82256 21.0662 6.91569 20.2353 7.32406L18.0943 3.61575C17.6385 2.82631 16.8199 2.36619 15.911 2.38169C14.9997 2.39838 14.201 2.88919 13.7743 3.69463C13.4747 4.2605 13.1932 4.84831 12.8953 5.47069C11.681 8.00725 10.3047 10.8823 7.32922 12.6001L3.50591 14.8075C2.18984 15.5673 1.24716 16.7991 0.851407 18.2759C0.45572 19.7527 0.65622 21.2908 1.41603 22.6068C2.47234 24.4364 4.39547 25.4604 6.37028 25.4604C7.10465 25.4606 7.83206 25.3182 8.51209 25.0409L11.1849 29.6704C11.7379 30.6282 12.7444 31.1641 13.7782 31.1641C14.3011 31.1643 14.8149 31.0263 15.2675 30.7643C15.9567 30.3664 16.4503 29.7217 16.6573 28.9489C16.8643 28.1762 16.7593 27.3711 16.3613 26.6818L13.7313 22.1265C16.5003 20.8101 19.4067 21.0335 21.9944 21.2335C22.683 21.2868 23.3333 21.337 23.9737 21.3604C24.8833 21.393 25.709 20.9474 26.179 20.1664C26.6491 19.3855 26.6577 18.4481 26.2019 17.6586L24.0609 13.9503L24.061 13.9504ZM22.5109 8.57494C23.0997 8.73269 23.5902 9.1075 23.892 9.63044C24.4748 10.6399 24.1924 11.9149 23.277 12.5925L21.0193 8.68206C21.4867 8.47913 22.0073 8.43994 22.511 8.57494H22.5109ZM6.36772 23.8984C4.93347 23.8983 3.53647 23.1545 2.76928 21.8256C2.21816 20.8711 2.07303 19.754 2.36078 18.6803C2.64847 17.6066 3.33266 16.7118 4.28722 16.1607L7.43428 14.3438L11.5852 21.5244L8.43428 23.3436C7.78278 23.7198 7.07091 23.8984 6.36772 23.8984ZM15.1482 28.5446C15.0492 28.9143 14.814 29.222 14.4863 29.4113C13.8053 29.8044 12.9313 29.5703 12.5381 28.8893L9.89203 24.3061L12.3622 22.88L15.0082 27.4631C15.1975 27.7909 15.2472 28.175 15.1481 28.5446H15.1482ZM24.8404 19.3608C24.6627 19.656 24.3762 19.8124 24.0308 19.7991C23.4222 19.7768 22.7872 19.7277 22.1149 19.6758C19.291 19.4576 16.1159 19.2129 12.9518 20.7664L8.77403 13.5393C11.705 11.5738 13.0813 8.70088 14.3047 6.14544C14.5955 5.53775 14.8703 4.96375 15.1551 4.426C15.3164 4.12144 15.595 3.95025 15.9396 3.944L15.9591 3.94381C16.2948 3.94381 16.5721 4.10425 16.7412 4.39706L24.8489 18.4401C25.0212 18.7386 25.0183 19.0656 24.8405 19.3608L24.8404 19.3608ZM22.811 4.02106L24.4243 1.22656C24.6401 0.852877 25.1178 0.724814 25.4915 0.940627C25.8652 1.15638 25.9932 1.63419 25.7775 2.00781L24.1641 4.80231C24.1128 4.89119 24.0445 4.96909 23.9632 5.03157C23.8818 5.09404 23.7889 5.13987 23.6898 5.16642C23.5906 5.19298 23.4873 5.19974 23.3856 5.18633C23.2838 5.17292 23.1857 5.13959 23.0969 5.08825C22.7232 4.8725 22.5952 4.39469 22.811 4.02106ZM30.0643 6.96894L27.2022 8.62144C27.1133 8.67277 27.0152 8.70609 26.9135 8.7195C26.8118 8.7329 26.7084 8.72614 26.6093 8.69959C26.5102 8.67303 26.4173 8.62721 26.3359 8.56474C26.2545 8.50227 26.1862 8.42437 26.135 8.3355C25.9192 7.96181 26.0473 7.484 26.4209 7.26831L29.283 5.61581C29.6566 5.4 30.1345 5.52813 30.3502 5.90175C30.566 6.27538 30.4379 6.75325 30.0643 6.96894ZM32.2174 12.5901C32.2174 13.0215 31.8676 13.3713 31.4362 13.3713H28.2093C27.7778 13.3713 27.428 13.0216 27.428 12.5901C27.428 12.1586 27.7778 11.8088 28.2093 11.8088H31.4362C31.8676 11.8088 32.2174 12.1586 32.2174 12.5901Z" fill="#838DAE"/>
</g>
<defs>
<clipPath id="clip0_239_943">
<rect width="32" height="32" fill="white" transform="translate(0.435303)"/>
</clipPath>
</defs>
</svg>
