<svg xmlns="http://www.w3.org/2000/svg" xmlns:xlink="http://www.w3.org/1999/xlink" width="48" height="48" viewBox="0 0 48 48"><defs><clipPath id="a"><rect width="48" height="48" fill="none"/></clipPath></defs><g clip-path="url(#a)"><rect width="48" height="48" fill="none"/><path d="M20.342,24.442l-.256,5.652H9.733a10.251,10.251,0,0,0-.642-4.036,10.252,10.252,0,0,0-2.168-3.464,30.371,30.371,0,0,1-6.6-9.423A4.685,4.685,0,0,1,0,11.376V1.811A1.854,1.854,0,0,1,1.473.017,1.738,1.738,0,0,1,3.426,1.449l1.357,8.868A12.178,12.178,0,0,0,9.669,16.3c.577.4,1.218.833,1.955.364a1.2,1.2,0,0,0-.106-1.582L8.494,12.688A2.579,2.579,0,0,1,7.425,9.774a1.114,1.114,0,0,1,1.732-.643l6.089,4.349a7.964,7.964,0,0,1,2.693,2.447,13.438,13.438,0,0,1,2.4,8.515Z" transform="translate(0.981 12.149)" fill="#fed19a"/><path d="M.741,0H12.3a.741.741,0,0,1,.741.741V5.246a.741.741,0,0,1-.741.741H.741A.741.741,0,0,1,0,5.246V.741A.741.741,0,0,1,.741,0Z" transform="translate(9.092 41.931)" fill="#01b151"/><path d="M1.822.911A.911.911,0,1,1,.911,0,.911.911,0,0,1,1.822.911Z" transform="translate(18.685 44.014)" fill="#ffba63"/><path d="M2.428,15.927A7.964,7.964,0,0,1,5.121,13.48L11.21,9.131a1.114,1.114,0,0,1,1.732.643,2.579,2.579,0,0,1-1.069,2.914L8.849,15.082a1.2,1.2,0,0,0-.106,1.582c.737.47,1.378.032,1.955-.364a12.179,12.179,0,0,0,4.883-5.982l1.36-8.868A1.738,1.738,0,0,1,18.894.017a1.854,1.854,0,0,1,1.472,1.794v9.566a4.686,4.686,0,0,1-.32,1.795,30.371,30.371,0,0,1-6.6,9.423,10.252,10.252,0,0,0-2.81,7.5H.281L.024,24.442a13.44,13.44,0,0,1,2.4-8.515Z" transform="translate(26.653 12.149)" fill="#fed19a"/><path d="M.751,0h11.72a.751.751,0,0,1,.751.751V5.318a.751.751,0,0,1-.751.751H.751A.751.751,0,0,1,0,5.318V.751A.751.751,0,0,1,.751,0Z" transform="translate(25.509 41.931)" fill="#01b151"/><path d="M1.846.923A.923.923,0,1,1,.923,0,.923.923,0,0,1,1.846.923Z" transform="translate(27.161 44.135)" fill="#ffba63"/><path d="M27.026,8.119c.021,8.439-13.513,17.369-13.513,17.369S0,16.528,0,8.119A8.109,8.109,0,0,1,13.513,2.064,8.108,8.108,0,0,1,27.026,8.119Z" transform="translate(10.487 0)" fill="#ef5261"/></g></svg>