<svg xmlns="http://www.w3.org/2000/svg" width="48" height="48" viewBox="0 0 48 48"><rect width="48" height="48" fill="none"/><path d="M22.5,38.25,0,45V0L22.5,6.75Z" transform="translate(24 1.5)" fill="#323232"/><path d="M0,6.75,22.5,0V45L0,38.25Z" transform="translate(1.5 1.5)" fill="#4b4b4b"/><path d="M0,6.3,21,0V45L0,38.7Z" transform="translate(3 1.5)" fill="#3c3c3c"/><path d="M0,0,22.5,4.875v5.25L0,3.375Z" transform="translate(1.5 36.375)" fill="#c39664"/><path d="M0,0,21,4.55l.75,2.25L21,9.8,0,3.5Z" transform="translate(3 36.7)" fill="#b58045"/><path d="M0,3.375V0L22.5,3V8.25Z" transform="translate(1.5 33)" fill="#fff"/><path d="M0,0,21,2.8l1.5,3L21,8.05,0,3.5Z" transform="translate(3 33.2)" fill="#f7f6f5"/><path d="M22.5,0V5.25L0,8.25V4.875Z" transform="translate(1.5 6.75)" fill="#ffe651"/><path d="M0,4.55,21,0l1.5,3L21,5.25,0,8.05Z" transform="translate(3 6.75)" fill="#ffcb5d"/><path d="M0,0,6.75.675V18.3L0,19.2V0Z" transform="translate(28.5 16.2)" fill="#ebbe28"/><path d="M9,.525,14.25,0V4.8H9Zm-9,.9L4.5.975V4.8H0Z" transform="translate(5.25 16.2)" fill="#ffcb5d"/><path d="M4.5.45v3.3H0V0Z" transform="translate(39 17.25)" fill="#ebbe28"/><path d="M22.5,0V1.875L0,8.625V6.75Z" transform="translate(1.5 1.5)" fill="#4b4b4b"/><path d="M22.5,4.875V8.25L0,5.25V0Z" transform="translate(24 6.75)" fill="#ebbe28"/><path d="M0,8.25V3L22.5,0V3.375Z" transform="translate(24 33)" fill="#e8e4e0"/><path d="M22.5,3.375,0,10.125V4.875L22.5,0Z" transform="translate(24 36.375)" fill="#a76f2a"/></svg>