<svg xmlns="http://www.w3.org/2000/svg" width="48" height="48" viewBox="0 0 48 48"><rect width="48" height="48" fill="none"/><path d="M48,.966V31.244a.966.966,0,0,1-.966.966H25.847a2.317,2.317,0,0,0-3.694,0H.966A.966.966,0,0,1,0,31.244V.966A.966.966,0,0,1,.966,0H47.034A.966.966,0,0,1,48,.966Z" transform="translate(0 15.79)" fill="#01b151"/><path d="M4.829.966V31.244a.966.966,0,0,1-.966.966H0a.966.966,0,0,0,.966-.966V.966A.966.966,0,0,0,0,0H3.863a.966.966,0,0,1,.966.966Z" transform="translate(43.171 15.79)" fill="#01b151"/><path d="M0,0H41.694V24.668H0Z" transform="translate(3.153 20.33)" fill="#c5d7e6"/><path d="M20.847,2.189V31.98S12.99,25.479,0,30.049V2.189s10.476-4.925,20.847,0Z" transform="translate(3.153 12.704)" fill="#e4ecf2"/><path d="M16.018,41.872S11.493,31.725,0,29.317V0C11.493,2.408,16.018,12.555,16.018,12.555Z" transform="translate(7.982 2.812)" fill="#f0f5fa"/><path d="M11.19,44.684s.3-12.96-11.19-15.367V0C11.493,2.408,11.19,15.367,11.19,15.367Z" transform="translate(12.811 0)" fill="#e4ecf2"/><path d="M20.847,2.189v27.86C7.857,25.479,0,31.98,0,31.98V2.189c10.371-4.925,20.847,0,20.847,0Z" transform="translate(24 12.704)" fill="#e4ecf2"/><path d="M0,6.761S6.309,0,17.949,0V29.317C6.309,29.317,0,36.077,0,36.077Z" transform="translate(24.002 8.607)" fill="#f0f5fa"/></svg>