<svg xmlns="http://www.w3.org/2000/svg" width="49.171" height="48" viewBox="0 0 49.171 48"><rect width="49.171" height="48" fill="none"/><path d="M14.684,7.672H0a9.626,9.626,0,0,1,2.743-5.5A7.429,7.429,0,0,1,7.922,0h4.023Z" transform="translate(7.57 37.673)" fill="#bceaf9"/><path d="M25.152,8.794a3.092,3.092,0,0,1-3.091,3.092H5.81c-3.3,0-4.856-3.01-5.545-4.955C-.392,5.076.381.824.373.85l0-.011,0-.014L8.324,0l7.39.824,8.067,5.4a3.089,3.089,0,0,1,1.371,2.568Z" transform="translate(12.695 33.46)" fill="#d8f1fb"/><path d="M15.222,8.615a3.092,3.092,0,0,1-3.091,3.092H0V0L5.774.644h.01l8.067,5.4a3.089,3.089,0,0,1,1.371,2.568Z" transform="translate(22.626 33.639)" fill="#bceaf9"/><path d="M15.333,21.388H0V10.759A10.759,10.759,0,0,1,10.759,0h4.574V21.388Z" transform="translate(13.077 12.896)" fill="#e7f9fb"/><path d="M5.784,0V21.387H0V.068A10.754,10.754,0,0,1,1.211,0Z" transform="translate(22.626 12.896)" fill="#e7f9fb"/><path d="M13.493,6.747A6.747,6.747,0,1,1,6.747,0,6.747,6.747,0,0,1,13.493,6.747Z" transform="matrix(0.261, -0.965, 0.965, 0.261, 21.112, 14.897)" fill="#f4af71"/><path d="M15.829,1.645a2.875,2.875,0,0,1,0,4.066l-4.514,4.514a3.645,3.645,0,0,1-5.155,0L.842,4.908A2.875,2.875,0,0,1,4.908.842L8.737,4.671l3.026-3.026a2.875,2.875,0,0,1,4.066,0Z" transform="translate(19.824 19.121)" fill="#bceaf9"/><path d="M13.028,5.71,8.514,10.224a3.645,3.645,0,0,1-5.155,0L0,6.865V0a2.859,2.859,0,0,1,2.107.84L5.937,4.67,8.963,1.644A2.875,2.875,0,0,1,13.028,5.71Z" transform="translate(22.626 19.122)" fill="#bceaf9"/><path d="M1.794,1.319A4.253,4.253,0,0,1,7.416.844l3.332,2.485a4.253,4.253,0,0,1,1.107,5.593l-1.25,2.09L0,3.2Z" transform="translate(24.942 1.837)" fill="#01b151"/></svg>