<svg width="34" height="34" viewBox="0 0 34 34" fill="none" xmlns="http://www.w3.org/2000/svg">
<path d="M16.4689 9.0316V10.6239H17.5331V9.0316H16.4689Z" fill="#01B151"/>
<path d="M16.5452 10.3528C15.4067 12.2483 12.7101 13.4892 10.1922 15.0674C8.93321 15.8545 7.72043 16.742 6.81085 17.9026C5.81988 19.1574 5.29096 20.7151 5.31295 22.3139C5.31295 24.9604 6.15225 26.8097 7.00762 27.9803C7.40921 28.5304 7.81079 28.924 8.13607 29.2031H25.8639C26.1872 28.926 26.5908 28.5304 26.9924 27.9803C27.8458 26.8097 28.6911 24.9604 28.6911 22.3139C28.6911 20.5108 28.0967 19.0611 27.1872 17.9026C26.2776 16.744 25.0708 15.8545 23.8119 15.0674C21.2939 13.4892 18.5913 12.2483 17.4528 10.3528C17.248 9.99539 16.7661 9.96929 16.5452 10.3528Z" fill="#01B151"/>
<g clip-path="url(#clip0_239_639)">
<path d="M18.134 26H15.7807C15.619 26 15.4877 25.8689 15.4877 25.707V25.0764C15.4877 24.3963 14.7519 23.9705 14.1623 24.311L13.6162 24.6263C13.4762 24.7071 13.2968 24.6592 13.2159 24.5191L12.0393 22.4809C11.9584 22.3408 12.0064 22.1616 12.1465 22.0807L12.6926 21.7654C13.2817 21.4253 13.2822 20.575 12.6926 20.2346L12.1465 19.9193C12.0064 19.8383 11.9584 19.6592 12.0393 19.5191L13.2159 17.4809C13.2968 17.3409 13.476 17.2927 13.6161 17.3737L14.1623 17.689C14.7515 18.0292 15.4877 17.6044 15.4877 16.9236V16.293C15.4877 16.1312 15.6189 16 15.7807 16H18.1339C18.2957 16 18.4269 16.1312 18.4269 16.293V16.9236C18.4269 17.6037 19.1626 18.0295 19.7524 17.689L20.2985 17.3737C20.4385 17.2929 20.6178 17.3408 20.6987 17.4809L21.8753 19.5191C21.9562 19.6592 21.9082 19.8383 21.7681 19.9193L21.222 20.2346C20.6329 20.5748 20.6324 21.425 21.222 21.7654L21.7681 22.0807C21.9082 22.1617 21.9562 22.3408 21.8753 22.4809L20.6987 24.5191C20.6179 24.6591 20.4387 24.7073 20.2985 24.6263L19.7524 24.311C19.1634 23.971 18.4269 24.3955 18.4269 25.0764V25.707C18.4269 25.8689 18.2957 26 18.134 26Z" fill="#FFBA63"/>
<path d="M16.9573 23.0508C15.8266 23.0508 14.9067 22.1308 14.9067 21C14.9067 19.8692 15.8266 18.9492 16.9573 18.9492C18.088 18.9492 19.0079 19.8692 19.0079 21C19.0079 22.1308 18.088 23.0508 16.9573 23.0508Z" fill="#01B151"/>
</g>
<path d="M6.90522 28.6871C6.48304 28.6897 6.07897 28.8589 5.78082 29.1578C5.48266 29.4567 5.31453 29.8612 5.31295 30.2834V32.4037C5.31241 32.5445 5.36768 32.6797 5.46666 32.7798C5.56564 32.8799 5.70026 32.9368 5.84103 32.9378H28.157C28.227 32.9378 28.2964 32.924 28.3611 32.8971C28.4258 32.8703 28.4845 32.8309 28.5339 32.7813C28.5834 32.7316 28.6225 32.6727 28.6492 32.6079C28.6758 32.5432 28.6893 32.4738 28.6891 32.4037V30.2834C28.6864 29.8608 28.5174 29.4563 28.2186 29.1575C27.9198 28.8587 27.5153 28.6897 27.0928 28.6871H6.90522Z" fill="#FFBA63"/>
<path d="M16.4629 1.20475C15.5539 1.44298 14.7492 1.97499 14.174 2.71799C13.5988 3.46099 13.2853 4.3733 13.2823 5.31294C13.285 6.43912 13.7338 7.51836 14.5305 8.31432C15.3273 9.11028 16.4069 9.55809 17.5331 9.55968C18.4658 9.55791 19.3721 9.24927 20.112 8.68136C20.8519 8.11345 21.3844 7.31785 21.6272 6.41729C21.8943 5.89724 21.2498 5.38924 20.808 5.77074C20.4196 6.09113 19.9481 6.29428 19.4485 6.35641C18.9488 6.41855 18.4419 6.33711 17.9869 6.12161C17.5319 5.90611 17.1476 5.56548 16.8792 5.13957C16.6107 4.71367 16.4691 4.2201 16.4709 3.71665C16.4549 3.08616 16.7239 2.4858 17.0693 2.03803C17.4146 1.59228 16.987 1.06821 16.4629 1.20475Z" fill="#01B151"/>
<defs>
<clipPath id="clip0_239_639">
<rect width="10" height="10" fill="white" transform="translate(12 16)"/>
</clipPath>
</defs>
</svg>
