<svg xmlns="http://www.w3.org/2000/svg" width="48" height="48" viewBox="0 0 48 48"><rect width="48" height="48" fill="none"/><path d="M13.751,1.908a8.146,8.146,0,0,1,2.787,4.846l.436,2.488a1.506,1.506,0,0,1-.25,1.12C16.416,10.8,14.57,13,8.5,13S.576,10.8.272,10.362a1.506,1.506,0,0,1-.25-1.12L.458,6.754A8.169,8.169,0,0,1,13.751,1.908ZM42.978,9.242a1.506,1.506,0,0,1-.25,1.12C42.42,10.8,40.574,13,34.5,13s-7.92-2.2-8.228-2.638a1.506,1.506,0,0,1-.25-1.12l.436-2.488a8.161,8.161,0,0,1,16.08,0Z" transform="translate(2.504 22.5)" fill="#3cdb7f"/><path d="M11,5.5A5.5,5.5,0,1,1,5.5,0,5.5,5.5,0,0,1,11,5.5Z" transform="translate(5.5 10.5)" fill="#3cdb7f"/><path d="M11,5.5A5.5,5.5,0,1,1,5.5,0,5.5,5.5,0,0,1,11,5.5Z" transform="translate(31.5 10.5)" fill="#3cdb7f"/><path d="M22.987,15.288a1.5,1.5,0,0,1-.426,1.272C22.155,16.968,19.707,19,11.5,19S.841,16.96.441,16.56a1.5,1.5,0,0,1-.426-1.272l1.02-7.132A9.546,9.546,0,0,1,10.435,0h2.128a9.546,9.546,0,0,1,9.4,8.156Z" transform="translate(12.503 22.5)" fill="#01b151"/><path d="M15,7.5A7.5,7.5,0,1,1,7.5,0,7.5,7.5,0,0,1,15,7.5Z" transform="translate(16.5 6.5)" fill="#01b151"/></svg>