<svg width="30" height="34" viewBox="0 0 30 34" fill="none" xmlns="http://www.w3.org/2000/svg">
<g clip-path="url(#clip0_102_15346)">
<path d="M16.4137 23.6559C15.1444 23.9346 10.6511 28.319 10.2331 29.4401C9.81378 30.5612 10.5764 30.7005 10.5764 30.7005C10.0963 31.7469 11.586 32.3461 11.9876 32.1763C11.6177 33.2012 13.305 33.2037 13.305 33.2037C13.2075 34.1196 14.5465 33.984 14.7403 33.3582C15.242 34.3653 16.1832 33.3304 16.1832 33.3304C16.7862 34.0689 17.3245 32.6919 17.3245 32.6919C17.3245 32.6919 18.3671 25.6879 18.0897 24.5389L16.415 23.6572L16.4137 23.6559Z" fill="#FFBA63"/>
<path d="M15.2838 11.1325C15.8393 11.1325 16.2896 10.6822 16.2896 10.1267C16.2896 9.57117 15.8393 9.12085 15.2838 9.12085C14.7283 9.12085 14.2779 9.57117 14.2779 10.1267C14.2779 10.6822 14.7283 11.1325 15.2838 11.1325Z" fill="#01B151"/>
<path opacity="0.4" d="M15.6891 10.6157C15.6182 10.7069 15.5473 10.3218 15.2635 10.1001C14.9797 9.87838 14.5883 9.90372 14.6592 9.81251C14.7302 9.7213 15.1469 9.66176 15.432 9.88345C15.7157 10.1051 15.7601 10.5244 15.6891 10.6157Z" fill="white"/>
<path d="M14.2387 12.9263C14.7942 12.9263 15.2445 12.4759 15.2445 11.9204C15.2445 11.3649 14.7942 10.9146 14.2387 10.9146C13.6832 10.9146 13.2328 11.3649 13.2328 11.9204C13.2328 12.4759 13.6832 12.9263 14.2387 12.9263Z" fill="#01B151"/>
<path opacity="0.4" d="M14.9848 12.0864C14.9101 12.1827 14.8353 11.776 14.5351 11.5417C14.2349 11.3073 13.8219 11.3339 13.8966 11.2376C13.9714 11.1414 14.4135 11.078 14.7137 11.3124C15.0139 11.5467 15.0608 11.9901 14.9861 12.0864H14.9848Z" fill="white"/>
<path d="M13.1594 14.6301C13.7149 14.6301 14.1652 14.1798 14.1652 13.6243C14.1652 13.0688 13.7149 12.6184 13.1594 12.6184C12.6039 12.6184 12.1535 13.0688 12.1535 13.6243C12.1535 14.1798 12.6039 14.6301 13.1594 14.6301Z" fill="#01B151"/>
<path opacity="0.4" d="M13.9055 13.7902C13.8308 13.8865 13.756 13.4799 13.4558 13.2455C13.1556 13.0111 12.7426 13.0377 12.8173 12.9415C12.8921 12.8452 13.3342 12.7819 13.6344 13.0162C13.9346 13.2506 13.9815 13.6939 13.9068 13.7902H13.9055Z" fill="white"/>
<path d="M12.0877 16.3517C12.6432 16.3517 13.0935 15.9013 13.0935 15.3458C13.0935 14.7903 12.6432 14.34 12.0877 14.34C11.5322 14.34 11.0818 14.7903 11.0818 15.3458C11.0818 15.9013 11.5322 16.3517 12.0877 16.3517Z" fill="#01B151"/>
<path opacity="0.4" d="M12.8338 15.5118C12.7591 15.6081 12.6843 15.2014 12.3841 14.9671C12.0839 14.7327 11.6709 14.7593 11.7456 14.663C11.8204 14.5668 12.2625 14.5034 12.5627 14.7378C12.8629 14.9721 12.9098 15.4155 12.8351 15.5118H12.8338Z" fill="white"/>
<path d="M11.1566 18.1784C11.7121 18.1784 12.1624 17.728 12.1624 17.1725C12.1624 16.617 11.7121 16.1667 11.1566 16.1667C10.6011 16.1667 10.1507 16.617 10.1507 17.1725C10.1507 17.728 10.6011 18.1784 11.1566 18.1784Z" fill="#01B151"/>
<path opacity="0.4" d="M11.9027 17.3385C11.828 17.4348 11.7532 17.0281 11.453 16.7938C11.1528 16.5594 10.7398 16.586 10.8145 16.4897C10.8893 16.3935 11.3314 16.3301 11.6316 16.5645C11.9318 16.7988 11.9787 17.2422 11.904 17.3385H11.9027Z" fill="white"/>
<path d="M9.86319 19.7213C10.4187 19.7213 10.869 19.271 10.869 18.7155C10.869 18.16 10.4187 17.7097 9.86319 17.7097C9.30769 17.7097 8.85736 18.16 8.85736 18.7155C8.85736 19.271 9.30769 19.7213 9.86319 19.7213Z" fill="#01B151"/>
<path opacity="0.4" d="M10.6093 18.8814C10.5346 18.9777 10.4598 18.5711 10.1596 18.3367C9.85938 18.1024 9.44641 18.129 9.52115 18.0327C9.59589 17.9364 10.038 17.8731 10.3382 18.1074C10.6385 18.3418 10.6853 18.7852 10.6106 18.8814H10.6093Z" fill="white"/>
<path d="M8.31391 21.0983C8.86941 21.0983 9.31974 20.648 9.31974 20.0925C9.31974 19.537 8.86941 19.0866 8.31391 19.0866C7.75841 19.0866 7.30808 19.537 7.30808 20.0925C7.30808 20.648 7.75841 21.0983 8.31391 21.0983Z" fill="#01B151"/>
<path opacity="0.4" d="M9.06005 20.2584C8.98531 20.3547 8.91057 19.9481 8.61034 19.7137C8.31011 19.4793 7.89714 19.506 7.97188 19.4097C8.04662 19.3134 8.48873 19.2501 8.78895 19.4844C9.08918 19.7188 9.13605 20.1621 9.06131 20.2584H9.06005Z" fill="white"/>
<path d="M6.8267 22.4905C7.38221 22.4905 7.83253 22.0402 7.83253 21.4847C7.83253 20.9292 7.38221 20.4788 6.8267 20.4788C6.2712 20.4788 5.82088 20.9292 5.82088 21.4847C5.82088 22.0402 6.2712 22.4905 6.8267 22.4905Z" fill="#01B151"/>
<path opacity="0.4" d="M7.57284 21.6506C7.4981 21.7469 7.42336 21.3403 7.12313 21.1059C6.82291 20.8716 6.40993 20.8982 6.48467 20.8019C6.55941 20.7056 7.00152 20.6423 7.30175 20.8766C7.60198 21.111 7.64885 21.5543 7.57411 21.6506H7.57284Z" fill="white"/>
<path d="M4.77704 22.1396C5.33255 22.1396 5.78287 21.6893 5.78287 21.1338C5.78287 20.5783 5.33255 20.1279 4.77704 20.1279C4.22154 20.1279 3.77122 20.5783 3.77122 21.1338C3.77122 21.6893 4.22154 22.1396 4.77704 22.1396Z" fill="#01B151"/>
<path opacity="0.4" d="M5.52318 21.2997C5.44844 21.396 5.3737 20.9894 5.07347 20.755C4.77325 20.5206 4.36027 20.5472 4.43501 20.451C4.50975 20.3547 4.95186 20.2914 5.25209 20.5257C5.55232 20.7601 5.59919 21.2034 5.52445 21.2997H5.52318Z" fill="white"/>
<path d="M3.00101 21.0692C3.55652 21.0692 4.00684 20.6188 4.00684 20.0633C4.00684 19.5078 3.55652 19.0575 3.00101 19.0575C2.44551 19.0575 1.99519 19.5078 1.99519 20.0633C1.99519 20.6188 2.44551 21.0692 3.00101 21.0692Z" fill="#01B151"/>
<path opacity="0.4" d="M3.76488 20.0405C3.71548 20.152 3.5432 19.7758 3.19483 19.6225C2.84647 19.4692 2.4525 19.5972 2.50063 19.4844C2.54877 19.3717 2.96174 19.2032 3.31138 19.3565C3.66101 19.5098 3.81429 19.9278 3.76488 20.0405Z" fill="white"/>
<path d="M1.71142 19.4489C2.26693 19.4489 2.71725 18.9986 2.71725 18.4431C2.71725 17.8876 2.26693 17.4373 1.71142 17.4373C1.15592 17.4373 0.705597 17.8876 0.705597 18.4431C0.705597 18.9986 1.15592 19.4489 1.71142 19.4489Z" fill="#01B151"/>
<path opacity="0.4" d="M2.47656 18.4203C2.42716 18.5318 2.25488 18.1556 1.90651 18.0023C1.55688 17.849 1.16417 17.9769 1.21231 17.8642C1.26045 17.7515 1.67342 17.583 2.02305 17.7363C2.37269 17.8895 2.52597 18.3076 2.47656 18.4203Z" fill="white"/>
<path d="M1.00709 17.4804C1.5626 17.4804 2.01292 17.03 2.01292 16.4745C2.01292 15.919 1.5626 15.4687 1.00709 15.4687C0.451591 15.4687 0.00126648 15.919 0.00126648 16.4745C0.00126648 17.03 0.451591 17.4804 1.00709 17.4804Z" fill="#01B151"/>
<path opacity="0.4" d="M1.77097 16.453C1.72156 16.5645 1.54928 16.1882 1.20091 16.035C0.85128 15.8817 0.458576 16.0096 0.506714 15.8969C0.554852 15.7841 0.967824 15.6157 1.31746 15.7689C1.66709 15.9222 1.82037 16.3403 1.77097 16.453Z" fill="white"/>
<path d="M1.56574 15.5333C2.12125 15.5333 2.57157 15.083 2.57157 14.5275C2.57157 13.972 2.12125 13.5217 1.56574 13.5217C1.01024 13.5217 0.559917 13.972 0.559917 14.5275C0.559917 15.083 1.01024 15.5333 1.56574 15.5333Z" fill="#01B151"/>
<path opacity="0.4" d="M2.32962 14.506C2.28021 14.6174 2.10793 14.2412 1.75956 14.0879C1.40993 13.9346 1.01723 14.0626 1.06537 13.9498C1.11477 13.8384 1.52647 13.6686 1.87611 13.8219C2.22574 13.9752 2.37902 14.3932 2.32962 14.506Z" fill="white"/>
<path d="M2.93007 13.9169C3.48558 13.9169 3.9359 13.4666 3.9359 12.9111C3.9359 12.3556 3.48558 11.9052 2.93007 11.9052C2.37457 11.9052 1.92425 12.3556 1.92425 12.9111C1.92425 13.4666 2.37457 13.9169 2.93007 13.9169Z" fill="#01B151"/>
<path opacity="0.4" d="M3.69394 12.8883C3.64454 12.9997 3.47226 12.6235 3.12389 12.4702C2.77552 12.3169 2.38155 12.4449 2.42969 12.3321C2.47783 12.2194 2.8908 12.0509 3.24043 12.2042C3.59007 12.3575 3.74335 12.7755 3.69394 12.8883Z" fill="white"/>
<path d="M4.62376 12.7059C5.17927 12.7059 5.62959 12.2555 5.62959 11.7C5.62959 11.1445 5.17927 10.6942 4.62376 10.6942C4.06826 10.6942 3.61794 11.1445 3.61794 11.7C3.61794 12.2555 4.06826 12.7059 4.62376 12.7059Z" fill="#01B151"/>
<path opacity="0.4" d="M5.38763 11.6785C5.33823 11.79 5.16595 11.4137 4.81758 11.2605C4.46795 11.1072 4.07525 11.2351 4.12338 11.1224C4.17152 11.0096 4.58449 10.8411 4.93413 10.9944C5.28376 11.1477 5.43704 11.5657 5.38763 11.6785Z" fill="white"/>
<path d="M6.0641 10.997C6.6196 10.997 7.06993 10.5466 7.06993 9.99113C7.06993 9.43563 6.6196 8.98531 6.0641 8.98531C5.5086 8.98531 5.05827 9.43563 5.05827 9.99113C5.05827 10.5466 5.5086 10.997 6.0641 10.997Z" fill="#01B151"/>
<path opacity="0.4" d="M6.82797 9.96833C6.77856 10.0798 6.60628 9.70357 6.25792 9.55029C5.90955 9.39701 5.51558 9.52496 5.56372 9.41221C5.61186 9.29947 6.02483 9.13099 6.37446 9.28427C6.72409 9.43755 6.87737 9.85559 6.82797 9.96833Z" fill="white"/>
<path d="M7.4677 9.60476C8.0232 9.60476 8.47352 9.15444 8.47352 8.59894C8.47352 8.04343 8.0232 7.59311 7.4677 7.59311C6.91219 7.59311 6.46187 8.04343 6.46187 8.59894C6.46187 9.15444 6.91219 9.60476 7.4677 9.60476Z" fill="#01B151"/>
<path opacity="0.4" d="M8.23157 8.57613C8.18216 8.68761 8.00988 8.31138 7.66151 8.1581C7.31188 8.00481 6.91918 8.13276 6.96732 8.02002C7.01545 7.90727 7.42843 7.73879 7.77806 7.89207C8.12769 8.04535 8.28097 8.46339 8.23157 8.57613Z" fill="white"/>
<path d="M8.90676 8.17456C9.46227 8.17456 9.91259 7.72424 9.91259 7.16874C9.91259 6.61323 9.46227 6.16291 8.90676 6.16291C8.35126 6.16291 7.90094 6.61323 7.90094 7.16874C7.90094 7.72424 8.35126 8.17456 8.90676 8.17456Z" fill="#01B151"/>
<path opacity="0.4" d="M9.67063 7.1472C9.62123 7.25868 9.44895 6.88244 9.10058 6.72916C8.75095 6.57588 8.35825 6.70383 8.40638 6.59108C8.45452 6.47834 8.86749 6.30986 9.21713 6.46314C9.56676 6.61642 9.72004 7.03446 9.67063 7.1472Z" fill="white"/>
<path d="M10.3458 6.74309C10.9013 6.74309 11.3517 6.29277 11.3517 5.73727C11.3517 5.18176 10.9013 4.73144 10.3458 4.73144C9.79033 4.73144 9.34 5.18176 9.34 5.73727C9.34 6.29277 9.79033 6.74309 10.3458 6.74309Z" fill="#01B151"/>
<path opacity="0.4" d="M11.1097 5.71574C11.0603 5.82721 10.888 5.45098 10.5396 5.2977C10.19 5.14442 9.79731 5.27236 9.84545 5.15962C9.89359 5.04687 10.3066 4.87839 10.6562 5.03167C11.0058 5.18495 11.1591 5.60299 11.1097 5.71574Z" fill="white"/>
<path d="M12.1675 5.91335C12.723 5.91335 13.1733 5.46303 13.1733 4.90752C13.1733 4.35202 12.723 3.9017 12.1675 3.9017C11.612 3.9017 11.1616 4.35202 11.1616 4.90752C11.1616 5.46303 11.612 5.91335 12.1675 5.91335Z" fill="#01B151"/>
<path opacity="0.4" d="M12.9313 4.88472C12.8819 4.9962 12.7097 4.61996 12.3613 4.46668C12.0117 4.3134 11.619 4.44135 11.6671 4.3286C11.7152 4.21586 12.1282 4.04738 12.4778 4.20066C12.8275 4.35394 12.9807 4.77198 12.9313 4.88472Z" fill="white"/>
<path d="M14.131 5.03167C14.6865 5.03167 15.1368 4.58134 15.1368 4.02584C15.1368 3.47034 14.6865 3.02001 14.131 3.02001C13.5755 3.02001 13.1252 3.47034 13.1252 4.02584C13.1252 4.58134 13.5755 5.03167 14.131 5.03167Z" fill="#01B151"/>
<path opacity="0.4" d="M14.8949 4.00304C14.8455 4.11451 14.6732 3.73828 14.3248 3.585C13.9764 3.43172 13.5825 3.55966 13.6306 3.44692C13.6787 3.33417 14.0917 3.16569 14.4413 3.31897C14.791 3.47225 14.9443 3.89029 14.8949 4.00304Z" fill="white"/>
<path d="M15.7525 3.74335C16.308 3.74335 16.7583 3.29303 16.7583 2.73752C16.7583 2.18202 16.308 1.7317 15.7525 1.7317C15.197 1.7317 14.7466 2.18202 14.7466 2.73752C14.7466 3.29303 15.197 3.74335 15.7525 3.74335Z" fill="#01B151"/>
<path opacity="0.4" d="M16.5163 2.71599C16.4669 2.82747 16.2947 2.45123 15.9463 2.29795C15.5967 2.14467 15.204 2.27261 15.2521 2.15987C15.3015 2.04839 15.7132 1.87864 16.0628 2.03192C16.4125 2.18521 16.5657 2.60324 16.5163 2.71599Z" fill="white"/>
<path d="M17.5133 2.75779C18.0688 2.75779 18.5191 2.30747 18.5191 1.75197C18.5191 1.19646 18.0688 0.74614 17.5133 0.74614C16.9578 0.74614 16.5075 1.19646 16.5075 1.75197C16.5075 2.30747 16.9578 2.75779 17.5133 2.75779Z" fill="#01B151"/>
<path opacity="0.4" d="M18.2772 1.72916C18.2278 1.84064 18.0555 1.46441 17.7071 1.31113C17.3575 1.15784 16.9648 1.28579 17.0129 1.17305C17.0611 1.0603 17.474 0.89182 17.8237 1.0451C18.1733 1.19838 18.3266 1.61642 18.2772 1.72916Z" fill="white"/>
<path d="M19.5275 2.77299C20.083 2.77299 20.5333 2.32267 20.5333 1.76716C20.5333 1.21166 20.083 0.761337 19.5275 0.761337C18.972 0.761337 18.5217 1.21166 18.5217 1.76716C18.5217 2.32267 18.972 2.77299 19.5275 2.77299Z" fill="#01B151"/>
<path opacity="0.4" d="M20.2914 1.74436C20.242 1.85584 20.0697 1.4796 19.7213 1.32632C19.3729 1.17304 18.979 1.30099 19.0271 1.18824C19.0752 1.0755 19.4882 0.907017 19.8379 1.0603C20.1875 1.21358 20.3408 1.63162 20.2914 1.74436Z" fill="white"/>
<path d="M21.3935 2.51204C21.949 2.51204 22.3993 2.06171 22.3993 1.50621C22.3993 0.950706 21.949 0.500381 21.3935 0.500381C20.838 0.500381 20.3876 0.950706 20.3876 1.50621C20.3876 2.06171 20.838 2.51204 21.3935 2.51204Z" fill="#01B151"/>
<path opacity="0.4" d="M22.1573 1.48341C22.1079 1.59488 21.9356 1.21865 21.5873 1.06537C21.2376 0.912086 20.8449 1.04003 20.8931 0.927288C20.9412 0.814544 21.3542 0.646062 21.7038 0.799343C22.0535 0.952624 22.2067 1.37066 22.1573 1.48341Z" fill="white"/>
<path d="M23.3646 2.01292C23.9201 2.01292 24.3704 1.5626 24.3704 1.00709C24.3704 0.451591 23.9201 0.00126648 23.3646 0.00126648C22.8091 0.00126648 22.3588 0.451591 22.3588 1.00709C22.3588 1.5626 22.8091 2.01292 23.3646 2.01292Z" fill="#01B151"/>
<path opacity="0.4" d="M24.1285 0.984291C24.079 1.09577 23.9068 0.719533 23.5584 0.566252C23.21 0.412971 22.8161 0.540917 22.8642 0.428173C22.9123 0.315429 23.3253 0.146947 23.6749 0.300228C24.0246 0.453509 24.1779 0.871548 24.1285 0.984291Z" fill="white"/>
<path d="M25.2052 2.47277C25.7607 2.47277 26.211 2.02244 26.211 1.46694C26.211 0.911437 25.7607 0.461113 25.2052 0.461113C24.6497 0.461113 24.1994 0.911437 24.1994 1.46694C24.1994 2.02244 24.6497 2.47277 25.2052 2.47277Z" fill="#01B151"/>
<path opacity="0.4" d="M25.9691 1.44414C25.9197 1.55561 25.7474 1.17938 25.399 1.0261C25.0494 0.872818 24.6567 1.00076 24.7048 0.888019C24.753 0.775276 25.1659 0.606793 25.5156 0.760074C25.8652 0.913355 26.0185 1.33139 25.9691 1.44414Z" fill="white"/>
<path d="M26.7925 3.71042C27.348 3.71042 27.7983 3.26009 27.7983 2.70459C27.7983 2.14909 27.348 1.69876 26.7925 1.69876C26.237 1.69876 25.7867 2.14909 25.7867 2.70459C25.7867 3.26009 26.237 3.71042 26.7925 3.71042Z" fill="#01B151"/>
<path opacity="0.4" d="M27.5564 2.68305C27.507 2.79453 27.3347 2.41829 26.9863 2.26501C26.6367 2.11173 26.244 2.23968 26.2921 2.12693C26.3403 2.01419 26.7532 1.84571 27.1029 1.99899C27.4525 2.15227 27.6058 2.57031 27.5564 2.68305Z" fill="white"/>
<path d="M27.8984 5.39144C28.4539 5.39144 28.9042 4.94111 28.9042 4.38561C28.9042 3.83011 28.4539 3.37978 27.8984 3.37978C27.3429 3.37978 26.8926 3.83011 26.8926 4.38561C26.8926 4.94111 27.3429 5.39144 27.8984 5.39144Z" fill="#01B151"/>
<path opacity="0.4" d="M28.6623 4.36408C28.6129 4.47555 28.4406 4.09932 28.0922 3.94604C27.7426 3.79276 27.3499 3.9207 27.398 3.80796C27.4462 3.69521 27.8591 3.52673 28.2088 3.68001C28.5584 3.83329 28.7117 4.25133 28.6623 4.36408Z" fill="white"/>
<path d="M28.5381 7.16747C29.0936 7.16747 29.544 6.71715 29.544 6.16164C29.544 5.60614 29.0936 5.15582 28.5381 5.15582C27.9826 5.15582 27.5323 5.60614 27.5323 6.16164C27.5323 6.71715 27.9826 7.16747 28.5381 7.16747Z" fill="#01B151"/>
<path opacity="0.4" d="M29.302 6.13884C29.2526 6.25032 29.0803 5.87408 28.7319 5.7208C28.3823 5.56752 27.9896 5.69547 28.0377 5.58272C28.0859 5.46998 28.4989 5.3015 28.8485 5.45478C29.1981 5.60806 29.3514 6.0261 29.302 6.13884Z" fill="white"/>
<path d="M28.9929 9.18039C29.5484 9.18039 29.9987 8.73006 29.9987 8.17456C29.9987 7.61906 29.5484 7.16873 28.9929 7.16873C28.4374 7.16873 27.9871 7.61906 27.9871 8.17456C27.9871 8.73006 28.4374 9.18039 28.9929 9.18039Z" fill="#01B151"/>
<path opacity="0.4" d="M29.7568 8.15303C29.7074 8.26451 29.5351 7.88827 29.1867 7.73499C28.8371 7.58171 28.4444 7.70966 28.4925 7.59691C28.5407 7.48417 28.9536 7.31569 29.3033 7.46897C29.6529 7.62225 29.8062 8.04029 29.7568 8.15303Z" fill="white"/>
<path d="M28.908 10.926C29.4635 10.926 29.9139 10.4757 29.9139 9.92019C29.9139 9.36469 29.4635 8.91437 28.908 8.91437C28.3525 8.91437 27.9022 9.36469 27.9022 9.92019C27.9022 10.4757 28.3525 10.926 28.908 10.926Z" fill="#01B151"/>
<path opacity="0.4" d="M29.6719 9.89866C29.6225 10.0101 29.4502 9.6339 29.1018 9.48062C28.7522 9.32734 28.3595 9.45528 28.4077 9.34254C28.4558 9.2298 28.8688 9.06131 29.2184 9.2146C29.568 9.36788 29.7213 9.78592 29.6719 9.89866Z" fill="white"/>
<path d="M28.1556 12.8515C28.7111 12.8515 29.1614 12.4012 29.1614 11.8457C29.1614 11.2902 28.7111 10.8399 28.1556 10.8399C27.6001 10.8399 27.1497 11.2902 27.1497 11.8457C27.1497 12.4012 27.6001 12.8515 28.1556 12.8515Z" fill="#01B151"/>
<path opacity="0.4" d="M28.9194 11.8242C28.87 11.9356 28.6977 11.5594 28.3494 11.4061C27.9997 11.2528 27.607 11.3808 27.6552 11.268C27.7033 11.1553 28.1163 10.9868 28.4659 11.1401C28.8156 11.2934 28.9688 11.7114 28.9194 11.8242Z" fill="white"/>
<path d="M26.8533 14.3894C27.4088 14.3894 27.8591 13.9391 27.8591 13.3836C27.8591 12.8281 27.4088 12.3778 26.8533 12.3778C26.2978 12.3778 25.8475 12.8281 25.8475 13.3836C25.8475 13.9391 26.2978 14.3894 26.8533 14.3894Z" fill="#01B151"/>
<path opacity="0.4" d="M27.6172 13.3608C27.5678 13.4723 27.3955 13.096 27.0471 12.9427C26.6988 12.7895 26.3048 12.9174 26.3529 12.8047C26.4011 12.6919 26.814 12.5234 27.1637 12.6767C27.5133 12.83 27.6666 13.248 27.6172 13.3608Z" fill="white"/>
<path d="M25.5511 15.926C26.1066 15.926 26.5569 15.4757 26.5569 14.9202C26.5569 14.3647 26.1066 13.9144 25.5511 13.9144C24.9955 13.9144 24.5452 14.3647 24.5452 14.9202C24.5452 15.4757 24.9955 15.926 25.5511 15.926Z" fill="#01B151"/>
<path opacity="0.4" d="M26.3162 14.8987C26.2668 15.0101 26.0945 14.6339 25.7461 14.4806C25.3978 14.3273 25.0038 14.4553 25.0519 14.3425C25.1001 14.2298 25.513 14.0613 25.8627 14.2146C26.2123 14.3679 26.3656 14.7859 26.3162 14.8987Z" fill="white"/>
<path d="M24.1893 17.5412C24.7448 17.5412 25.1951 17.0908 25.1951 16.5353C25.1951 15.9798 24.7448 15.5295 24.1893 15.5295C23.6338 15.5295 23.1834 15.9798 23.1834 16.5353C23.1834 17.0908 23.6338 17.5412 24.1893 17.5412Z" fill="#01B151"/>
<path opacity="0.4" d="M24.9531 16.5138C24.9037 16.6253 24.7314 16.2491 24.3831 16.0958C24.0347 15.9425 23.6407 16.0704 23.6889 15.9577C23.737 15.8449 24.15 15.6765 24.4996 15.8297C24.8493 15.983 25.0025 16.4011 24.9531 16.5138Z" fill="white"/>
<path d="M22.4854 18.7661C23.0409 18.7661 23.4913 18.3158 23.4913 17.7603C23.4913 17.2048 23.0409 16.7545 22.4854 16.7545C21.9299 16.7545 21.4796 17.2048 21.4796 17.7603C21.4796 18.3158 21.9299 18.7661 22.4854 18.7661Z" fill="#01B151"/>
<path opacity="0.4" d="M23.2493 17.7375C23.1999 17.849 23.0276 17.4728 22.6793 17.3195C22.3309 17.1662 21.9369 17.2941 21.9851 17.1814C22.0332 17.0687 22.4462 16.9002 22.7958 17.0535C23.1454 17.2067 23.2987 17.6248 23.2493 17.7375Z" fill="white"/>
<path d="M20.983 20.1469C21.5385 20.1469 21.9889 19.6966 21.9889 19.1411C21.9889 18.5856 21.5385 18.1353 20.983 18.1353C20.4275 18.1353 19.9772 18.5856 19.9772 19.1411C19.9772 19.6966 20.4275 20.1469 20.983 20.1469Z" fill="#01B151"/>
<path opacity="0.4" d="M21.7482 19.1183C21.6988 19.2298 21.5265 18.8536 21.1781 18.7003C20.8285 18.547 20.4358 18.6749 20.4839 18.5622C20.5333 18.4507 20.945 18.281 21.2947 18.4343C21.6443 18.5875 21.7976 19.0056 21.7482 19.1183Z" fill="white"/>
<path d="M18.1556 23.3633C18.7677 23.3633 19.264 22.867 19.264 22.2549C19.264 21.6427 18.7677 21.1464 18.1556 21.1464C17.5434 21.1464 17.0471 21.6427 17.0471 22.2549C17.0471 22.867 17.5434 23.3633 18.1556 23.3633Z" fill="#01B151"/>
<path opacity="0.4" d="M18.9967 22.2308C18.9422 22.3537 18.7535 21.9394 18.3684 21.771C17.9833 21.6025 17.55 21.7418 17.6045 21.619C17.659 21.4961 18.1125 21.3099 18.4963 21.4783C18.8802 21.6468 19.0499 22.1079 18.9954 22.2308H18.9967Z" fill="white"/>
<path d="M18.0884 24.5376C17.7654 24.72 16.567 24.1475 16.4137 23.6559C16.657 23.1936 17.2295 23.0162 17.6919 23.2594C18.1543 23.5027 18.3316 24.0752 18.0884 24.5376Z" fill="#01B151"/>
<path opacity="0.4" d="M17.9693 24.1259C17.9161 24.2273 17.7793 23.8637 17.4614 23.6965C17.1447 23.5293 16.7659 23.623 16.8204 23.5217C16.8748 23.4203 17.2713 23.2886 17.5893 23.4558C17.906 23.623 18.0238 24.0246 17.9693 24.1272V24.1259Z" fill="white"/>
<path d="M19.4109 20.3674C19.7405 20.3674 20.0076 20.1002 20.0076 19.7707C20.0076 19.4412 19.7405 19.1741 19.4109 19.1741C19.0814 19.1741 18.8143 19.4412 18.8143 19.7707C18.8143 20.1002 19.0814 20.3674 19.4109 20.3674Z" fill="#01B151"/>
<path opacity="0.4" d="M19.8632 19.758C19.8341 19.8239 19.7314 19.601 19.525 19.5098C19.3185 19.4185 19.0841 19.4946 19.1133 19.4274C19.1424 19.3603 19.3869 19.2602 19.5934 19.3514C19.7998 19.4426 19.8911 19.6896 19.8619 19.7568L19.8632 19.758Z" fill="white"/>
<path d="M18.9245 21.301C19.2099 21.301 19.4413 21.0696 19.4413 20.7841C19.4413 20.4987 19.2099 20.2673 18.9245 20.2673C18.6391 20.2673 18.4076 20.4987 18.4076 20.7841C18.4076 21.0696 18.6391 21.301 18.9245 21.301Z" fill="#01B151"/>
<path opacity="0.4" d="M19.3172 20.7727C19.2919 20.8297 19.2032 20.6372 19.0246 20.5574C18.8447 20.4788 18.6433 20.5435 18.6686 20.4864C18.6939 20.4294 18.9055 20.342 19.0854 20.4206C19.2653 20.4991 19.3438 20.7145 19.3185 20.7715L19.3172 20.7727Z" fill="white"/>
<path d="M19.3045 19.0727C19.86 19.0727 20.3104 18.6224 20.3104 18.0669C20.3104 17.5114 19.86 17.0611 19.3045 17.0611C18.749 17.0611 18.2987 17.5114 18.2987 18.0669C18.2987 18.6224 18.749 19.0727 19.3045 19.0727Z" fill="#01B151"/>
<path opacity="0.4" d="M20.0697 18.0453C20.0203 18.1568 19.848 17.7806 19.4996 17.6273C19.1513 17.474 18.7573 17.602 18.8054 17.4892C18.8536 17.3765 19.2665 17.208 19.6162 17.3613C19.9658 17.5146 20.1191 17.9326 20.0697 18.0453Z" fill="white"/>
<path d="M19.6719 17.1079C20.2274 17.1079 20.6777 16.6576 20.6777 16.1021C20.6777 15.5466 20.2274 15.0963 19.6719 15.0963C19.1164 15.0963 18.6661 15.5466 18.6661 16.1021C18.6661 16.6576 19.1164 17.1079 19.6719 17.1079Z" fill="#01B151"/>
<path opacity="0.4" d="M20.4358 16.0793C20.3864 16.1908 20.2141 15.8145 19.8657 15.6613C19.5161 15.508 19.1234 15.6359 19.1715 15.5232C19.2197 15.4104 19.6326 15.242 19.9823 15.3952C20.3319 15.5485 20.4852 15.9666 20.4358 16.0793Z" fill="white"/>
<path d="M20.8411 15.4674C21.3967 15.4674 21.847 15.0171 21.847 14.4616C21.847 13.9061 21.3967 13.4558 20.8411 13.4558C20.2856 13.4558 19.8353 13.9061 19.8353 14.4616C19.8353 15.0171 20.2856 15.4674 20.8411 15.4674Z" fill="#01B151"/>
<path opacity="0.4" d="M21.605 14.4388C21.5556 14.5503 21.3833 14.1741 21.035 14.0208C20.6853 13.8675 20.2926 13.9954 20.3408 13.8827C20.3889 13.7699 20.8019 13.6015 21.1515 13.7547C21.5011 13.908 21.6544 14.3261 21.605 14.4388Z" fill="white"/>
<path d="M21.9914 13.8599C22.5469 13.8599 22.9972 13.4096 22.9972 12.8541C22.9972 12.2986 22.5469 11.8482 21.9914 11.8482C21.4359 11.8482 20.9856 12.2986 20.9856 12.8541C20.9856 13.4096 21.4359 13.8599 21.9914 13.8599Z" fill="#01B151"/>
<path opacity="0.4" d="M22.7553 12.8325C22.7059 12.944 22.5336 12.5678 22.1852 12.4145C21.8356 12.2612 21.4429 12.3892 21.491 12.2764C21.5391 12.1637 21.9521 11.9952 22.3017 12.1485C22.6514 12.3017 22.8047 12.7198 22.7553 12.8325Z" fill="white"/>
<path d="M23.6838 12.7831C24.2393 12.7831 24.6896 12.3328 24.6896 11.7773C24.6896 11.2218 24.2393 10.7715 23.6838 10.7715C23.1283 10.7715 22.678 11.2218 22.678 11.7773C22.678 12.3328 23.1283 12.7831 23.6838 12.7831Z" fill="#01B151"/>
<path opacity="0.4" d="M24.4477 11.7558C24.3983 11.8672 24.226 11.491 23.8776 11.3377C23.528 11.1844 23.1353 11.3124 23.1834 11.1996C23.2316 11.0869 23.6445 10.9184 23.9942 11.0717C24.3438 11.225 24.4971 11.643 24.4477 11.7558Z" fill="white"/>
<path d="M25.3978 11.8698C25.9533 11.8698 26.4036 11.4194 26.4036 10.8639C26.4036 10.3084 25.9533 9.85812 25.3978 9.85812C24.8423 9.85812 24.3919 10.3084 24.3919 10.8639C24.3919 11.4194 24.8423 11.8698 25.3978 11.8698Z" fill="#01B151"/>
<path opacity="0.4" d="M26.1616 10.8411C26.1122 10.9526 25.94 10.5764 25.5916 10.4231C25.2432 10.2698 24.8493 10.3978 24.8974 10.285C24.9455 10.1723 25.3585 10.0038 25.7081 10.1571C26.0578 10.3104 26.211 10.7284 26.1616 10.8411Z" fill="white"/>
<path d="M26.6025 10.0621C27.158 10.0621 27.6083 9.61174 27.6083 9.05624C27.6083 8.50074 27.158 8.05042 26.6025 8.05042C26.047 8.05042 25.5967 8.50074 25.5967 9.05624C25.5967 9.61174 26.047 10.0621 26.6025 10.0621Z" fill="#01B151"/>
<path opacity="0.4" d="M27.3664 9.03471C27.317 9.14618 27.1447 8.76995 26.7963 8.61667C26.4479 8.46339 26.054 8.59133 26.1021 8.47859C26.1502 8.36584 26.5632 8.19736 26.9128 8.35064C27.2625 8.50392 27.4158 8.92196 27.3664 9.03471Z" fill="white"/>
<path d="M26.5645 7.99721C27.12 7.99721 27.5703 7.54689 27.5703 6.99138C27.5703 6.43588 27.12 5.98556 26.5645 5.98556C26.009 5.98556 25.5587 6.43588 25.5587 6.99138C25.5587 7.54689 26.009 7.99721 26.5645 7.99721Z" fill="#01B151"/>
<path opacity="0.4" d="M27.3283 6.96985C27.2789 7.08133 27.1067 6.70509 26.7583 6.55181C26.4099 6.39853 26.016 6.52647 26.0641 6.41373C26.1122 6.30099 26.5252 6.1325 26.8748 6.28579C27.2245 6.43907 27.3778 6.85711 27.3283 6.96985Z" fill="white"/>
<path d="M24.9101 6.70636C25.4656 6.70636 25.9159 6.25603 25.9159 5.70053C25.9159 5.14503 25.4656 4.6947 24.9101 4.6947C24.3546 4.6947 23.9042 5.14503 23.9042 5.70053C23.9042 6.25603 24.3546 6.70636 24.9101 6.70636Z" fill="#01B151"/>
<path opacity="0.4" d="M25.6739 5.67899C25.6245 5.79047 25.4522 5.41424 25.1039 5.26095C24.7555 5.10767 24.3615 5.23562 24.4097 5.12287C24.4578 5.01013 24.8708 4.84165 25.2204 4.99493C25.5701 5.14821 25.7233 5.56625 25.6739 5.67899Z" fill="white"/>
<path d="M23.2354 5.7018C23.7909 5.7018 24.2412 5.25148 24.2412 4.69597C24.2412 4.14047 23.7909 3.69015 23.2354 3.69015C22.6799 3.69015 22.2295 4.14047 22.2295 4.69597C22.2295 5.25148 22.6799 5.7018 23.2354 5.7018Z" fill="#01B151"/>
<path opacity="0.4" d="M23.9992 4.67444C23.9498 4.78592 23.7776 4.40968 23.4292 4.2564C23.0796 4.10312 22.6869 4.23106 22.735 4.11832C22.7844 4.00684 23.1961 3.83709 23.5457 3.99037C23.8954 4.14366 24.0486 4.56169 23.9992 4.67444Z" fill="white"/>
<path d="M21.2022 5.63466C21.7577 5.63466 22.208 5.18433 22.208 4.62883C22.208 4.07333 21.7577 3.623 21.2022 3.623C20.6467 3.623 20.1964 4.07333 20.1964 4.62883C20.1964 5.18433 20.6467 5.63466 21.2022 5.63466Z" fill="#01B151"/>
<path opacity="0.4" d="M21.966 4.60603C21.9166 4.7175 21.7444 4.34127 21.396 4.18799C21.0476 4.03471 20.6537 4.16265 20.7018 4.04991C20.7499 3.93716 21.1629 3.76868 21.5125 3.92196C21.8622 4.07524 22.0155 4.49328 21.966 4.60603Z" fill="white"/>
<path d="M19.3742 6.60502C19.9297 6.60502 20.38 6.15469 20.38 5.59919C20.38 5.04369 19.9297 4.59336 19.3742 4.59336C18.8187 4.59336 18.3684 5.04369 18.3684 5.59919C18.3684 6.15469 18.8187 6.60502 19.3742 6.60502Z" fill="#01B151"/>
<path opacity="0.4" d="M20.1381 5.57765C20.0887 5.68913 19.9164 5.31289 19.568 5.15961C19.2184 5.00633 18.8257 5.13428 18.8738 5.02153C18.922 4.90879 19.3349 4.74031 19.6846 4.89359C20.0342 5.04687 20.1875 5.46491 20.1381 5.57765Z" fill="white"/>
<path d="M17.697 7.81353C18.2525 7.81353 18.7028 7.3632 18.7028 6.8077C18.7028 6.2522 18.2525 5.80187 17.697 5.80187C17.1415 5.80187 16.6912 6.2522 16.6912 6.8077C16.6912 7.3632 17.1415 7.81353 17.697 7.81353Z" fill="#01B151"/>
<path opacity="0.4" d="M18.4609 6.7849C18.4115 6.89637 18.2392 6.52014 17.8908 6.36686C17.5412 6.21358 17.1485 6.34152 17.1966 6.22878C17.2447 6.11603 17.6577 5.94755 18.0073 6.10083C18.357 6.25411 18.5103 6.67215 18.4609 6.7849Z" fill="white"/>
<path d="M16.529 9.44262C17.0845 9.44262 17.5348 8.99229 17.5348 8.43679C17.5348 7.88129 17.0845 7.43096 16.529 7.43096C15.9735 7.43096 15.5232 7.88129 15.5232 8.43679C15.5232 8.99229 15.9735 9.44262 16.529 9.44262Z" fill="#01B151"/>
<path opacity="0.4" d="M17.2929 8.41525C17.2435 8.52673 17.0712 8.1505 16.7228 7.99721C16.3732 7.84393 15.9805 7.97188 16.0286 7.85913C16.0768 7.74639 16.4897 7.57791 16.8394 7.73119C17.189 7.88447 17.3423 8.30251 17.2929 8.41525Z" fill="white"/>
<path opacity="0.3" d="M10.5764 30.6993C12.6983 29.6136 15.7487 25.4345 15.7487 25.4345C15.7487 25.4345 13.0745 29.9189 10.5764 30.6993Z" fill="white"/>
<path opacity="0.3" d="M12.0953 32.037C14.0854 29.8302 15.8044 27.6438 16.1414 25.8956C15.9982 28.0631 13.4292 31.1515 12.0953 32.037Z" fill="white"/>
<path opacity="0.3" d="M13.4216 33.072C15.0418 30.9058 15.997 28.5381 16.5163 26.4897C16.2643 28.3848 15.0874 31.3973 13.4216 33.072Z" fill="white"/>
<path opacity="0.3" d="M14.739 33.357C15.1862 31.6836 17.4753 26.9724 17.2612 26.0945C17.7211 27.2308 15.299 32.398 14.739 33.357Z" fill="white"/>
</g>
<defs>
<clipPath id="clip0_102_15346">
<rect width="30" height="33.8574" fill="white"/>
</clipPath>
</defs>
</svg>
