<svg width="16" height="16" viewBox="0 0 16 16" fill="none" xmlns="http://www.w3.org/2000/svg">
<g clip-path="url(#clip0_102_15809)">
<path d="M16 8C16 7.90281 15.9983 7.806 15.9948 7.70966C15.842 3.42588 12.3211 0 8 0C3.67891 0 0.158 3.42588 0.0051875 7.70966C0.00175 7.806 0 7.90281 0 8C0 12.4183 4.10944 15.7097 8 15.7097C11.9611 15.7097 16 12.4183 16 8Z" fill="#04B8A9"/>
<path d="M14.6694 7.70965C14.5174 4.15756 11.5895 1.32443 8.00001 1.32443C4.41048 1.32443 1.48267 4.15756 1.33067 7.70965C1.32654 7.80593 1.33063 14.2509 8.00001 14.2509C14.6694 14.2509 14.6735 7.80593 14.6694 7.70965Z" fill="#E4EEF9"/>
<path d="M10.4248 5.65782C10.2345 5.47016 9.92817 5.47226 9.74055 5.66251L8.60511 6.81366L8.7192 7.36169L9.24958 7.53838L10.4295 6.3421C10.6172 6.15185 10.6151 5.84548 10.4248 5.65782ZM7.31505 6.85773L4.73999 4.56298C4.54045 4.38516 4.23461 4.40279 4.05683 4.60232C3.87905 4.80182 3.89664 5.10769 4.09617 5.28548L6.72195 7.62541L7.26911 7.44291L7.31505 6.85773Z" fill="#1B1B2E"/>
<path d="M11.4261 11.1199C11.3692 11.12 11.3141 11.0999 11.2706 11.0632L8.20584 8.48891C8.15713 8.44751 8.12678 8.38852 8.12143 8.32482C8.11607 8.26111 8.13614 8.19788 8.17726 8.14893C8.21838 8.09999 8.2772 8.0693 8.34086 8.06358C8.40453 8.05786 8.46788 8.07757 8.51706 8.11841L11.5818 10.6927C11.6198 10.7247 11.6471 10.7675 11.6599 10.8155C11.6727 10.8635 11.6705 10.9142 11.6535 10.9608C11.6365 11.0075 11.6056 11.0477 11.5649 11.0762C11.5242 11.1047 11.4758 11.1199 11.4261 11.1199Z" fill="#FFBA63"/>
<path d="M6.72195 7.62541L7.17383 8.0281L7.75414 7.83091L7.72267 7.22094L7.31508 6.85772C7.03149 7.02813 6.81683 7.30116 6.72195 7.62541ZM8.60508 6.81369L8.22089 7.20319V7.96775H8.82608L9.24958 7.53841C9.1332 7.22353 8.90111 6.965 8.60508 6.81369Z" fill="#1B1B2E"/>
<path d="M8.77448 7.70963C8.65692 7.39619 8.35451 7.1731 8.00001 7.1731C7.64551 7.1731 7.34311 7.39619 7.22554 7.70963C7.19167 7.79997 7.22329 8.53656 8.00001 8.53656C8.77673 8.53656 8.80836 7.79997 8.77448 7.70963Z" fill="#01B151"/>
<path d="M8.24241 2.92416V2.17331C8.24241 2.10902 8.21687 2.04737 8.17141 2.00191C8.12595 1.95645 8.06429 1.93091 8 1.93091C7.93571 1.93091 7.87405 1.95645 7.82859 2.00191C7.78313 2.04737 7.7576 2.10902 7.7576 2.17331V2.92416C7.7576 3.05803 7.8661 3.16656 8 3.16656C8.13391 3.16656 8.24241 3.05803 8.24241 2.92416ZM7.7576 13.0758V13.8267C7.7576 13.9606 7.8661 14.0691 8 14.0691C8.13391 14.0691 8.24241 13.9606 8.24241 13.8267V13.0758C8.24241 13.0116 8.21687 12.9499 8.17141 12.9044C8.12595 12.859 8.06429 12.8334 8 12.8334C7.93571 12.8334 7.87405 12.859 7.82859 12.9044C7.78313 12.9499 7.7576 13.0116 7.7576 13.0758ZM13.8267 8.24241C13.891 8.24241 13.9526 8.21687 13.9981 8.17141C14.0436 8.12595 14.0691 8.06429 14.0691 8C14.0691 7.93571 14.0436 7.87405 13.9981 7.82859C13.9526 7.78313 13.891 7.7576 13.8267 7.7576H13.0758C13.0116 7.7576 12.9499 7.78313 12.9044 7.82859C12.859 7.87405 12.8334 7.93571 12.8334 8C12.8334 8.06429 12.859 8.12595 12.9044 8.17141C12.9499 8.21687 13.0116 8.24241 13.0758 8.24241H13.8267ZM2.17331 7.7576C2.03941 7.7576 1.93091 7.86613 1.93091 8C1.93091 8.13388 2.03941 8.24241 2.17331 8.24241H2.92416C2.98845 8.24241 3.05011 8.21687 3.09557 8.17141C3.14103 8.12595 3.16656 8.06429 3.16656 8C3.16656 7.93571 3.14103 7.87405 3.09557 7.82859C3.05011 7.78313 2.98845 7.7576 2.92416 7.7576H2.17331Z" fill="#1B1B2E"/>
</g>
<defs>
<clipPath id="clip0_102_15809">
<rect width="16" height="16" fill="white"/>
</clipPath>
</defs>
</svg>
