<svg width="25" height="24" viewBox="0 0 25 24" fill="none" xmlns="http://www.w3.org/2000/svg">
<g clip-path="url(#clip0_154_1343)">
<path d="M1.01066 24C0.932106 24 0.854608 23.9819 0.784198 23.947C0.713789 23.9122 0.652367 23.8616 0.604709 23.7991C0.557052 23.7367 0.524444 23.6641 0.509423 23.5869C0.494402 23.5098 0.497372 23.4303 0.518102 23.3545L2.07834 17.6571C1.10695 15.9005 0.594789 13.9134 0.595539 11.8964C0.598305 5.33663 5.93652 0 12.4957 0C15.6772 0.00126563 18.6666 1.24055 20.9135 3.48909C23.16 5.73778 24.3967 8.727 24.3958 11.9059C24.3929 18.4658 19.0546 23.8028 12.4957 23.8028H12.4906C10.5748 23.802 8.67543 23.3351 6.98427 22.4507L1.14009 23.9834C1.09724 23.9945 1.0537 24 1.01066 24Z" fill="#E5E5E5"/>
<path d="M1.01074 23.4893L2.62643 17.5892C1.62982 15.8623 1.10557 13.9034 1.10627 11.8966C1.1089 5.61843 6.21785 0.510742 12.4958 0.510742C15.5423 0.512008 18.4019 1.69781 20.5523 3.85002C22.7025 6.00224 23.8863 8.86307 23.8852 11.9057C23.8824 18.1837 18.7727 23.2921 12.4958 23.2921C12.496 23.2921 12.4954 23.2921 12.4958 23.2921H12.4909C10.5848 23.2914 8.71193 22.8134 7.04843 21.906L1.01074 23.4893ZM7.32809 19.8448L7.67393 20.0497C9.12705 20.9122 10.7931 21.3682 12.4922 21.3692H12.4958C17.7132 21.3692 21.9598 17.1233 21.962 11.905C21.9629 9.37612 20.9793 6.99815 19.192 5.2094C17.4045 3.42065 15.028 2.43496 12.4993 2.43388C7.27769 2.43388 3.03129 6.67916 3.02927 11.8973C3.02852 13.6855 3.52877 15.4268 4.47654 16.9338L4.70177 17.2919L3.7452 20.7841L7.32809 19.8448Z" fill="white"/>
<path d="M1.40674 23.0918L2.9666 17.3955C2.00421 15.7286 1.49829 13.8373 1.49885 11.9002C1.50119 5.8394 6.43352 0.908569 12.4938 0.908569C15.4352 0.909835 18.1959 2.05462 20.2713 4.1323C22.3474 6.20999 23.49 8.97177 23.4888 11.9088C23.4863 17.9698 18.5538 22.9012 12.4943 22.9012C12.4945 22.9012 12.4938 22.9012 12.4943 22.9012H12.4893C10.6494 22.9004 8.84116 22.4386 7.23536 21.5634L1.40674 23.0918Z" fill="#64B161"/>
<path d="M1.01074 23.4893L2.62643 17.5892C1.62982 15.8623 1.10557 13.9034 1.10627 11.8966C1.1089 5.61843 6.21785 0.510742 12.4958 0.510742C15.5423 0.512008 18.4019 1.69781 20.5523 3.85002C22.7025 6.00224 23.8863 8.86307 23.8852 11.9057C23.8824 18.1837 18.7727 23.2921 12.4958 23.2921C12.496 23.2921 12.4954 23.2921 12.4958 23.2921H12.4909C10.5848 23.2914 8.71193 22.8134 7.04843 21.906L1.01074 23.4893ZM7.32809 19.8448L7.67393 20.0497C9.12705 20.9122 10.7931 21.3682 12.4922 21.3692H12.4958C17.7132 21.3692 21.9598 17.1233 21.962 11.905C21.9629 9.37612 20.9793 6.99815 19.192 5.2094C17.4045 3.42065 15.028 2.43496 12.4993 2.43388C7.27769 2.43388 3.03129 6.67916 3.02927 11.8973C3.02852 13.6855 3.52877 15.4268 4.47654 16.9338L4.70177 17.2919L3.7452 20.7841L7.32809 19.8448Z" fill="white"/>
<path fill-rule="evenodd" clip-rule="evenodd" d="M9.64939 7.13661C9.43625 6.6627 9.21176 6.65323 9.00889 6.64498C8.84295 6.63781 8.6531 6.63819 8.46359 6.63819C8.27389 6.63819 7.96554 6.70962 7.70478 6.99434C7.44387 7.27906 6.7085 7.96756 6.7085 9.36776C6.7085 10.7682 7.7284 12.1211 7.87067 12.3112C8.01293 12.501 9.83942 15.4663 12.7319 16.607C15.1359 17.5551 15.6251 17.3665 16.1469 17.3191C16.6687 17.2717 17.8305 16.6306 18.0676 15.9661C18.305 15.3017 18.305 14.7322 18.2337 14.613C18.1625 14.4945 17.9728 14.4233 17.6883 14.281C17.4037 14.1388 16.0046 13.4501 15.7437 13.3552C15.4827 13.2602 15.293 13.213 15.1033 13.4979C14.9135 13.7824 14.3685 14.4233 14.2024 14.613C14.0364 14.8033 13.8703 14.8271 13.5858 14.6846C13.3012 14.542 12.3846 14.2416 11.2973 13.2721C10.4514 12.5179 9.88006 11.5863 9.71403 11.3014C9.54809 11.0168 9.71121 10.8762 9.83904 10.7207C10.0692 10.4407 10.4554 9.93744 10.5502 9.74769C10.6451 9.55766 10.5977 9.39158 10.5266 9.24908C10.4554 9.10681 9.90223 7.69948 9.64939 7.13661Z" fill="white"/>
</g>
<defs>
<clipPath id="clip0_154_1343">
<rect width="24" height="24" fill="white" transform="translate(0.5)"/>
</clipPath>
</defs>
</svg>
